<svg width="500" height="500" viewBox="0 0 500 500" fill="none" xmlns="http://www.w3.org/2000/svg">
<path d="M443.4 330.93C443.4 330.93 494.49 273.51 478.25 173.6C462.01 73.6902 378.58 36.8802 323.25 56.1102C267.92 75.3402 255.44 108.81 210.25 127.95C165.06 147.09 79.1905 133.95 36.2505 198.24C-6.68954 262.53 48.1305 369.06 117.92 435.86C187.71 502.66 365.8 460.84 443.4 330.93Z" fill="url(#paint0_linear_223_7268)"/>
<path opacity="0.7" d="M443.4 330.93C443.4 330.93 494.49 273.51 478.25 173.6C462.01 73.6902 378.58 36.8802 323.25 56.1102C267.92 75.3402 255.44 108.81 210.25 127.95C165.06 147.09 79.1905 133.95 36.2505 198.24C-6.68954 262.53 48.1305 369.06 117.92 435.86C187.71 502.66 365.8 460.84 443.4 330.93Z" fill="white"/>
<path d="M445 475.44H477.66" stroke="#263238" stroke-linecap="round" stroke-linejoin="round"/>
<path d="M26.6406 475.44H435.001" stroke="#263238" stroke-linecap="round" stroke-linejoin="round"/>
<path d="M439 401.5L422.5 424.5L428.33 428.44C430.211 429.711 431.752 431.424 432.817 433.429C433.883 435.434 434.44 437.67 434.44 439.94H446.38C446.378 437.67 446.933 435.435 447.997 433.43C449.061 431.425 450.6 429.711 452.48 428.44L458.31 424.5L441.82 401.5H439Z" fill="white" stroke="#263238" stroke-linecap="round" stroke-linejoin="round"/>
<path d="M440.189 401.8V420.33" stroke="#263238" stroke-linecap="round" stroke-linejoin="round"/>
<path d="M440.19 424.28C442.372 424.28 444.14 422.512 444.14 420.33C444.14 418.149 442.372 416.38 440.19 416.38C438.009 416.38 436.24 418.149 436.24 420.33C436.24 422.512 438.009 424.28 440.19 424.28Z" fill="white" stroke="#263238" stroke-linecap="round" stroke-linejoin="round"/>
<path d="M468.001 420.33C468.001 412.944 465.067 405.86 459.844 400.637C454.621 395.414 447.537 392.48 440.151 392.48C432.765 392.48 425.681 395.414 420.458 400.637C415.235 405.86 412.301 412.944 412.301 420.33" stroke="#263238" stroke-linecap="round" stroke-linejoin="round"/>
<path d="M470.119 418.25H465.959V422.41H470.119V418.25Z" fill="white" stroke="#263238" stroke-linejoin="round"/>
<path d="M414.119 418.25H409.959V422.41H414.119V418.25Z" fill="white" stroke="#263238" stroke-linejoin="round"/>
<path d="M442.269 390.4H438.109V394.56H442.269V390.4Z" fill="white" stroke="#263238" stroke-linejoin="round"/>
<path d="M442.201 348.495C457.021 344.953 466.164 330.068 462.623 315.248C459.081 300.427 444.196 291.284 429.375 294.826C414.555 298.368 405.412 313.253 408.954 328.073C412.495 342.893 427.381 352.036 442.201 348.495Z" stroke="#263238" stroke-linecap="round" stroke-linejoin="round"/>
<path d="M435.8 344.25C448.298 344.25 458.43 334.118 458.43 321.62C458.43 309.122 448.298 298.99 435.8 298.99C423.302 298.99 413.17 309.122 413.17 321.62C413.17 334.118 423.302 344.25 435.8 344.25Z" stroke="#263238" stroke-linecap="round" stroke-linejoin="round"/>
<path d="M435.801 330.63V321.62H455.671" stroke="#263238" stroke-linecap="round" stroke-linejoin="round"/>
<path d="M438.01 291.83H433.6V296.24H438.01V291.83Z" fill="white" stroke="#263238" stroke-linecap="round" stroke-linejoin="round"/>
<path d="M438.01 347.06H433.6V351.47H438.01V347.06Z" fill="white" stroke="#263238" stroke-linecap="round" stroke-linejoin="round"/>
<path d="M465.881 319.79H461.471V324.2H465.881V319.79Z" fill="white" stroke="#263238" stroke-linecap="round" stroke-linejoin="round"/>
<path d="M410.34 319.79H405.93V324.2H410.34V319.79Z" fill="white" stroke="#263238" stroke-linecap="round" stroke-linejoin="round"/>
<path d="M455.061 340.52L458.001 364.69L463.411 355.4L474.161 355.61L455.061 340.52Z" fill="#263238"/>
<path d="M470.031 363.86H465.891V368H470.031V363.86Z" fill="#263238"/>
<path d="M466.53 196.05H413.55C411.12 196.05 409.15 198.02 409.15 200.45V237.26C409.15 239.69 411.12 241.66 413.55 241.66H466.53C468.96 241.66 470.93 239.69 470.93 237.26V200.45C470.93 198.02 468.96 196.05 466.53 196.05Z" stroke="#263238" stroke-linecap="round" stroke-linejoin="round"/>
<path d="M409.42 229.89H470.66" stroke="#263238" stroke-linecap="round" stroke-linejoin="round"/>
<path d="M448.02 241.65H432.07V253.85H448.02V241.65Z" stroke="#263238" stroke-linecap="round" stroke-linejoin="round"/>
<path d="M452.97 253.88H426.9V256.21H452.97V253.88Z" stroke="#263238" stroke-linecap="round" stroke-linejoin="round"/>
<path d="M47.0098 304.33L60.5098 433.66" stroke="#263238" stroke-linecap="round" stroke-linejoin="round"/>
<path d="M57.8487 408.37L52.2188 402.44" stroke="#263238" stroke-linecap="round" stroke-linejoin="round"/>
<path d="M54.0804 404.38C54.067 403.391 53.8424 402.416 53.4215 401.521C53.0007 400.626 52.3934 399.831 51.6404 399.19C50.0704 397.79 41.8104 394.31 41.0204 397.19C40.1704 400.39 48.6304 406.61 54.0804 404.38Z" fill="url(#paint1_linear_223_7268)" stroke="#263238" stroke-linejoin="round"/>
<path d="M54.079 404.38L46.209 399.48" stroke="#263238" stroke-linecap="round" stroke-linejoin="round"/>
<path d="M59.25 421.73L53.75 417.15" stroke="#263238" stroke-linecap="round" stroke-linejoin="round"/>
<path d="M55.6088 419.09C55.5986 418.101 55.3764 417.126 54.9572 416.231C54.538 415.336 53.9316 414.541 53.1788 413.9C51.6088 412.5 43.3388 409.02 42.5588 411.9C41.6988 415.1 50.1588 421.31 55.6088 419.09Z" fill="url(#paint2_linear_223_7268)" stroke="#263238" stroke-linejoin="round"/>
<path d="M55.6102 419.09L47.7402 414.19" stroke="#263238" stroke-linecap="round" stroke-linejoin="round"/>
<path d="M54.0287 371.55L48.4688 366.55" stroke="#263238" stroke-linecap="round" stroke-linejoin="round"/>
<path d="M50.3295 368.49C50.3193 367.502 50.0971 366.527 49.6779 365.631C49.2587 364.736 48.6523 363.941 47.8995 363.3C46.3295 361.9 38.0595 358.42 37.2795 361.3C36.4195 364.5 44.8795 370.72 50.3295 368.49Z" fill="url(#paint3_linear_223_7268)" stroke="#263238" stroke-linejoin="round"/>
<path d="M50.329 368.49L42.459 363.59" stroke="#263238" stroke-linecap="round" stroke-linejoin="round"/>
<path d="M55.5798 387.19L50.0098 381.26" stroke="#263238" stroke-linecap="round" stroke-linejoin="round"/>
<path d="M51.8702 383.2C51.8583 382.209 51.6343 381.232 51.2135 380.336C50.7926 379.439 50.1846 378.642 49.4302 378C47.8602 376.6 39.5903 373.12 38.8103 376C38.0003 379.21 46.4202 385.42 51.8702 383.2Z" fill="url(#paint4_linear_223_7268)" stroke="#263238" stroke-linejoin="round"/>
<path d="M51.87 383.2L44 378.3" stroke="#263238" stroke-linecap="round" stroke-linejoin="round"/>
<path d="M51.5505 348.34L45.9805 342.66" stroke="#263238" stroke-linecap="round" stroke-linejoin="round"/>
<path d="M47.8401 344.6C47.8268 343.611 47.6021 342.636 47.1813 341.741C46.7605 340.846 46.1532 340.051 45.4001 339.41C43.8301 338.01 35.5701 334.53 34.7801 337.41C33.9301 340.61 42.3901 346.82 47.8401 344.6Z" fill="url(#paint5_linear_223_7268)" stroke="#263238" stroke-linejoin="round"/>
<path d="M47.8387 344.6L39.9688 339.7" stroke="#263238" stroke-linecap="round" stroke-linejoin="round"/>
<path d="M48.8687 322.79L43.4688 318.67" stroke="#263238" stroke-linecap="round" stroke-linejoin="round"/>
<path d="M45.3295 320.6C45.3193 319.611 45.0971 318.636 44.6779 317.741C44.2587 316.846 43.6523 316.051 42.8995 315.41C41.3295 314.01 33.0595 310.53 32.2795 313.41C31.4195 316.61 39.8795 322.83 45.3295 320.6Z" fill="url(#paint6_linear_223_7268)" stroke="#263238" stroke-linejoin="round"/>
<path d="M45.329 320.6L37.459 315.7" stroke="#263238" stroke-linecap="round" stroke-linejoin="round"/>
<path d="M57.3086 400.21L61.9586 392.62" stroke="#263238" stroke-linecap="round" stroke-linejoin="round"/>
<path d="M60.5399 394.9C60.3482 393.93 60.366 392.931 60.5919 391.968C60.8178 391.006 61.2467 390.103 61.8499 389.32C63.0999 387.62 70.4699 382.51 71.8499 385.2C73.3299 388.12 66.3299 396 60.5399 394.9Z" fill="url(#paint7_linear_223_7268)" stroke="#263238" stroke-linejoin="round"/>
<path d="M60.5391 394.9L66.0791 389.7" stroke="#263238" stroke-linecap="round" stroke-linejoin="round"/>
<path d="M53.2695 361.5L57.9195 353.91" stroke="#263238" stroke-linecap="round" stroke-linejoin="round"/>
<path d="M56.4988 356.19C56.3072 355.22 56.325 354.221 56.5509 353.258C56.7768 352.296 57.2057 351.393 57.8088 350.61C59.0588 348.92 64.8088 344.67 66.1888 347.35C67.6788 350.27 62.2888 357.25 56.4988 356.19Z" fill="url(#paint8_linear_223_7268)" stroke="#263238" stroke-linejoin="round"/>
<path d="M56.5 356.19L63.59 349.42" stroke="#263238" stroke-linecap="round" stroke-linejoin="round"/>
<path d="M51.4902 344.49L56.1502 336.91" stroke="#263238" stroke-linecap="round" stroke-linejoin="round"/>
<path d="M54.7298 339.18C54.5326 338.213 54.5439 337.215 54.7629 336.253C54.9819 335.29 55.4036 334.386 55.9998 333.6C57.2398 331.91 64.6098 326.8 65.9998 329.48C67.5098 332.41 60.5198 340.24 54.7298 339.18Z" fill="url(#paint9_linear_223_7268)" stroke="#263238" stroke-linejoin="round"/>
<path d="M54.7305 339.18L61.8105 332.41" stroke="#263238" stroke-linecap="round" stroke-linejoin="round"/>
<path d="M48.8887 319.56L53.5387 311.97" stroke="#263238" stroke-linecap="round" stroke-linejoin="round"/>
<path d="M52.1193 314.25C51.9277 313.28 51.9464 312.279 52.1741 311.317C52.4018 310.354 52.8333 309.452 53.4393 308.67C54.6793 306.97 62.0493 301.86 63.4393 304.55C64.9093 307.47 57.9193 315.3 52.1193 314.25Z" fill="url(#paint10_linear_223_7268)" stroke="#263238" stroke-linejoin="round"/>
<path d="M52.1191 314.25L59.2091 307.48" stroke="#263238" stroke-linecap="round" stroke-linejoin="round"/>
<path d="M46.9001 303.61C46.704 302.636 46.7195 301.631 46.9455 300.663C47.1715 299.695 47.6027 298.787 48.2101 298C49.4601 296.31 56.8301 291.2 58.2101 293.88C59.6901 296.84 52.6901 304.67 46.9001 303.61Z" fill="url(#paint11_linear_223_7268)" stroke="#263238" stroke-linejoin="round"/>
<path d="M46.9004 303.61L53.9904 296.84" stroke="#263238" stroke-linecap="round" stroke-linejoin="round"/>
<path d="M47.3105 303.91C46.325 303.992 45.3333 303.864 44.4008 303.535C43.4683 303.206 42.6162 302.682 41.9005 302C40.3405 300.58 36.0305 292.71 38.9005 291.64C41.9105 290.48 49.0005 298.26 47.3105 303.91Z" fill="url(#paint12_linear_223_7268)" stroke="#263238" stroke-linejoin="round"/>
<path d="M47.3103 303.91L41.3203 296.15" stroke="#263238" stroke-linecap="round" stroke-linejoin="round"/>
<path d="M67.2305 269.48V433.03" stroke="#263238" stroke-linecap="round" stroke-linejoin="round"/>
<path d="M82.6095 322.14L69.1895 451.47" stroke="#263238" stroke-linecap="round" stroke-linejoin="round"/>
<path d="M72.0299 425.05L68.9199 421.5" stroke="#263238" stroke-linecap="round" stroke-linejoin="round"/>
<path d="M68.9189 421.5C69.1105 420.53 69.0928 419.531 68.8669 418.568C68.6409 417.606 68.2121 416.703 67.6089 415.92C66.3589 414.23 58.9889 409.12 57.6089 411.81C56.1289 414.73 63.1289 422.56 68.9189 421.5Z" fill="url(#paint13_linear_223_7268)" stroke="#263238" stroke-linejoin="round"/>
<path d="M68.9205 421.5L62.2305 415.08" stroke="#263238" stroke-linecap="round" stroke-linejoin="round"/>
<path d="M75.819 388.13L71.209 384.28" stroke="#263238" stroke-linecap="round" stroke-linejoin="round"/>
<path d="M72.6491 385.61C72.8451 384.635 72.8286 383.629 72.6009 382.661C72.3731 381.693 71.9393 380.785 71.3291 380C70.0791 378.3 62.7091 373.2 61.3291 375.89C59.8591 378.84 66.8591 386.67 72.6491 385.61Z" fill="url(#paint14_linear_223_7268)" stroke="#263238" stroke-linejoin="round"/>
<path d="M72.649 385.61L65.959 379.19" stroke="#263238" stroke-linecap="round" stroke-linejoin="round"/>
<path d="M74.3592 405.62L69.6992 398.04" stroke="#263238" stroke-linecap="round" stroke-linejoin="round"/>
<path d="M71.1201 400.32C71.3117 399.35 71.294 398.351 71.068 397.388C70.8421 396.426 70.4132 395.523 69.8101 394.74C68.5601 393.04 61.1901 387.94 59.8101 390.62C58.3301 393.55 65.3301 401.37 71.1201 400.32Z" fill="url(#paint15_linear_223_7268)" stroke="#263238" stroke-linejoin="round"/>
<path d="M71.1197 400.32L64.4297 393.9" stroke="#263238" stroke-linecap="round" stroke-linejoin="round"/>
<path d="M78.149 364.56L73.709 359.44" stroke="#263238" stroke-linecap="round" stroke-linejoin="round"/>
<path d="M75.1295 361.72C75.3211 360.749 75.3024 359.749 75.0747 358.787C74.847 357.824 74.4156 356.922 73.8095 356.14C72.5595 354.44 65.1895 349.34 63.8095 352.02C62.3395 355 69.3395 362.77 75.1295 361.72Z" fill="url(#paint16_linear_223_7268)" stroke="#263238" stroke-linejoin="round"/>
<path d="M75.1294 361.72L68.4395 355.3" stroke="#263238" stroke-linecap="round" stroke-linejoin="round"/>
<path d="M80.4892 342.1L76.1992 335.44" stroke="#263238" stroke-linecap="round" stroke-linejoin="round"/>
<path d="M77.6198 337.72C77.8113 336.749 77.7926 335.749 77.5649 334.787C77.3372 333.824 76.9058 332.922 76.2998 332.14C75.0498 330.44 67.6798 325.34 66.2998 328.02C64.8298 331 71.8298 338.77 77.6198 337.72Z" fill="url(#paint17_linear_223_7268)" stroke="#263238" stroke-linejoin="round"/>
<path d="M77.6197 337.72L70.9297 331.3" stroke="#263238" stroke-linecap="round" stroke-linejoin="round"/>
<path d="M72.9395 418.08L79.0594 411.61" stroke="#263238" stroke-linecap="round" stroke-linejoin="round"/>
<path d="M77.1992 413.55C77.2094 412.561 77.4316 411.586 77.8508 410.691C78.27 409.796 78.8765 409.001 79.6292 408.36C81.1992 406.96 89.4692 403.47 90.2492 406.36C91.1092 409.55 82.6492 415.77 77.1992 413.55Z" fill="url(#paint18_linear_223_7268)" stroke="#263238" stroke-linejoin="round"/>
<path d="M77.1992 413.55L85.5292 408.38" stroke="#263238" stroke-linecap="round" stroke-linejoin="round"/>
<path d="M76.959 379.37L83.079 372.91" stroke="#263238" stroke-linecap="round" stroke-linejoin="round"/>
<path d="M81.2188 374.84C81.2296 373.851 81.4521 372.877 81.8713 371.981C82.2904 371.086 82.8965 370.291 83.6488 369.65C85.2188 368.25 93.4787 364.77 94.2687 367.65C95.1187 370.84 86.6687 377.07 81.2188 374.84Z" fill="url(#paint19_linear_223_7268)" stroke="#263238" stroke-linejoin="round"/>
<path d="M81.2188 374.84L89.5488 369.68" stroke="#263238" stroke-linecap="round" stroke-linejoin="round"/>
<path d="M78.7305 362.36L84.8405 355.9" stroke="#263238" stroke-linecap="round" stroke-linejoin="round"/>
<path d="M83 357.84C83.0158 356.85 83.2415 355.874 83.6621 354.978C84.0827 354.082 84.6887 353.285 85.44 352.64C87 351.24 95.27 347.76 96.05 350.64C96.89 353.83 88.43 360.06 83 357.84Z" fill="url(#paint20_linear_223_7268)" stroke="#263238" stroke-linejoin="round"/>
<path d="M82.9805 357.84L91.3105 352.67" stroke="#263238" stroke-linecap="round" stroke-linejoin="round"/>
<path d="M81.2402 336.15L87.4302 330.96" stroke="#263238" stroke-linecap="round" stroke-linejoin="round"/>
<path d="M85.5703 332.9C85.5805 331.911 85.8027 330.936 86.2219 330.041C86.6411 329.146 87.2476 328.351 88.0003 327.71C89.5703 326.3 97.8403 322.82 98.6203 325.71C99.4803 328.9 91.0003 335.12 85.5703 332.9Z" fill="url(#paint21_linear_223_7268)" stroke="#263238" stroke-linejoin="round"/>
<path d="M85.5703 332.9L93.9003 327.73" stroke="#263238" stroke-linejoin="round"/>
<path d="M82.6504 321.42C82.6611 320.43 82.8835 319.454 83.3026 318.557C83.7217 317.66 84.3279 316.863 85.0804 316.22C86.6504 314.82 94.9104 311.34 95.7004 314.22C96.5604 317.42 88.1004 323.64 82.6504 321.42Z" fill="url(#paint22_linear_223_7268)" stroke="#263238" stroke-linejoin="round"/>
<path d="M82.6504 321.42L90.9804 316.25" stroke="#263238" stroke-linecap="round" stroke-linejoin="round"/>
<path d="M83.0004 321.79C82.0161 321.666 81.0694 321.335 80.2229 320.818C79.3764 320.3 78.6495 319.609 78.0904 318.79C76.8604 317.09 74.2704 308.5 77.2404 308.03C80.4704 307.54 85.7704 316.6 83.0004 321.79Z" fill="url(#paint23_linear_223_7268)" stroke="#263238" stroke-linejoin="round"/>
<path d="M82.9887 321.79L78.7188 312.96" stroke="#263238" stroke-linecap="round" stroke-linejoin="round"/>
<path d="M67.0092 408.14L61.9492 401.37" stroke="#263238" stroke-linecap="round" stroke-linejoin="round"/>
<path d="M63.5999 403.49C63.6902 402.505 63.5682 401.513 63.2422 400.579C62.9161 399.646 62.3936 398.794 61.7099 398.08C60.2999 396.52 52.4399 392.2 51.3499 395.02C50.1799 398.08 57.9999 405.14 63.5999 403.49Z" fill="url(#paint24_linear_223_7268)" stroke="#263238" stroke-linejoin="round"/>
<path d="M63.5993 403.49L56.2793 397.8" stroke="#263238" stroke-linecap="round" stroke-linejoin="round"/>
<path d="M67.1892 375.52L61.9492 370.64" stroke="#263238" stroke-linecap="round" stroke-linejoin="round"/>
<path d="M63.5999 372.76C63.6904 371.774 63.5685 370.78 63.2425 369.845C62.9164 368.91 62.3939 368.056 61.7099 367.34C60.2999 365.78 52.4399 361.47 51.3499 364.28C50.1799 367.34 57.9999 374.4 63.5999 372.76Z" fill="url(#paint25_linear_223_7268)" stroke="#263238" stroke-linejoin="round"/>
<path d="M63.5993 372.76L56.2793 367.06" stroke="#263238" stroke-linecap="round" stroke-linejoin="round"/>
<path d="M67.3592 341.62L61.9492 334.55" stroke="#263238" stroke-linecap="round" stroke-linejoin="round"/>
<path d="M63.5999 336.67C63.6902 335.685 63.5682 334.693 63.2422 333.76C62.9161 332.826 62.3936 331.974 61.7099 331.26C60.2999 329.7 52.4399 325.38 51.3499 328.2C50.1799 331.26 57.9999 338.32 63.5999 336.67Z" fill="url(#paint26_linear_223_7268)" stroke="#263238" stroke-linejoin="round"/>
<path d="M63.5993 336.67L56.2793 330.98" stroke="#263238" stroke-linecap="round" stroke-linejoin="round"/>
<path d="M67.0092 315.09L61.9492 310.53" stroke="#263238" stroke-linecap="round" stroke-linejoin="round"/>
<path d="M63.5999 312.65C63.6902 311.665 63.5682 310.673 63.2422 309.74C62.9161 308.806 62.3936 307.954 61.7099 307.24C60.2999 305.68 52.4399 301.36 51.3499 304.18C50.1799 307.24 57.9999 314.3 63.5999 312.65Z" fill="url(#paint27_linear_223_7268)" stroke="#263238" stroke-linejoin="round"/>
<path d="M63.5993 312.65L56.2793 306.96" stroke="#263238" stroke-linecap="round" stroke-linejoin="round"/>
<path d="M67.2988 291.06L62.0488 287.21" stroke="#263238" stroke-linecap="round" stroke-linejoin="round"/>
<path d="M63.5999 288.52C63.6902 287.535 63.5682 286.543 63.2422 285.61C62.9161 284.676 62.3936 283.824 61.7099 283.11C60.2999 281.55 52.4399 277.23 51.3499 280.05C50.1799 283.11 57.9999 290.17 63.5999 288.52Z" fill="url(#paint28_linear_223_7268)" stroke="#263238" stroke-linejoin="round"/>
<path d="M63.5993 288.52L56.2793 282.83" stroke="#263238" stroke-linecap="round" stroke-linejoin="round"/>
<path d="M68.2891 416.3L72.6591 410.76" stroke="#263238" stroke-linecap="round" stroke-linejoin="round"/>
<path d="M70.9999 412.88C70.9127 411.895 71.0352 410.903 71.3592 409.968C71.6832 409.034 72.2015 408.179 72.8799 407.46C74.2999 405.9 82.1599 401.59 83.2399 404.4C84.4299 407.46 76.6599 414.53 70.9999 412.88Z" fill="url(#paint29_linear_223_7268)" stroke="#263238" stroke-linejoin="round"/>
<path d="M71.0098 412.88L78.7598 406.88" stroke="#263238" stroke-linecap="round" stroke-linejoin="round"/>
<path d="M67.2402 368.94L72.6602 361.88" stroke="#263238" stroke-linecap="round" stroke-linejoin="round"/>
<path d="M70.9999 364C70.9127 363.015 71.0352 362.023 71.3592 361.088C71.6832 360.154 72.2015 359.299 72.8799 358.58C74.2999 357.02 82.1599 352.71 83.2399 355.52C84.4299 358.58 76.6599 365.64 70.9999 364Z" fill="url(#paint30_linear_223_7268)" stroke="#263238" stroke-linejoin="round"/>
<path d="M71.0098 364L78.7598 357.99" stroke="#263238" stroke-linecap="round" stroke-linejoin="round"/>
<path d="M67.2402 344.81L72.6602 337.75" stroke="#263238" stroke-linecap="round" stroke-linejoin="round"/>
<path d="M70.9999 339.87C70.9127 338.885 71.0352 337.892 71.3592 336.958C71.6832 336.024 72.2015 335.169 72.8799 334.45C74.2999 332.9 82.1599 328.58 83.2399 331.39C84.4299 334.45 76.6599 341.52 70.9999 339.87Z" fill="url(#paint31_linear_223_7268)" stroke="#263238" stroke-linejoin="round"/>
<path d="M71.0098 339.87L78.7598 333.87" stroke="#263238" stroke-linecap="round" stroke-linejoin="round"/>
<path d="M67.2402 312.92L72.6602 305.86" stroke="#263238" stroke-linecap="round" stroke-linejoin="round"/>
<path d="M70.9999 308C70.9127 307.015 71.0352 306.023 71.3592 305.089C71.6832 304.154 72.2015 303.299 72.8799 302.58C74.2999 301.03 82.1599 296.71 83.2399 299.52C84.4299 302.56 76.6599 309.63 70.9999 308Z" fill="url(#paint32_linear_223_7268)" stroke="#263238" stroke-linejoin="round"/>
<path d="M71.0098 307.98L78.7598 301.98" stroke="#263238" stroke-linecap="round" stroke-linejoin="round"/>
<path d="M67.4805 285.4L72.7905 281.26" stroke="#263238" stroke-linecap="round" stroke-linejoin="round"/>
<path d="M70.9999 282.91C70.9127 281.925 71.0352 280.933 71.3592 279.998C71.6832 279.064 72.2015 278.209 72.8799 277.49C74.2999 275.94 82.1599 271.62 83.2399 274.43C84.4299 277.49 76.6599 284.56 70.9999 282.91Z" fill="url(#paint33_linear_223_7268)" stroke="#263238" stroke-linejoin="round"/>
<path d="M71.0098 282.91L78.7598 276.91" stroke="#263238" stroke-linecap="round" stroke-linejoin="round"/>
<path d="M66.9199 271.79C66.8326 270.805 66.9551 269.812 67.2791 268.878C67.6032 267.944 68.1215 267.089 68.7999 266.37C70.2199 264.82 78.0799 260.5 79.1599 263.31C80.3399 266.37 72.5699 273.44 66.9199 271.79Z" fill="url(#paint34_linear_223_7268)" stroke="#263238" stroke-linejoin="round"/>
<path d="M66.9199 271.79L74.6699 265.79" stroke="#263238" stroke-linecap="round" stroke-linejoin="round"/>
<path d="M67.3002 272.12C66.3112 272.106 65.3365 271.882 64.4414 271.461C63.5463 271.04 62.7514 270.433 62.1102 269.68C60.7102 268.11 57.2402 259.84 60.1102 259.06C63.3202 258.21 69.5302 266.68 67.3002 272.12Z" fill="url(#paint35_linear_223_7268)" stroke="#263238" stroke-linejoin="round"/>
<path d="M67.2987 272.12L62.1387 263.79" stroke="#263238" stroke-linecap="round" stroke-linejoin="round"/>
<path d="M73.9605 475.44H56.6405L54.4805 431.7H76.1305L73.9605 475.44Z" fill="#263238" stroke="#263238" stroke-linecap="round" stroke-linejoin="round"/>
<path d="M277.49 286.82L285.13 305.93H265V309.37H308.45L297.22 286.66L277.49 286.82Z" fill="white" stroke="#263238" stroke-linejoin="round"/>
<path d="M275.64 286.82L283.29 305.93H263.15V309.37H306.6L295.37 286.66L275.64 286.82Z" fill="white" stroke="#263238" stroke-linejoin="round"/>
<path d="M339.869 287H231.579C231.087 286.999 230.6 286.899 230.147 286.705C229.695 286.511 229.286 286.227 228.946 285.872C228.606 285.516 228.342 285.095 228.169 284.634C227.996 284.173 227.917 283.682 227.939 283.19L231.469 201.44C231.518 200.345 231.987 199.311 232.778 198.553C233.57 197.795 234.623 197.372 235.719 197.37H343.999C344.516 197.371 345.028 197.476 345.503 197.68C345.979 197.883 346.408 198.181 346.766 198.554C347.124 198.928 347.402 199.37 347.585 199.854C347.768 200.338 347.851 200.853 347.829 201.37L344.319 282.7C344.266 283.849 343.775 284.934 342.948 285.734C342.121 286.533 341.019 286.986 339.869 287Z" fill="white" stroke="#263238" stroke-linejoin="round"/>
<path d="M334.329 287H225.999C225.507 287.001 225.019 286.901 224.566 286.708C224.113 286.514 223.704 286.231 223.364 285.875C223.023 285.518 222.759 285.097 222.586 284.635C222.414 284.174 222.336 283.682 222.359 283.19L225.889 201.44C225.936 200.344 226.404 199.309 227.196 198.551C227.988 197.792 229.043 197.369 230.139 197.37H338.499C339.017 197.371 339.528 197.476 340.004 197.68C340.479 197.883 340.909 198.181 341.266 198.554C341.624 198.928 341.903 199.37 342.085 199.854C342.268 200.338 342.351 200.853 342.329 201.37L338.809 282.7C338.76 283.856 338.267 284.948 337.433 285.749C336.598 286.551 335.486 286.999 334.329 287Z" fill="#263238" stroke="#263238" stroke-linejoin="round"/>
<path d="M334.21 268.28H228.27L231.17 201.12H337.11L334.21 268.28Z" fill="white" stroke="#263238" stroke-linejoin="round"/>
<path d="M270.078 230.06C270.176 228.254 269.886 226.449 269.227 224.764C268.568 223.08 267.556 221.557 266.259 220.296C264.961 219.036 263.409 218.069 261.707 217.459C260.004 216.849 258.191 216.611 256.389 216.76C253.182 217.02 250.159 218.363 247.818 220.57C245.477 222.777 243.957 225.715 243.508 228.9C243.27 230.608 243.377 232.346 243.826 234.011C244.274 235.676 245.054 237.234 246.118 238.59C247.989 240.974 248.934 243.954 248.778 246.98L248.698 248.81H263.108L263.188 246.98C263.34 243.881 264.543 240.925 266.598 238.6C268.694 236.231 269.921 233.219 270.078 230.06Z" fill="white" stroke="#263238" stroke-linecap="round" stroke-linejoin="round"/>
<path d="M262.949 252.38H248.539L248.699 248.81H263.109L262.949 252.38Z" fill="white" stroke="#263238" stroke-linecap="round" stroke-linejoin="round"/>
<path d="M259.229 256H251.939C251.477 256.004 251.019 255.912 250.593 255.732C250.168 255.552 249.784 255.286 249.466 254.951C249.147 254.617 248.9 254.22 248.741 253.787C248.581 253.353 248.513 252.891 248.539 252.43H262.999C262.95 253.396 262.531 254.306 261.829 254.97C261.127 255.635 260.195 256.004 259.229 256Z" fill="white" stroke="#263238" stroke-linecap="round" stroke-linejoin="round"/>
<path d="M257.249 259.51H253.599C253.137 259.513 252.679 259.422 252.254 259.242C251.828 259.061 251.444 258.796 251.126 258.461C250.807 258.126 250.56 257.73 250.401 257.297C250.242 256.863 250.173 256.401 250.199 255.94H260.999C260.95 256.902 260.534 257.809 259.836 258.473C259.138 259.137 258.212 259.509 257.249 259.51Z" fill="white" stroke="#263238" stroke-linecap="round" stroke-linejoin="round"/>
<path d="M271.969 230.13H278.069" stroke="#263238" stroke-linecap="round" stroke-linejoin="round"/>
<path d="M234.83 230.13H241.02" stroke="#263238" stroke-linecap="round" stroke-linejoin="round"/>
<path d="M257.15 214.63L257.42 208.51" stroke="#263238" stroke-linecap="round" stroke-linejoin="round"/>
<path d="M268.02 219.06L272.42 214.84" stroke="#263238" stroke-linecap="round" stroke-linejoin="round"/>
<path d="M240.479 245.42L244.949 241.14" stroke="#263238" stroke-linecap="round" stroke-linejoin="round"/>
<path d="M245.76 218.94L241.85 214.84" stroke="#263238" stroke-linecap="round" stroke-linejoin="round"/>
<path d="M271.06 245.42L267.16 241.34" stroke="#263238" stroke-linecap="round" stroke-linejoin="round"/>
<path d="M320 230.06C320.099 228.254 319.81 226.449 319.152 224.765C318.494 223.08 317.483 221.557 316.187 220.296C314.89 219.036 313.339 218.068 311.637 217.458C309.935 216.848 308.122 216.61 306.32 216.76C303.112 217.018 300.089 218.361 297.747 220.567C295.406 222.774 293.886 225.713 293.44 228.9C293.199 230.607 293.306 232.345 293.752 234.01C294.199 235.675 294.977 237.232 296.04 238.59C297.908 240.975 298.856 243.953 298.71 246.98L298.62 248.81H313.04L313.12 246.98C313.271 243.88 314.474 240.925 316.53 238.6C318.626 236.232 319.85 233.219 320 230.06Z" fill="#263238" stroke="white" stroke-linecap="round" stroke-linejoin="round"/>
<path d="M312.92 252.38H298.5L298.66 248.81H313.08L312.92 252.38Z" fill="#263238" stroke="white" stroke-linecap="round" stroke-linejoin="round"/>
<path d="M309.189 256H301.909C301.447 256.004 300.988 255.912 300.562 255.732C300.137 255.552 299.752 255.286 299.433 254.952C299.113 254.617 298.866 254.221 298.705 253.788C298.545 253.354 298.474 252.892 298.499 252.43H312.919C312.868 253.388 312.454 254.291 311.761 254.954C311.068 255.617 310.148 255.991 309.189 256Z" fill="#263238" stroke="white" stroke-linecap="round" stroke-linejoin="round"/>
<path d="M307.219 259.51H303.569C303.107 259.513 302.648 259.422 302.223 259.242C301.797 259.061 301.412 258.796 301.093 258.462C300.773 258.127 300.526 257.731 300.365 257.297C300.205 256.864 300.135 256.402 300.159 255.94H310.939C310.888 256.896 310.476 257.797 309.785 258.46C309.094 259.123 308.177 259.499 307.219 259.51Z" fill="#263238" stroke="white" stroke-linecap="round" stroke-linejoin="round"/>
<path d="M321.93 230.13H328.04" stroke="#263238" stroke-linecap="round" stroke-linejoin="round"/>
<path d="M284.799 230.13H290.989" stroke="#263238" stroke-linecap="round" stroke-linejoin="round"/>
<path d="M307.109 214.63L307.389 208.51" stroke="#263238" stroke-linecap="round" stroke-linejoin="round"/>
<path d="M317.99 219.06L322.39 214.84" stroke="#263238" stroke-linecap="round" stroke-linejoin="round"/>
<path d="M290.449 245.42L294.919 241.14" stroke="#263238" stroke-linecap="round" stroke-linejoin="round"/>
<path d="M295.73 218.94L291.82 214.84" stroke="#263238" stroke-linecap="round" stroke-linejoin="round"/>
<path d="M321.019 245.42L317.129 241.34" stroke="#263238" stroke-linecap="round" stroke-linejoin="round"/>
<path d="M334.329 287H225.999C225.507 287.001 225.019 286.901 224.566 286.708C224.113 286.514 223.704 286.231 223.364 285.875C223.023 285.518 222.759 285.097 222.586 284.635C222.414 284.174 222.336 283.682 222.359 283.19L222.809 272.68H339.209L338.769 282.68C338.726 283.833 338.24 284.924 337.414 285.729C336.587 286.533 335.483 286.988 334.329 287Z" fill="white" stroke="#263238" stroke-linejoin="round"/>
<path d="M368.12 311.95H312.41V475.46H368.12V311.95Z" fill="#263238" stroke="#263238" stroke-linejoin="round"/>
<path d="M371.751 311.95H316.041V475.46H371.751V311.95Z" fill="#7D7D7D" stroke="#263238" stroke-linejoin="round"/>
<path d="M371.751 311.95H316.041V320.53H371.751V311.95Z" fill="#263238" stroke="#263238" stroke-linejoin="round"/>
<path d="M207.642 311.95H151.932V475.46H207.642V311.95Z" fill="#263238" stroke="#263238" stroke-linejoin="round"/>
<path d="M211.271 311.95H155.561V475.46H211.271V311.95Z" fill="#7D7D7D" stroke="#263238" stroke-linejoin="round"/>
<path d="M385.931 309.01H144.051V314.55H385.931V309.01Z" fill="#263238" stroke="#263238" stroke-linejoin="round"/>
<path d="M385.931 309.01H313.141V314.55H385.931V309.01Z" fill="white" stroke="#263238" stroke-linejoin="round"/>
<path d="M296 309L295.89 308.71C295.03 306.517 293.529 304.634 291.583 303.307C289.636 301.98 287.336 301.27 284.98 301.27H280.35C278.34 301.275 276.365 301.797 274.614 302.784C272.863 303.772 271.395 305.192 270.35 306.91L269 309H296Z" fill="white" stroke="#263238" stroke-linejoin="round"/>
<path d="M198.001 185.66C198.001 185.66 198.001 186.41 198.001 187.51C197.931 190.23 197.811 195.13 197.811 196.29C197.811 197.9 195.271 200.21 195.271 201.83C195.271 203.45 196.661 208.53 197.121 210.14C197.581 211.75 192.961 213.14 192.961 213.14C192.961 213.14 190.881 220.77 187.881 222.61C184.881 224.45 178.881 222.61 177.721 222.38C176.561 222.15 172.871 221 172.871 221L172.641 232.77L153.471 224.92L154.931 212.02L155.091 210.6C155.091 210.6 155.781 199.75 154.861 194.44C153.241 185.15 156.941 173.19 171.251 170.19C175.736 169.193 180.408 169.44 184.763 170.904C189.118 172.369 192.99 174.995 195.961 178.5C197.561 180.58 198.001 185.66 198.001 185.66Z" fill="white" stroke="#263238" stroke-linejoin="round"/>
<path d="M174.93 197.44L200.33 199.98" stroke="#263238" stroke-linejoin="round"/>
<path d="M196.641 198.83L201.491 199.29C201.491 199.29 200.791 205.75 195.941 205.75" stroke="#263238" stroke-linejoin="round"/>
<path d="M190.171 214.53C190.171 214.53 188.091 214.76 186.711 211.3" stroke="#263238" stroke-linejoin="round"/>
<path d="M194.101 199.98L192.711 202.98" stroke="#263238" stroke-linejoin="round"/>
<path d="M192.711 196.75C192.711 196.75 194.331 194.21 196.871 197.44" stroke="#263238" stroke-linejoin="round"/>
<path d="M198 185.66C198 185.66 198 186.41 198 187.51L197.66 187.19C197.66 187.19 191.34 181.45 187.03 180.59C182.72 179.73 183.87 186.04 184.74 187.19C185.61 188.34 191.34 190.63 188.46 192.65C185.58 194.67 183.01 196.38 183.01 196.38L181.19 201.24C181.026 201.68 180.735 202.061 180.355 202.336C179.974 202.61 179.52 202.765 179.05 202.781C178.581 202.797 178.118 202.674 177.719 202.426C177.32 202.178 177.004 201.818 176.81 201.39C176.04 199.69 174.47 196.29 173.81 195.22C172.95 193.79 167.27 195.73 167.81 201.22C167.844 202.24 168.137 203.234 168.662 204.109C169.187 204.984 169.926 205.71 170.81 206.22C170.81 206.22 173.57 208.12 167.26 212.14C160.95 216.16 158.65 216.73 155.49 212.72C155.32 212.51 155.15 212.27 154.96 212L155.12 210.58C155.12 210.58 155.81 199.73 154.89 194.42C153.27 185.13 156.97 173.17 171.28 170.17C175.765 169.173 180.437 169.42 184.792 170.884C189.147 172.349 193.019 174.975 195.99 178.48C197.56 180.58 198 185.66 198 185.66Z" fill="#263238" stroke="#263238" stroke-linejoin="round"/>
<path d="M251.941 453.67C251.941 453.67 261.491 457.05 267.031 456.75C272.571 456.45 276.881 453.97 278.121 456.13C279.361 458.29 276.881 461.67 276.271 462.9C275.661 464.13 263.641 467.22 259.641 469.06C255.641 470.9 245.171 474.3 240.861 474.91C236.551 475.52 234.701 464.44 234.701 464.44L251.941 453.67Z" fill="white" stroke="#263238" stroke-linejoin="round"/>
<path d="M254.711 467.52C248.932 469.339 243.064 470.864 237.131 472.09C238.071 473.84 239.301 475.14 240.861 474.91C245.171 474.3 255.641 470.91 259.641 469.06C263.641 467.21 275.641 464.14 276.271 462.9C276.901 461.66 279.351 458.29 278.121 456.13C273.501 465.06 264.261 464.44 254.711 467.52Z" fill="white" stroke="#263238" stroke-linejoin="round"/>
<path d="M211.91 369.29L234.7 464.44C237.989 464.124 241.208 463.294 244.24 461.98C249.17 459.82 250.71 458.59 251.94 457.05C253.17 455.51 251.63 450.28 251.63 449.36C251.63 448.44 248.86 447.2 248.86 447.2L240.24 365.29L211.91 369.29Z" fill="#263238" stroke="#263238" stroke-linejoin="round"/>
<path d="M231.24 456.25C231.24 456.25 234.94 462.1 238.32 463.95C241.7 465.8 244.79 467.03 246.64 467.03C248.49 467.03 250.03 470.73 250.33 471.96C250.535 472.974 250.639 474.005 250.64 475.04H222.31C222.31 475.04 205.07 472.88 203.53 468.88C201.99 464.88 213.69 449.79 213.69 449.79L231.24 456.25Z" fill="white" stroke="#263238" stroke-linejoin="round"/>
<path d="M250.45 472.56C243.82 472.49 228.96 472.18 221.7 470.73C215.659 469.417 209.688 467.798 203.81 465.88C203.401 466.825 203.302 467.876 203.53 468.88C205.07 472.88 222.31 475.04 222.31 475.04H250.64C250.634 474.21 250.571 473.381 250.45 472.56Z" fill="white" stroke="#263238" stroke-linejoin="round"/>
<path d="M188.25 326.85L196.87 334.54C196.87 334.54 234.13 337.32 247.06 337.93C259.99 338.54 268.61 342.24 268.31 348.4C268.01 354.56 232.06 451.22 232.06 451.22L232.01 456.86C232.01 456.86 230.47 458.4 223.7 456.86C219.755 456.001 215.998 454.436 212.61 452.24C212.61 452.24 211.38 446.39 214.46 443.93C217.54 441.47 220.89 426.31 220.89 426.31L233.51 365.31H139.59C136.179 354.24 135.547 342.501 137.75 331.13C137.75 331.13 170.39 337.32 188.25 326.85Z" fill="#263238" stroke="#263238" stroke-linejoin="round"/>
<path d="M176.301 234.49C171.566 231.018 166.634 227.823 161.531 224.92C153.421 220.35 151.531 222.64 147.391 225.13C143.251 227.62 124.921 239.49 123.471 243.44C122.021 247.39 123.471 252.38 123.471 252.38C123.471 252.38 130.541 296.07 132.411 313.54C134.281 331.01 139.691 339.75 151.131 341C162.571 342.25 180.671 336 185.461 333.3C190.251 330.6 190.661 331.64 190.241 326.44C189.821 321.24 185.241 302.72 184.621 298.56C184.001 294.4 184.421 285.04 184.421 285.04C184.421 285.04 188.781 264.04 185.421 252.59C183.612 246.011 180.512 239.858 176.301 234.49Z" fill="url(#paint36_linear_223_7268)" stroke="#263238" stroke-linejoin="round"/>
<path d="M234.511 292.36L268.001 299.29C268.001 299.29 277.701 293.98 280.241 293.74C282.781 293.5 288.321 297.67 289.481 298.13C290.641 298.59 291.791 300.44 292.251 302.06C292.711 303.68 294.561 303.21 292.941 304.6C291.321 305.99 289.251 303.21 289.251 303.21C289.251 303.21 284.631 303.44 282.091 304.83C279.551 306.22 276.311 308.29 272.851 308.76C270.213 308.955 267.562 308.718 265.001 308.06L231.051 305.52C231.051 305.52 235.671 298.13 234.511 292.36Z" fill="white" stroke="#263238" stroke-linejoin="round"/>
<path d="M283.93 300.67C283.93 300.67 286.71 299.75 288.55 300.44C290.39 301.13 292.25 302.06 292.25 302.06" stroke="#263238" stroke-linejoin="round"/>
<path d="M175.541 280.67L165.811 278.4" stroke="#263238" stroke-linejoin="round"/>
<path d="M173.08 233.93C173.08 233.93 179.32 235.32 183.24 239.24C187.16 243.16 213.96 282.43 214.88 283.12C215.8 283.81 229.88 291.2 229.88 291.2C229.88 291.2 231.04 297.9 228.96 300.2C226.88 302.5 221.8 305.51 221.8 305.51C221.8 305.51 209.33 304.13 205.4 303.2C201.47 302.27 165.91 273.41 165.91 273.41" fill="url(#paint37_linear_223_7268)"/>
<path d="M173.08 233.93C173.08 233.93 179.32 235.32 183.24 239.24C187.16 243.16 213.96 282.43 214.88 283.12C215.8 283.81 229.88 291.2 229.88 291.2C229.88 291.2 231.04 297.9 228.96 300.2C226.88 302.5 221.8 305.51 221.8 305.51C221.8 305.51 209.33 304.13 205.4 303.2C201.47 302.27 165.91 273.41 165.91 273.41" stroke="#263238" stroke-linejoin="round"/>
<path d="M208.131 286C209.521 286.06 210.941 286.09 212.401 286.09" stroke="#263238" stroke-linejoin="round"/>
<path d="M182.131 281.48C189.414 283.787 196.942 285.233 204.561 285.79" stroke="#263238" stroke-linejoin="round"/>
<path d="M224.12 287.74C224.12 287.74 226.43 293.98 224.35 298.36C222.967 301.136 220.999 303.579 218.58 305.52C218.58 305.52 229.2 307.37 231.28 307.37C233.36 307.37 237.05 298.37 236.82 293.74C236.59 289.11 224.12 287.74 224.12 287.74Z" fill="white" stroke="#263238" stroke-linejoin="round"/>
<path d="M233.51 365.34C240.164 363.358 246.421 360.231 252 356.1" stroke="#878787" stroke-linejoin="round"/>
<path d="M239.361 363.8C239.361 363.8 248.291 362.57 253.221 359.18" stroke="#878787" stroke-linejoin="round"/>
<path d="M192.12 366.17C192.12 366.17 166.59 324.57 159.91 266.54C158.33 252.82 147.32 242.47 134.21 242.47C118.74 242.47 106.72 256.7 108.49 272.92C111.26 298.26 117.39 335.22 130.85 367.18L192.12 366.17Z" fill="white" stroke="#263238" stroke-linejoin="round"/>
<path d="M188.581 366.17C188.581 366.17 163.051 324.57 156.371 266.54C154.791 252.82 143.781 242.47 130.671 242.47C115.201 242.47 103.181 256.7 104.951 272.92C107.721 298.26 113.851 335.22 127.311 367.18L188.581 366.17Z" fill="#263238" stroke="#263238" stroke-linejoin="round"/>
<path d="M189.59 374.04H176.85V443.8H189.59V374.04Z" fill="#263238" stroke="#263238" stroke-linejoin="round"/>
<path d="M193.54 431.37H172V446.84H193.54V431.37Z" fill="#263238" stroke="#263238" stroke-linejoin="round"/>
<path d="M172.301 439.26L131.961 464.13V468.68H135.901V465.64L172.001 446.84L172.301 439.26Z" fill="white" stroke="#263238" stroke-linejoin="round"/>
<path d="M142 469.59C142 468.51 141.68 467.454 141.08 466.556C140.48 465.659 139.627 464.959 138.63 464.545C137.632 464.132 136.534 464.024 135.475 464.235C134.416 464.445 133.443 464.965 132.679 465.729C131.916 466.493 131.396 467.466 131.185 468.525C130.974 469.584 131.082 470.682 131.496 471.679C131.909 472.677 132.609 473.53 133.507 474.13C134.405 474.73 135.46 475.05 136.54 475.05C137.257 475.05 137.967 474.909 138.63 474.634C139.292 474.36 139.894 473.958 140.401 473.451C140.908 472.944 141.31 472.342 141.584 471.679C141.859 471.017 142 470.307 142 469.59Z" fill="#263238" stroke="#263238" stroke-linejoin="round"/>
<path d="M193.531 439.26L233.871 464.13V468.68H229.931V465.64L193.831 446.84L193.531 439.26Z" fill="white" stroke="#263238" stroke-linejoin="round"/>
<path d="M223.861 469.59C223.861 468.51 224.182 467.454 224.782 466.556C225.381 465.659 226.234 464.959 227.232 464.545C228.23 464.132 229.327 464.024 230.387 464.235C231.446 464.445 232.419 464.965 233.182 465.729C233.946 466.493 234.466 467.466 234.676 468.525C234.887 469.584 234.779 470.682 234.366 471.679C233.952 472.677 233.253 473.53 232.355 474.13C231.457 474.73 230.401 475.05 229.321 475.05C227.873 475.05 226.484 474.475 225.461 473.451C224.437 472.427 223.861 471.038 223.861 469.59Z" fill="#263238" stroke="#263238" stroke-linejoin="round"/>
<path d="M177.76 469.59C177.76 468.51 178.08 467.454 178.68 466.556C179.28 465.659 180.133 464.959 181.13 464.545C182.128 464.132 183.226 464.024 184.285 464.235C185.344 464.445 186.317 464.965 187.081 465.729C187.844 466.493 188.364 467.466 188.575 468.525C188.786 469.584 188.677 470.682 188.264 471.679C187.851 472.677 187.151 473.53 186.253 474.13C185.355 474.73 184.3 475.05 183.22 475.05C182.502 475.051 181.792 474.911 181.129 474.637C180.466 474.363 179.863 473.961 179.356 473.454C178.849 472.946 178.447 472.344 178.173 471.681C177.899 471.018 177.758 470.307 177.76 469.59Z" fill="#263238" stroke="#263238" stroke-linejoin="round"/>
<path d="M184.74 438.95H181.4V464.13H184.74V438.95Z" fill="white" stroke="#263238" stroke-linejoin="round"/>
<path d="M214.653 329.485L206.037 365.817L212.333 367.31L220.948 330.978L214.653 329.485Z" fill="white" stroke="#263238" stroke-linejoin="round"/>
<path d="M233.511 323.46H196.561C194.01 323.46 191.941 325.528 191.941 328.08C191.941 330.632 194.01 332.7 196.561 332.7H233.511C236.063 332.7 238.131 330.632 238.131 328.08C238.131 325.528 236.063 323.46 233.511 323.46Z" fill="#263238" stroke="#263238" stroke-linejoin="round"/>
<path d="M233.2 376.73H130.05C128.58 376.73 127.171 376.146 126.132 375.107C125.093 374.068 124.51 372.659 124.51 371.19C124.51 369.719 125.093 368.309 126.132 367.269C127.17 366.228 128.58 365.642 130.05 365.64H233.2C234.671 365.642 236.081 366.228 237.121 367.268C238.162 368.308 238.747 369.718 238.75 371.19C238.747 372.66 238.161 374.069 237.121 375.108C236.08 376.146 234.67 376.73 233.2 376.73Z" fill="#263238" stroke="#263238" stroke-linejoin="round"/>
<path d="M233.2 376.73H188.55C187.08 376.73 185.671 376.146 184.632 375.107C183.593 374.068 183.01 372.659 183.01 371.19C183.01 369.719 183.593 368.309 184.632 367.269C185.67 366.228 187.08 365.642 188.55 365.64H233.2C234.671 365.642 236.081 366.228 237.121 367.268C238.162 368.308 238.747 369.718 238.75 371.19C238.747 372.66 238.161 374.069 237.121 375.108C236.08 376.146 234.67 376.73 233.2 376.73Z" fill="white" stroke="#263238" stroke-linejoin="round"/>
<path d="M426.25 36.48H327.59V152.95H426.25V36.48Z" stroke="#6E51E0" stroke-linejoin="round"/>
<path d="M407.65 85.8299C407.651 81.0004 406.489 76.2416 404.262 71.9562C402.036 67.6707 398.809 63.9846 394.857 61.2098C390.904 58.435 386.341 56.6531 381.554 56.0148C376.767 55.3766 371.896 55.9008 367.354 57.5431C362.813 59.1854 358.733 61.8974 355.462 65.4498C352.19 69.0022 349.822 73.2904 348.558 77.9515C347.294 82.6127 347.171 87.5098 348.2 92.2284C349.229 96.947 351.38 101.348 354.47 105.06C358.901 110.376 361.326 117.079 361.32 124V128.12H393.83V124C393.825 117.093 396.245 110.404 400.67 105.1C405.186 99.6952 407.657 92.8735 407.65 85.8299Z" fill="white" stroke="#263238" stroke-width="3" stroke-linecap="round" stroke-linejoin="round"/>
<path d="M393.83 128.11H361.32V136.15H393.83V128.11Z" fill="white" stroke="#263238" stroke-width="3" stroke-linecap="round" stroke-linejoin="round"/>
<path d="M361.32 136.17H393.83V139.49C393.83 140.744 393.331 141.947 392.444 142.835C391.557 143.722 390.354 144.22 389.1 144.22H366C364.745 144.22 363.542 143.722 362.655 142.835C361.768 141.947 361.27 140.744 361.27 139.49V136.17H361.32Z" fill="white" stroke="#263238" stroke-width="3" stroke-linecap="round" stroke-linejoin="round"/>
<path d="M365.42 144.2H389.72V145.83C389.72 147.53 389.045 149.16 387.842 150.363C386.64 151.565 385.01 152.24 383.31 152.24H371.83C370.13 152.24 368.499 151.565 367.297 150.363C366.095 149.16 365.42 147.53 365.42 145.83V144.2Z" fill="white" stroke="#263238" stroke-width="3" stroke-linecap="round" stroke-linejoin="round"/>
<path d="M411.91 85.98H425.69" stroke="#263238" stroke-width="3" stroke-linecap="round" stroke-linejoin="round"/>
<path d="M328.17 85.98H342.12" stroke="#263238" stroke-width="3" stroke-linecap="round" stroke-linejoin="round"/>
<path d="M376.93 51.04V37.23" stroke="#263238" stroke-width="3" stroke-linecap="round" stroke-linejoin="round"/>
<path d="M401.9 61.0098L411.41 51.5098" stroke="#263238" stroke-width="3" stroke-linecap="round" stroke-linejoin="round"/>
<path d="M342.449 120.46L352.099 110.81" stroke="#263238" stroke-width="3" stroke-linecap="round" stroke-linejoin="round"/>
<path d="M351.689 60.7398L342.449 51.5098" stroke="#263238" stroke-width="3" stroke-linecap="round" stroke-linejoin="round"/>
<path d="M411.409 120.46L402.209 111.27" stroke="#263238" stroke-width="3" stroke-linecap="round" stroke-linejoin="round"/>
<path d="M302.66 36.48H204V152.95H302.66V36.48Z" stroke="#6E51E0" stroke-linejoin="round"/>
<path d="M283.48 85.83C283.483 80.9993 282.323 76.2389 280.097 71.9518C277.87 67.6646 274.644 63.9769 270.691 61.2008C266.738 58.4246 262.174 56.6418 257.385 56.0031C252.597 55.3644 247.725 55.8888 243.183 57.5317C238.64 59.1747 234.56 61.8879 231.288 65.4417C228.016 68.9955 225.648 73.2853 224.386 77.948C223.123 82.6107 223.002 87.509 224.033 92.2283C225.064 96.9476 227.217 101.349 230.31 105.06C234.741 110.376 237.166 117.079 237.16 124V128.12H269.66V124C269.655 117.093 272.075 110.404 276.5 105.1C281.023 99.6987 283.494 92.8747 283.48 85.83Z" stroke="#263238" stroke-width="3" stroke-linecap="round" stroke-linejoin="round"/>
<path d="M269.67 128.11H237.16V136.15H269.67V128.11Z" stroke="#263238" stroke-width="3" stroke-linecap="round" stroke-linejoin="round"/>
<path d="M237.16 136.17H269.67V139.49C269.67 140.111 269.548 140.726 269.31 141.3C269.073 141.874 268.724 142.395 268.285 142.835C267.846 143.274 267.324 143.622 266.75 143.86C266.177 144.098 265.562 144.22 264.94 144.22H241.88C240.626 144.22 239.423 143.722 238.536 142.835C237.649 141.947 237.15 140.744 237.15 139.49V136.17H237.16Z" stroke="#263238" stroke-width="3" stroke-linecap="round" stroke-linejoin="round"/>
<path d="M241.26 144.2H265.56V145.83C265.56 147.53 264.884 149.16 263.682 150.363C262.48 151.565 260.85 152.24 259.15 152.24H247.67C245.97 152.24 244.339 151.565 243.137 150.363C241.935 149.16 241.26 147.53 241.26 145.83V144.2Z" stroke="#263238" stroke-width="3" stroke-linecap="round" stroke-linejoin="round"/>
<path d="M218.5 85.98H288.29" stroke="#6E51E0" stroke-linejoin="round"/>
<path d="M253.311 134.74V51.04" stroke="#6E51E0" stroke-linejoin="round"/>
<path d="M228.48 110.81L278.28 61.0098" stroke="#6E51E0" stroke-linejoin="round"/>
<path d="M278.591 111.27L228.061 60.7397" stroke="#6E51E0" stroke-linejoin="round"/>
<path d="M253.399 135.13C280.572 135.13 302.599 113.102 302.599 85.93C302.599 58.7576 280.572 36.73 253.399 36.73C226.227 36.73 204.199 58.7576 204.199 85.93C204.199 113.102 226.227 135.13 253.399 135.13Z" stroke="#6E51E0" stroke-linejoin="round"/>
<path d="M253.4 120.83C272.675 120.83 288.3 105.205 288.3 85.93C288.3 66.6553 272.675 51.03 253.4 51.03C234.125 51.03 218.5 66.6553 218.5 85.93C218.5 105.205 234.125 120.83 253.4 120.83Z" stroke="#6E51E0" stroke-linejoin="round"/>
<path d="M287.75 85.98H301.52" stroke="#263238" stroke-width="3" stroke-linecap="round" stroke-linejoin="round"/>
<path d="M204.01 85.98H217.96" stroke="#263238" stroke-width="3" stroke-linecap="round" stroke-linejoin="round"/>
<path d="M252.76 51.04V37.23" stroke="#263238" stroke-width="3" stroke-linecap="round" stroke-linejoin="round"/>
<path d="M277.73 61.0098L287.24 51.5098" stroke="#263238" stroke-width="3" stroke-linecap="round" stroke-linejoin="round"/>
<path d="M218.289 120.46L227.939 110.81" stroke="#263238" stroke-width="3" stroke-linecap="round" stroke-linejoin="round"/>
<path d="M227.519 60.7398L218.289 51.5098" stroke="#263238" stroke-width="3" stroke-linecap="round" stroke-linejoin="round"/>
<path d="M287.241 120.46L278.051 111.27" stroke="#263238" stroke-width="3" stroke-linecap="round" stroke-linejoin="round"/>
<path d="M178.939 36.48H80.2793V152.95H178.939V36.48Z" stroke="#6E51E0" stroke-linejoin="round"/>
<path d="M129.99 115.9C146.597 115.9 160.06 102.437 160.06 85.8298C160.06 69.2226 146.597 55.7598 129.99 55.7598C113.383 55.7598 99.9199 69.2226 99.9199 85.8298C99.9199 102.437 113.383 115.9 129.99 115.9Z" stroke="#263238" stroke-linejoin="round"/>
<path d="M146.25 90.7202H113.74V128.1H146.25V90.7202Z" stroke="#263238" stroke-linejoin="round"/>
<path d="M146.25 128.11H113.74V136.15H146.25V128.11Z" stroke="#263238" stroke-linejoin="round"/>
<path d="M146.25 136.17H113.74V144.21H146.25V136.17Z" stroke="#263238" stroke-linejoin="round"/>
<path d="M142.14 144.2H117.84V152.24H142.14V144.2Z" stroke="#263238" stroke-linejoin="round"/>
<path d="M81.1699 86.04H178.69" stroke="#6E51E0" stroke-linejoin="round"/>
<path d="M129.809 135.23V37.23" stroke="#6E51E0" stroke-linejoin="round"/>
<path d="M95.1094 120.72L164.699 51.1699" stroke="#6E51E0" stroke-linejoin="round"/>
<path d="M164.479 120.56L94.9785 51.3599" stroke="#6E51E0" stroke-linejoin="round"/>
<path d="M129.989 135.13C157.161 135.13 179.189 113.102 179.189 85.93C179.189 58.7576 157.161 36.73 129.989 36.73C102.817 36.73 80.7891 58.7576 80.7891 85.93C80.7891 113.102 102.817 135.13 129.989 135.13Z" stroke="#6E51E0" stroke-linejoin="round"/>
<path d="M129.99 120.83C149.265 120.83 164.89 105.205 164.89 85.9298C164.89 66.655 149.265 51.0298 129.99 51.0298C110.715 51.0298 95.0898 66.655 95.0898 85.9298C95.0898 105.205 110.715 120.83 129.99 120.83Z" stroke="#6E51E0" stroke-linejoin="round"/>
<defs>
<linearGradient id="paint0_linear_223_7268" x1="251.257" y1="51.1963" x2="251.257" y2="527.521" gradientUnits="userSpaceOnUse">
<stop stop-color="#6E51E0"/>
<stop offset="1"/>
</linearGradient>
<linearGradient id="paint1_linear_223_7268" x1="47.5207" y1="396.081" x2="47.5207" y2="406.121" gradientUnits="userSpaceOnUse">
<stop stop-color="#6E51E0"/>
<stop offset="1"/>
</linearGradient>
<linearGradient id="paint2_linear_223_7268" x1="49.0534" y1="410.791" x2="49.0534" y2="420.828" gradientUnits="userSpaceOnUse">
<stop stop-color="#6E51E0"/>
<stop offset="1"/>
</linearGradient>
<linearGradient id="paint3_linear_223_7268" x1="43.7741" y1="360.191" x2="43.7741" y2="370.232" gradientUnits="userSpaceOnUse">
<stop stop-color="#6E51E0"/>
<stop offset="1"/>
</linearGradient>
<linearGradient id="paint4_linear_223_7268" x1="45.3131" y1="374.891" x2="45.3131" y2="384.939" gradientUnits="userSpaceOnUse">
<stop stop-color="#6E51E0"/>
<stop offset="1"/>
</linearGradient>
<linearGradient id="paint5_linear_223_7268" x1="41.2804" y1="336.301" x2="41.2804" y2="346.338" gradientUnits="userSpaceOnUse">
<stop stop-color="#6E51E0"/>
<stop offset="1"/>
</linearGradient>
<linearGradient id="paint6_linear_223_7268" x1="38.7741" y1="312.301" x2="38.7741" y2="322.341" gradientUnits="userSpaceOnUse">
<stop stop-color="#6E51E0"/>
<stop offset="1"/>
</linearGradient>
<linearGradient id="paint7_linear_223_7268" x1="66.2294" y1="384.432" x2="66.2294" y2="396.535" gradientUnits="userSpaceOnUse">
<stop stop-color="#6E51E0"/>
<stop offset="1"/>
</linearGradient>
<linearGradient id="paint8_linear_223_7268" x1="61.4035" y1="346.485" x2="61.4035" y2="357.719" gradientUnits="userSpaceOnUse">
<stop stop-color="#6E51E0"/>
<stop offset="1"/>
</linearGradient>
<linearGradient id="paint9_linear_223_7268" x1="60.3991" y1="328.717" x2="60.3991" y2="340.806" gradientUnits="userSpaceOnUse">
<stop stop-color="#6E51E0"/>
<stop offset="1"/>
</linearGradient>
<linearGradient id="paint10_linear_223_7268" x1="57.813" y1="303.782" x2="57.813" y2="315.875" gradientUnits="userSpaceOnUse">
<stop stop-color="#6E51E0"/>
<stop offset="1"/>
</linearGradient>
<linearGradient id="paint11_linear_223_7268" x1="52.5872" y1="293.117" x2="52.5872" y2="305.241" gradientUnits="userSpaceOnUse">
<stop stop-color="#6E51E0"/>
<stop offset="1"/>
</linearGradient>
<linearGradient id="paint12_linear_223_7268" x1="42.7524" y1="291.524" x2="42.7524" y2="305.73" gradientUnits="userSpaceOnUse">
<stop stop-color="#6E51E0"/>
<stop offset="1"/>
</linearGradient>
<linearGradient id="paint13_linear_223_7268" x1="63.2294" y1="411.042" x2="63.2294" y2="423.126" gradientUnits="userSpaceOnUse">
<stop stop-color="#6E51E0"/>
<stop offset="1"/>
</linearGradient>
<linearGradient id="paint14_linear_223_7268" x1="66.9578" y1="375.121" x2="66.9578" y2="387.24" gradientUnits="userSpaceOnUse">
<stop stop-color="#6E51E0"/>
<stop offset="1"/>
</linearGradient>
<linearGradient id="paint15_linear_223_7268" x1="65.4306" y1="389.856" x2="65.4306" y2="401.945" gradientUnits="userSpaceOnUse">
<stop stop-color="#6E51E0"/>
<stop offset="1"/>
</linearGradient>
<linearGradient id="paint16_linear_223_7268" x1="69.4359" y1="351.256" x2="69.4359" y2="363.345" gradientUnits="userSpaceOnUse">
<stop stop-color="#6E51E0"/>
<stop offset="1"/>
</linearGradient>
<linearGradient id="paint17_linear_223_7268" x1="71.9262" y1="327.256" x2="71.9262" y2="339.345" gradientUnits="userSpaceOnUse">
<stop stop-color="#6E51E0"/>
<stop offset="1"/>
</linearGradient>
<linearGradient id="paint18_linear_223_7268" x1="83.7546" y1="405.247" x2="83.7546" y2="415.287" gradientUnits="userSpaceOnUse">
<stop stop-color="#6E51E0"/>
<stop offset="1"/>
</linearGradient>
<linearGradient id="paint19_linear_223_7268" x1="87.7735" y1="366.541" x2="87.7735" y2="376.581" gradientUnits="userSpaceOnUse">
<stop stop-color="#6E51E0"/>
<stop offset="1"/>
</linearGradient>
<linearGradient id="paint20_linear_223_7268" x1="89.554" y1="349.531" x2="89.554" y2="359.578" gradientUnits="userSpaceOnUse">
<stop stop-color="#6E51E0"/>
<stop offset="1"/>
</linearGradient>
<linearGradient id="paint21_linear_223_7268" x1="92.1256" y1="324.595" x2="92.1256" y2="334.638" gradientUnits="userSpaceOnUse">
<stop stop-color="#6E51E0"/>
<stop offset="1"/>
</linearGradient>
<linearGradient id="paint22_linear_223_7268" x1="89.2058" y1="313.111" x2="89.2058" y2="323.159" gradientUnits="userSpaceOnUse">
<stop stop-color="#6E51E0"/>
<stop offset="1"/>
</linearGradient>
<linearGradient id="paint23_linear_223_7268" x1="79.8213" y1="308.011" x2="79.8213" y2="323.784" gradientUnits="userSpaceOnUse">
<stop stop-color="#6E51E0"/>
<stop offset="1"/>
</linearGradient>
<linearGradient id="paint24_linear_223_7268" x1="57.4306" y1="394.086" x2="57.4306" y2="405.133" gradientUnits="userSpaceOnUse">
<stop stop-color="#6E51E0"/>
<stop offset="1"/>
</linearGradient>
<linearGradient id="paint25_linear_223_7268" x1="57.4307" y1="363.35" x2="57.4307" y2="374.401" gradientUnits="userSpaceOnUse">
<stop stop-color="#6E51E0"/>
<stop offset="1"/>
</linearGradient>
<linearGradient id="paint26_linear_223_7268" x1="57.4306" y1="327.266" x2="57.4306" y2="338.313" gradientUnits="userSpaceOnUse">
<stop stop-color="#6E51E0"/>
<stop offset="1"/>
</linearGradient>
<linearGradient id="paint27_linear_223_7268" x1="57.4306" y1="303.246" x2="57.4306" y2="314.293" gradientUnits="userSpaceOnUse">
<stop stop-color="#6E51E0"/>
<stop offset="1"/>
</linearGradient>
<linearGradient id="paint28_linear_223_7268" x1="57.4306" y1="279.116" x2="57.4306" y2="290.163" gradientUnits="userSpaceOnUse">
<stop stop-color="#6E51E0"/>
<stop offset="1"/>
</linearGradient>
<linearGradient id="paint29_linear_223_7268" x1="77.1673" y1="403.47" x2="77.1673" y2="414.524" gradientUnits="userSpaceOnUse">
<stop stop-color="#6E51E0"/>
<stop offset="1"/>
</linearGradient>
<linearGradient id="paint30_linear_223_7268" x1="77.1673" y1="354.59" x2="77.1673" y2="365.641" gradientUnits="userSpaceOnUse">
<stop stop-color="#6E51E0"/>
<stop offset="1"/>
</linearGradient>
<linearGradient id="paint31_linear_223_7268" x1="77.1673" y1="330.461" x2="77.1673" y2="341.513" gradientUnits="userSpaceOnUse">
<stop stop-color="#6E51E0"/>
<stop offset="1"/>
</linearGradient>
<linearGradient id="paint32_linear_223_7268" x1="77.1673" y1="298.592" x2="77.1673" y2="309.637" gradientUnits="userSpaceOnUse">
<stop stop-color="#6E51E0"/>
<stop offset="1"/>
</linearGradient>
<linearGradient id="paint33_linear_223_7268" x1="77.1673" y1="273.501" x2="77.1673" y2="284.553" gradientUnits="userSpaceOnUse">
<stop stop-color="#6E51E0"/>
<stop offset="1"/>
</linearGradient>
<linearGradient id="paint34_linear_223_7268" x1="73.0863" y1="262.381" x2="73.0863" y2="273.433" gradientUnits="userSpaceOnUse">
<stop stop-color="#6E51E0"/>
<stop offset="1"/>
</linearGradient>
<linearGradient id="paint35_linear_223_7268" x1="63.3893" y1="259" x2="63.3893" y2="274.019" gradientUnits="userSpaceOnUse">
<stop stop-color="#6E51E0"/>
<stop offset="1"/>
</linearGradient>
<linearGradient id="paint36_linear_223_7268" x1="156.596" y1="222.298" x2="156.596" y2="358.367" gradientUnits="userSpaceOnUse">
<stop stop-color="#6E51E0"/>
<stop offset="1"/>
</linearGradient>
<linearGradient id="paint37_linear_223_7268" x1="198.056" y1="233.93" x2="198.056" y2="315.87" gradientUnits="userSpaceOnUse">
<stop stop-color="#6E51E0"/>
<stop offset="1"/>
</linearGradient>
</defs>
</svg>
