<svg width="30" height="30" viewBox="0 0 30 30" fill="none" xmlns="http://www.w3.org/2000/svg">
<path d="M2.99818 10.0901L3.00928 12.8863C3.01113 13.1198 3.1147 13.2949 3.31999 13.4117L14.7524 19.8908C14.8308 19.9357 14.9198 19.9594 15.0104 19.9594C15.1011 19.9594 15.1901 19.9357 15.2684 19.8908L29.6887 11.677C29.7199 11.6591 29.7555 11.6496 29.7916 11.6494C29.8278 11.6491 29.8633 11.6582 29.8945 11.6757C29.9258 11.6932 29.9517 11.7185 29.9696 11.749C29.9876 11.7795 29.9969 11.8141 29.9966 11.8494C30.004 14.8281 29.9994 17.8423 29.9827 20.8922C29.9809 21.4613 29.6369 21.941 28.9507 22.3314C24.573 24.8358 20.1917 27.3329 15.8066 29.8228C15.1741 30.1812 14.4972 29.9432 13.8397 29.5765C7.31482 25.9284 2.95934 23.475 0.773282 22.2164C-0.206007 21.6528 -0.00626533 19.7129 0.0686378 18.7142C0.0710865 18.677 0.083121 18.6411 0.103601 18.6098C0.124081 18.5785 0.152328 18.5528 0.185666 18.5353C0.219005 18.5177 0.256331 18.5089 0.294109 18.5096C0.331887 18.5102 0.368865 18.5204 0.401541 18.5391L14.6942 26.6653C14.7913 26.7203 14.9012 26.7492 15.0132 26.7492C15.1251 26.7492 15.2351 26.7203 15.3322 26.6653L26.6454 20.2163C26.7288 20.1691 26.7982 20.1007 26.8464 20.0181C26.8946 19.9354 26.92 19.8415 26.92 19.7457L26.9311 17.037C26.9311 16.8199 26.8349 16.7661 26.6426 16.8756L15.3933 23.2726C15.1251 23.4258 14.8569 23.4258 14.5887 23.2726L0.348831 15.1874C0.250192 15.1309 0.168306 15.0499 0.11135 14.9524C0.0543938 14.855 0.0243608 14.7445 0.0242508 14.632C0.0316486 13.1016 0.0353478 11.5447 0.0353478 9.96146C0.0325736 8.68644 0.304444 7.91759 1.40025 7.30744C5.55413 4.9927 9.696 2.65517 13.8258 0.294827C15.1491 -0.463072 16.4474 0.398799 17.5821 1.09924C17.7633 1.21233 17.7874 1.35096 17.6542 1.51513C17.5839 1.59903 17.461 1.69115 17.2853 1.79147C13.6918 3.83807 10.101 5.88741 6.51308 7.93948C6.40581 7.99968 6.31981 8.06717 6.25508 8.14195C6.24586 8.15238 6.23912 8.1647 6.23534 8.17802C6.23156 8.19134 6.23084 8.20532 6.23323 8.21895C6.23563 8.23258 6.24107 8.24551 6.24917 8.2568C6.25726 8.2681 6.26781 8.27747 6.28005 8.28423L8.86282 9.74257C8.91433 9.77162 8.97248 9.78692 9.0314 9.78692C9.09032 9.78692 9.14795 9.77162 9.19849 9.74257L20.5782 3.26076C20.7023 3.1899 20.8431 3.15236 20.9867 3.15188C21.1302 3.1514 21.2716 3.18799 21.3966 3.25802C23.7473 4.57499 26.1284 5.93575 28.5401 7.34028C28.8194 7.50444 29.119 7.73792 29.439 8.04072C29.4741 8.0735 29.5009 8.11398 29.5173 8.15893C29.5336 8.20387 29.5391 8.25204 29.5331 8.2996C29.5272 8.34717 29.5101 8.39281 29.4832 8.43289C29.4562 8.47297 29.4202 8.50639 29.3779 8.53048L15.1685 16.6102C15.1115 16.6434 15.0463 16.6607 14.9799 16.6602C14.9135 16.6597 14.8483 16.6415 14.7913 16.6074L12.3 15.1354C12.104 15.0187 12.1049 14.9028 12.3028 14.7879C16.1108 12.6173 19.8976 10.4476 23.6631 8.27876C23.7389 8.23498 23.7815 8.20215 23.7907 8.18026C23.8072 8.14288 23.8055 8.09899 23.7859 8.05738C23.7664 8.01577 23.7304 7.97952 23.6853 7.9559L21.2024 6.62068C21.1337 6.58389 21.0568 6.56506 20.979 6.56602C20.9013 6.56698 20.8253 6.58769 20.7585 6.62616L9.26507 13.1627C9.18819 13.2068 9.10075 13.23 9.01161 13.23C8.92247 13.23 8.83477 13.2068 8.7574 13.1627L3.19515 9.97787C3.17523 9.96621 3.15253 9.95998 3.12936 9.95984C3.1062 9.9597 3.08341 9.96565 3.06335 9.97707C3.04329 9.9885 3.02668 10.005 3.01523 10.0248C3.00377 10.0447 2.99789 10.0672 2.99818 10.0901Z" fill="#004AAD"/>
</svg>
