<svg width="48" height="48" viewBox="0 0 48 48" fill="none" xmlns="http://www.w3.org/2000/svg">
<path d="M0 16.4C0 7.34253 7.34253 0 16.4 0H31.6C40.6575 0 48 7.34253 48 16.4V31.6C48 40.6575 40.6575 48 31.6 48H16.4C7.34253 48 0 40.6575 0 31.6V16.4Z" fill="url(#paint0_linear_280_2278)"/>
<path d="M28 33V31C28 29.9391 27.5786 28.9217 26.8284 28.1716C26.0783 27.4214 25.0609 27 24 27H18C16.9391 27 15.9217 27.4214 15.1716 28.1716C14.4214 28.9217 14 29.9391 14 31V33" stroke="#0058DD" stroke-width="2" stroke-linecap="round" stroke-linejoin="round"/>
<path d="M28 15.1279C28.8578 15.3503 29.6174 15.8512 30.1597 16.552C30.702 17.2528 30.9962 18.1138 30.9962 18.9999C30.9962 19.886 30.702 20.7471 30.1597 21.4479C29.6174 22.1487 28.8578 22.6496 28 22.8719" stroke="#0058DD" stroke-width="2" stroke-linecap="round" stroke-linejoin="round"/>
<path d="M34 32.9999V30.9999C33.9993 30.1136 33.7044 29.2527 33.1614 28.5522C32.6184 27.8517 31.8581 27.3515 31 27.1299" stroke="#0058DD" stroke-width="2" stroke-linecap="round" stroke-linejoin="round"/>
<path d="M21 23C23.2091 23 25 21.2091 25 19C25 16.7909 23.2091 15 21 15C18.7909 15 17 16.7909 17 19C17 21.2091 18.7909 23 21 23Z" stroke="#0058DD" stroke-width="2" stroke-linecap="round" stroke-linejoin="round"/>
<defs>
<linearGradient id="paint0_linear_280_2278" x1="0" y1="0" x2="48" y2="48" gradientUnits="userSpaceOnUse">
<stop stop-color="#0058DD" stop-opacity="0.1"/>
<stop offset="1" stop-color="#009D34" stop-opacity="0.05"/>
</linearGradient>
</defs>
</svg>
