<svg width="48" height="48" viewBox="0 0 48 48" fill="none" xmlns="http://www.w3.org/2000/svg">
<path d="M0 16.4C0 7.34253 7.34253 0 16.4 0H31.6C40.6575 0 48 7.34253 48 16.4V31.6C48 40.6575 40.6575 48 31.6 48H16.4C7.34253 48 0 40.6575 0 31.6V16.4Z" fill="url(#paint0_linear_280_2259)"/>
<path d="M34 24H31.52C31.083 23.9991 30.6577 24.1413 30.3091 24.405C29.9606 24.6686 29.708 25.0392 29.59 25.46L27.24 33.82C27.2249 33.8719 27.1933 33.9175 27.15 33.95C27.1067 33.9825 27.0541 34 27 34C26.9459 34 26.8933 33.9825 26.85 33.95C26.8067 33.9175 26.7751 33.8719 26.76 33.82L21.24 14.18C21.2249 14.1281 21.1933 14.0825 21.15 14.05C21.1067 14.0175 21.0541 14 21 14C20.9459 14 20.8933 14.0175 20.85 14.05C20.8067 14.0825 20.7751 14.1281 20.76 14.18L18.41 22.54C18.2925 22.9592 18.0414 23.3285 17.6949 23.592C17.3483 23.8555 16.9253 23.9988 16.49 24H14" stroke="#0058DD" stroke-width="2" stroke-linecap="round" stroke-linejoin="round"/>
<defs>
<linearGradient id="paint0_linear_280_2259" x1="0" y1="0" x2="48" y2="48" gradientUnits="userSpaceOnUse">
<stop stop-color="#0058DD" stop-opacity="0.1"/>
<stop offset="1" stop-color="#009D34" stop-opacity="0.05"/>
</linearGradient>
</defs>
</svg>
