<svg width="1440" height="192" viewBox="0 0 1440 192" fill="none" xmlns="http://www.w3.org/2000/svg">
<g clip-path="url(#clip0_144_507)">
<g clip-path="url(#clip1_144_507)">
<g clip-path="url(#clip2_144_507)">
<path d="M1424.84 40.6328L1413.51 36.8418M1424.84 40.6328H1391.27M1424.84 40.6328L1436.54 44.5498M1424.84 40.6328H1448.61M1413.51 36.8418L1417.63 36.8428L1421.71 36.8508L1425.71 36.8748L1429.57 36.9198L1433.27 36.9938L1436.77 37.1038L1440.01 37.2588L1443.02 37.4558L1445.61 37.7278L1447.96 38.0428L1448.61 38.1528V40.6328M1413.51 36.8418H1380.49M1391.27 40.6328L1380.49 36.8418M1391.27 40.6328H1357.71M1391.27 40.6328L1394.03 41.5998L1402.42 44.5508M1436.54 44.5498L1402.42 44.5508M1436.54 44.5498L1448.61 48.5898M1436.54 44.5498H1448.61M1448.61 40.6328V44.5498M1380.49 36.8418H1347.46M1347.46 36.8418H1314.44M1347.46 36.8418L1357.71 40.6328M1314.44 36.8418H1281.41M1314.44 36.8418L1324.15 40.6328M1357.71 40.6328H1324.15M1357.71 40.6328L1368.3 44.5508M1281.41 36.8418H1248.39M1281.41 36.8418L1290.58 40.6328M1324.15 40.6328H1290.58M1324.15 40.6328L1334.18 44.5498M1248.39 36.8418H1215.37M1248.39 36.8418L1257.02 40.6328M1290.58 40.6328H1257.02M1290.58 40.6328L1300.06 44.5498M1215.37 36.8418H1182.34M1215.37 36.8418L1223.46 40.6328M1257.02 40.6328H1223.46M1257.02 40.6328L1259.22 41.6008L1260.33 42.0868L1265.94 44.5508M1182.34 36.8418H1149.32M1182.34 36.8418L1189.89 40.6328M1223.46 40.6328H1189.89M1223.46 40.6328L1225.52 41.6008L1231.81 44.5508H1265.94M1149.32 36.8418H1116.29M1149.32 36.8418L1156.33 40.6328M1189.89 40.6328H1156.33M1189.89 40.6328L1197.69 44.5498M1116.29 36.8418H1083.27M1116.29 36.8418L1122.76 40.6328M1156.33 40.6328H1122.76M1156.33 40.6328L1158.12 41.5998L1159.02 42.0858L1163.57 44.5498M1083.27 36.8418H1050.24M1083.27 36.8418L1089.2 40.6328M1122.76 40.6328H1089.2M1122.76 40.6328L1129.45 44.5498M1050.24 36.8418H1017.22M1050.24 36.8418L1055.64 40.6328M1089.2 40.6328H1055.64M1089.2 40.6328L1090.71 41.6008L1091.48 42.0868L1095.33 44.5508M1017.22 36.8418H984.195M1017.22 36.8418L1018.42 37.7788L1020.23 39.1958L1022.07 40.6328M1055.64 40.6328H1022.07M1055.64 40.6328L1056.32 41.1148L1057.01 41.5998L1061.21 44.5498M984.195 36.8418H951.171M984.195 36.8418L985.26 37.7788L988.509 40.6328M1022.07 40.6328H988.509M1022.07 40.6328L1023.31 41.5998L1023.93 42.0858L1027.09 44.5498M951.171 36.8418H918.146M951.171 36.8418L954.946 40.6328M988.509 40.6328H954.946M988.509 40.6328L992.967 44.5498M918.146 36.8418H885.122M918.146 36.8418L919.347 38.2488L920.564 39.6728L920.972 40.1528L921.383 40.6328M954.946 40.6328H921.383M954.946 40.6328L955.427 41.1158L955.909 41.6008L956.394 42.0868L958.847 44.5508M885.122 36.8418H852.097M885.122 36.8418L886.123 38.2488L886.459 38.7218L886.797 39.1958L887.819 40.6328M921.383 40.6328H887.819M921.383 40.6328L922.208 41.5998L922.623 42.0858L923.04 42.5758L924.726 44.5498M852.097 36.8418H819.073M852.097 36.8418L854.255 40.6328M887.819 40.6328H854.255M887.819 40.6328L888.506 41.5998L889.9 43.5578L890.251 44.0528L890.605 44.5498M819.073 36.8418L819.273 37.3088L819.472 37.7788L820.486 40.1528L820.691 40.6328M819.073 36.8418H786.049M854.255 40.6328H820.691M854.255 40.6328L854.53 41.1158L854.805 41.6008L855.082 42.0868L856.483 44.5508M820.691 40.6328H787.128M820.691 40.6328L822.362 44.5508M786.049 36.8418H753.024M786.049 36.8418L787.128 40.6328M753.024 36.8418H720M753.024 36.8418L753.225 38.2488L753.564 40.6328M787.128 40.6328H753.564M787.128 40.6328L787.265 41.1148L787.402 41.5998L787.541 42.0858L788.242 44.5498M720 36.8418H686.976M720 36.8418V40.6328M753.564 40.6328H720M753.564 40.6328L754.121 44.5498M686.976 36.8418H653.951M686.976 36.8418L686.776 38.2488L686.436 40.6328M720 40.6328H686.436M720 40.6328V44.5508M653.951 36.8418H620.927M653.951 36.8418L652.873 40.6328M686.436 40.6328H652.873M686.436 40.6328L685.879 44.5498M620.927 36.8418L620.727 37.3088L620.528 37.7788L619.514 40.1528L619.309 40.6328M620.927 36.8418H587.903M652.873 40.6328H619.309M652.873 40.6328L652.735 41.1148L652.598 41.5998L652.459 42.0858L652.04 43.5578L651.758 44.5498M619.309 40.6328H585.745M619.309 40.6328L617.638 44.5498M587.903 36.8418H554.878M587.903 36.8418L586.019 40.1518L585.745 40.6328M554.878 36.8418H521.854M554.878 36.8418L553.877 38.2488L553.541 38.7218L552.864 39.6728L552.523 40.1528L552.181 40.6328M585.745 40.6328H552.181M585.745 40.6328L585.47 41.1158L585.195 41.6008L584.918 42.0868L583.516 44.5498M521.854 36.8418H488.829M521.854 36.8418L520.653 38.2488L519.436 39.6728L519.028 40.1528L518.617 40.6328M552.181 40.6328H518.617M552.181 40.6328L551.494 41.6008L550.1 43.5588L549.395 44.5508M488.829 36.8418H455.805M488.829 36.8418L485.054 40.6328M518.617 40.6328H485.054M518.617 40.6328L517.792 41.5998L517.377 42.0858L516.96 42.5758L515.274 44.5498M455.805 36.8418H422.78M455.805 36.8418L454.74 37.7788L451.491 40.6328M485.054 40.6328L484.573 41.1148L481.153 44.5498M485.054 40.6328H451.491M422.78 36.8418H389.756M422.78 36.8418L417.927 40.6328M451.491 40.6328H417.927M451.491 40.6328L450.941 41.1158L447.033 44.5498M389.756 36.8418H356.732M389.756 36.8418L384.363 40.6328M417.927 40.6328H384.363M417.927 40.6328L416.688 41.6008L416.065 42.0868L412.912 44.5498M356.732 36.8418H323.707M356.732 36.8418L350.799 40.6328M384.363 40.6328H350.799M384.363 40.6328L383.676 41.1148L382.987 41.5998L378.791 44.5498M323.707 36.8418H290.683M323.707 36.8418L317.236 40.6328M350.799 40.6328H317.236M350.799 40.6328L349.286 41.5998L348.524 42.0858L344.669 44.5498M290.683 36.8418H257.659M290.683 36.8418L283.672 40.6328M317.236 40.6328H283.672M317.236 40.6328L316.411 41.1158L310.548 44.5498M257.659 36.8418H224.635M257.659 36.8418L250.108 40.6328M283.672 40.6328H250.108M283.672 40.6328L281.883 41.6008L280.983 42.0868L276.427 44.5508M224.635 36.8418H191.61M224.635 36.8418L216.544 40.6328M250.108 40.6328H216.544M250.108 40.6328L242.307 44.5498M191.61 36.8418H158.586M191.61 36.8418L182.981 40.6328M216.544 40.6328H182.981M216.544 40.6328L214.481 41.5998L208.186 44.5498M158.586 36.8418H125.562M158.586 36.8418L149.417 40.6328M182.981 40.6328H149.417M182.981 40.6328L180.78 41.6008L179.671 42.0868L174.065 44.5508M125.562 36.8418H92.537M125.562 36.8418L115.853 40.6328M149.417 40.6328H115.853M149.417 40.6328L139.944 44.5508M92.537 36.8418H59.513M92.537 36.8418L82.29 40.6328M115.853 40.6328H82.29M115.853 40.6328L105.823 44.5498M59.513 36.8418H26.488M59.513 36.8418L48.726 40.6328M82.29 40.6328H48.726M82.29 40.6328L71.702 44.5498M26.488 36.8418L22.368 36.8428L18.288 36.8508L14.295 36.8748L10.427 36.9198L6.726 36.9938L3.232 37.1038L-0.0120001 37.2588L-3.024 37.4558L-5.608 37.7278L-7.961 38.0428L-8.608 38.1528V40.6328M26.488 36.8418L15.162 40.6328M48.726 40.6328H15.162M48.726 40.6328L45.974 41.5998L37.58 44.5498M-8.608 40.6328H15.162M-8.608 40.6328V44.5498M71.702 44.5498H105.823M71.702 44.5498H37.58M105.823 44.5498L95.453 48.5988M105.823 44.5498L139.944 44.5508M208.186 44.5498H242.307M208.186 44.5498L174.065 44.5508M242.307 44.5498L276.427 44.5508M344.669 44.5498L338.333 48.5988M344.669 44.5498H378.791M344.669 44.5498H310.548M378.791 44.5498L375.213 47.0648L373.029 48.5988M378.791 44.5498H412.912M481.153 44.5498L477.121 48.5988M481.153 44.5498H515.274M481.153 44.5498H447.033M515.274 44.5498L513.128 47.0648L511.818 48.5988M515.274 44.5498L549.395 44.5508M617.638 44.5498L617.21 45.5488L616.564 47.0648L616.128 48.0848L615.909 48.5988M617.638 44.5498H651.758M617.638 44.5498H583.516M651.758 44.5498L651.33 46.0518L650.752 48.0848L650.606 48.5988M651.758 44.5498H685.879M754.121 44.5498L754.192 45.0488L754.263 45.5488L754.335 46.0518L754.406 46.5568L754.479 47.0648L754.697 48.5988M754.121 44.5498H788.242M754.121 44.5498L720 44.5508M788.242 44.5498L788.67 46.0518L789.248 48.0848L789.394 48.5988M788.242 44.5498L822.362 44.5508M890.605 44.5498L891.316 45.5488L893.485 48.5988M890.605 44.5498H924.726M890.605 44.5498L856.483 44.5508M924.726 44.5498L926.872 47.0648L928.182 48.5988M924.726 44.5498L958.847 44.5508M1027.09 44.5498L1031.62 48.0848L1032.27 48.5988M1027.09 44.5498H1061.21M1027.09 44.5498H992.967M1061.21 44.5498L1064.79 47.0648L1066.97 48.5988M1061.21 44.5498L1095.33 44.5508M1163.57 44.5498L1171.06 48.5988M1163.57 44.5498H1197.69M1163.57 44.5498H1129.45M1197.69 44.5498L1205.76 48.5988M1197.69 44.5498L1231.81 44.5488L1240.45 48.5988M1300.06 44.5498L1309.85 48.5988M1300.06 44.5498L1265.94 44.5508M1300.06 44.5498H1334.18M1334.18 44.5498L1344.55 48.5988M1334.18 44.5498L1368.3 44.5508M-8.725 76.0878H-8.608M-8.608 76.0878H25.057M-8.608 76.0878V81.2838M-8.608 76.0878V74.2588M25.057 76.0878L37.871 71.0848M25.057 76.0878L11.752 81.2838M25.057 76.0878H63.665M37.871 71.0848L50.221 66.2618M37.871 71.0848H75.766M11.752 81.2838L-2.073 86.6818M11.752 81.2838H51.099M11.752 81.2838H-8.608M63.665 76.0878L75.767 71.0858M63.665 76.0878L51.099 81.2838M63.665 76.0878H102.273M37.872 71.0848H-0.0249996M-0.0249996 71.0848L13.011 66.2618M-0.0249996 71.0848H-8.608M-0.0249996 71.0848L-8.608 74.2588M-8.608 71.0848V74.2588M-8.608 71.0848V66.2628M37.718 57.1198H73.628M37.718 57.1198L49.435 52.7858M37.718 57.1198H1.81M73.628 57.1198L84.729 52.7858M73.628 57.1198L62.134 61.6098M73.628 57.1198H109.539M49.435 52.7858H84.729M49.435 52.7858L60.758 48.5978M49.435 52.7858H14.142M1.81 57.1198L14.143 52.7868M1.81 57.1198H-8.608M1.81 57.1198L-8.608 60.7808M37.72 57.1198L25.586 61.6098H62.133M84.729 52.7858H120.021M84.729 52.7858L95.454 48.5978M60.758 48.5978L95.453 48.5988M60.758 48.5978L71.702 44.5478M14.142 52.7858L26.06 48.5978M14.142 52.7858H-8.608M120.021 52.7858L109.538 57.1208M120.021 52.7858L155.314 52.7868M120.021 52.7858L130.15 48.5988M-8.977 155.068H-8.607M-8.607 155.068H22.175M-8.607 155.068L-8.608 146.773M-8.607 155.068L-8.608 163.777M22.175 155.068L38.699 146.773M22.175 155.068L4.83 163.777M22.175 155.068H72.02M38.699 146.773L54.46 138.86M38.699 146.773H87.364M38.699 146.773H-8.608M4.83 163.777H55.914M4.83 163.777H-8.608M4.83 163.777L-8.608 170.523M72.02 155.068L87.364 146.773M72.02 155.068L55.914 163.777M72.02 155.068H121.865M54.46 138.86H6.921M54.46 138.86L69.506 131.306M54.46 138.86H101.998M87.364 146.773L101.998 138.86M87.364 146.773H136.029M-8.608 146.773V146.137M6.921 138.86L23.043 131.306M6.921 138.86H-8.608M6.921 138.86L-8.608 146.137M23.043 131.306L38.452 124.085M23.043 131.306H69.506M23.043 131.306H-8.607M-8.608 138.86V146.137M-8.608 138.86L-8.607 131.306M38.452 124.085H83.888M38.452 124.085L53.193 117.177M38.452 124.085H-6.985M83.888 124.085L97.648 117.177M83.888 124.085L69.506 131.306M83.888 124.085H129.325M53.193 117.177H97.648M53.193 117.177H8.74M53.193 117.177L67.312 110.562M-6.985 124.085L8.74 117.177M-6.985 124.085H-8.608M-6.985 124.085L-8.608 124.798M97.648 117.177L110.824 110.562M97.648 117.177H142.1M69.506 131.306H115.97M129.325 124.085L142.1 117.177M129.325 124.085L115.97 131.306M129.325 124.085H174.761M8.74 117.177L23.799 110.562M8.74 117.177H-8.608M67.312 110.562H110.824M67.312 110.562H23.799M67.312 110.562L80.844 104.221M110.824 110.562L123.455 104.221M110.824 110.562H154.337M142.1 117.177L154.337 110.562M142.1 117.177H186.555M93.826 98.1368H135.571M93.826 98.1368L106.292 92.2958M93.826 98.1368H52.082M106.292 92.2958H147.207M106.292 92.2958H65.379M106.292 92.2958L118.273 86.6818M52.082 98.1368H10.339M52.082 98.1368L65.379 92.2958M52.082 98.1368L38.235 104.221M93.827 98.1368L80.844 104.221M80.844 104.221H123.455M80.844 104.221H38.235M135.572 98.1368L147.207 92.2958M135.572 98.1368L123.455 104.221M135.572 98.1368H177.317M147.207 92.2958L158.388 86.6818M147.207 92.2958H188.121M123.455 104.221H166.065M177.317 98.1368L188.121 92.2958M177.317 98.1368L166.065 104.221M177.317 98.1368H219.062M65.379 92.2958H24.467M65.379 92.2958L78.157 86.6818M118.273 86.6818H158.388M118.273 86.6818H78.157M118.273 86.6818L129.793 81.2838M158.388 86.6818L169.14 81.2838M158.388 86.6818H198.503M188.121 92.2958L198.503 86.6818M188.121 92.2958H229.035M140.881 76.0878H179.489M140.881 76.0878L151.559 71.0848M140.881 76.0878H102.273M140.881 76.0878L129.793 81.2838M179.489 76.0878L189.455 71.0848M179.489 76.0878L169.14 81.2838M179.489 76.0878H218.096M151.559 71.0848H189.455M151.559 71.0848H113.663M151.559 71.0848L161.852 66.2618M102.273 76.0878L113.663 71.0848M102.273 76.0878L90.446 81.2828L129.793 81.2838M129.793 81.2838H169.14M189.455 71.0848L199.061 66.2618M189.455 71.0848H227.351M169.14 81.2838H208.487M218.096 76.0878L227.351 71.0848M218.096 76.0878L208.487 81.2838M218.096 76.0878H256.704M113.663 71.0848L75.767 71.0858M113.663 71.0848L124.642 66.2618M161.852 66.2618H199.061M161.852 66.2618H124.642M161.852 66.2618L171.777 61.6108M199.061 66.2618H236.27M227.351 71.0848L236.27 66.2618M227.351 71.0848H265.248M217.266 57.1218H181.356L190.607 52.7868M190.607 52.7868H225.899M190.607 52.7868L199.545 48.5988M190.607 52.7868H155.314M171.777 61.6108L181.356 57.1208H145.447H109.538M171.777 61.6108L135.229 61.6098M217.266 57.1208L225.899 52.7868M217.266 57.1208L208.325 61.6108M217.266 57.1208H253.176M225.899 52.7868H261.193M225.899 52.7868L234.242 48.5988M199.545 48.5988H234.241M199.545 48.5988L208.185 44.5488M199.545 48.5988H164.846M155.314 52.7868L145.446 57.1208L135.228 61.6098M155.314 52.7868L164.846 48.5988M16.929 298.896L40.186 282.549M16.929 298.896L-7.975 316.401M16.929 298.896H87.236M16.929 298.896H-8.608M40.186 282.549L61.953 267.25M40.186 282.549H108.167M40.186 282.549H-8.608M-7.975 316.401H64.822M-7.975 316.401H-8.608M-7.975 316.401L-8.608 316.845M87.236 298.896L108.167 282.549M87.236 298.896L64.822 316.401M87.236 298.896H157.543M-8.608 298.896V316.401M-8.608 298.896V282.549M61.953 267.25L82.37 252.899M61.953 267.25H127.758M61.953 267.25H-3.852L18.607 252.899M108.167 282.549L127.758 267.25M108.167 282.549H176.148M-8.608 282.549V270.289M39.714 239.412H101.558M39.714 239.412L59.587 226.713M39.714 239.412L18.607 252.899M39.714 239.412H-8.608M101.558 239.412L119.624 226.713M101.558 239.412L82.37 252.899M101.558 239.412H163.402M59.587 226.713H119.624M59.587 226.713H-0.45M59.587 226.713L78.333 214.735M18.607 252.899H82.37M18.607 252.899H-8.608M-8.608 239.412V252.899M-8.608 239.412V231.491M119.624 226.713L136.666 214.735M119.624 226.713H179.662M82.37 252.899H146.133M163.402 239.412L179.662 226.713M163.402 239.412L146.133 252.899M163.402 239.412H225.247M-0.45 226.713L19.999 214.735M-0.45 226.713H-8.608M-0.45 226.713L-8.608 231.491M78.333 214.735H136.666M78.333 214.735H19.999M78.333 214.735L96.043 203.419M136.666 214.735L152.766 203.419M136.666 214.735H195M179.662 226.713L195 214.735M179.662 226.713H239.7M112.802 192.709H168.002M112.802 192.709L128.685 182.561M112.802 192.709H57.602M112.802 192.709L96.043 203.419M168.002 192.709L182.441 182.561M168.002 192.709L152.766 203.419M168.002 192.709H223.202M128.685 182.561H182.441M128.685 182.561H74.929M128.685 182.561L143.757 172.929M57.602 192.709H2.403M57.602 192.709L74.929 182.561M57.602 192.709L39.32 203.419M96.043 203.419H152.766M96.043 203.419H39.32M182.441 182.561L196.143 172.929M182.441 182.561H236.196M152.766 203.419H209.49M223.202 192.709L236.196 182.561M223.202 192.709L209.49 203.419M223.202 192.709H278.402M74.929 182.561H21.172M74.929 182.561L91.372 172.929M143.757 172.929H196.143M143.757 172.929H91.372M143.757 172.929L158.081 163.777M196.143 172.929L209.164 163.777M196.143 172.929H248.529M236.196 182.561L248.529 172.929M236.196 182.561H289.952M171.709 155.068H221.554M171.709 155.068L184.693 146.773M171.709 155.068H121.865M171.709 155.068L158.081 163.777M221.554 155.068L233.357 146.773M221.554 155.068L209.164 163.777M221.554 155.068H271.399M184.693 146.773H233.357M184.693 146.773H136.029M184.693 146.773L197.075 138.86M121.865 155.068L136.029 146.773M121.865 155.068L106.997 163.777M158.081 163.777H209.164M158.081 163.777H106.997M233.357 146.773L244.614 138.86M233.357 146.773H282.021M209.164 163.777H260.248M271.399 155.068L282.021 146.773M271.399 155.068L260.248 163.777M271.399 155.068H321.243M136.029 146.773L149.537 138.86M197.075 138.86H244.614M197.075 138.86H149.537M197.075 138.86L208.898 131.306M244.614 138.86L255.362 131.306M244.614 138.86H292.153M282.021 146.773L292.153 138.86M282.021 146.773H330.685M220.198 124.085H265.634M220.198 124.085L231.009 117.177M220.198 124.085H174.761M220.198 124.085L208.898 131.306M265.634 124.085L275.463 117.177M265.634 124.085L255.362 131.306M265.634 124.085H311.07M231.009 117.177H275.463M231.009 117.177H186.555M231.009 117.177L241.362 110.562M174.761 124.085L186.555 117.177M174.761 124.085L162.434 131.306M208.898 131.306H255.362M208.898 131.306H162.434M275.463 117.177L284.875 110.562M275.463 117.177H319.916M255.362 131.306H301.826M311.07 124.085L319.916 117.177M311.07 124.085L301.826 131.306M311.07 124.085H356.508M186.555 117.177L197.849 110.562M241.362 110.562H284.875M241.362 110.562H197.849M241.362 110.562L251.286 104.221M284.875 110.562L293.897 104.221M284.875 110.562H328.387M319.916 117.177L328.387 110.562M319.916 117.177H364.37M260.806 98.1368H302.551M260.806 98.1368L269.948 92.2958M260.806 98.1368H219.062M260.806 98.1368L251.286 104.221M302.551 98.1368L303.609 97.3938L310.862 92.2958M302.551 98.1368L293.897 104.221M302.551 98.1368H344.297M269.948 92.2958H310.862M269.948 92.2958H229.035M269.948 92.2958L278.733 86.6818M219.062 98.1368L229.035 92.2958M219.062 98.1368L208.675 104.221M251.286 104.221H293.897M251.286 104.221H208.675M310.862 92.2958L318.848 86.6818M310.862 92.2958H351.776M293.897 104.221H336.506M344.297 98.1368L351.776 92.2958M344.297 98.1368L336.506 104.221M344.297 98.1368H386.041M229.035 92.2958L238.618 86.6818M278.733 86.6818H318.848M278.733 86.6818H238.618M278.733 86.6818L287.181 81.2838M318.848 86.6818L325.585 81.9468L326.528 81.2838M318.848 86.6818H358.964M351.776 92.2958L358.964 86.6818M351.776 92.2958H392.69M295.312 76.0878H333.921M295.312 76.0878L303.144 71.0848M295.312 76.0878H256.704M295.312 76.0878L287.181 81.2838M333.921 76.0878L341.04 71.0848M333.921 76.0878L331.182 78.0138L326.528 81.2838M333.921 76.0878H372.529M303.144 71.0848H341.04M303.144 71.0848H265.248M303.144 71.0848L310.691 66.2618M256.704 76.0878L264.197 71.6988L265.248 71.0848M256.704 76.0878L247.834 81.2828M287.181 81.2838H326.528M287.181 81.2838L247.834 81.2828M341.04 71.0848L347.901 66.2618M341.04 71.0848H378.936M326.528 81.2838H365.875M372.529 76.0878L378.936 71.0848M372.529 76.0878L370.888 77.3678L365.875 81.2838M372.529 76.0878H411.136M265.248 71.0848L273.481 66.2618M310.691 66.2618H347.901M310.691 66.2618H273.481M310.691 66.2618L317.97 61.6108M347.901 66.2618L354.518 61.6108M347.901 66.2618H385.111M378.936 71.0848L385.111 66.2618M378.936 71.0848H416.832M360.904 57.1218H324.994L331.778 52.7868M331.778 52.7868H367.072M331.778 52.7868L338.333 48.5988M331.778 52.7868H296.485M289.086 57.1208H324.994L317.97 61.6108M317.97 61.6108H354.518M317.97 61.6108L281.422 61.6098L273.481 66.2618M360.904 57.1208L365.55 53.8568L366.312 53.3198L367.072 52.7868M360.904 57.1208L354.518 61.6108M360.904 57.1208H396.814M367.072 52.7868H402.364M367.072 52.7868L373.029 48.5988M354.518 61.6108L391.066 61.6098M396.814 57.1208L402.364 52.7868M396.814 57.1208L391.066 61.6098M396.814 57.1208H432.724M338.333 48.5988H373.029M338.333 48.5988H303.635M296.485 52.7868H261.192M296.485 52.7868L289.085 57.1208M296.485 52.7868L303.635 48.5988M402.364 52.7868H437.657M402.364 52.7868L407.727 48.5988M373.029 48.5988H407.727M42.403 485.107H139.203M42.403 485.107L72.883 454.502M42.403 485.107L8.909 518.739M42.403 485.107L-8.607 485.108M139.203 485.107L165.328 454.502M139.203 485.107L110.494 518.739M139.203 485.107H236.002M72.883 454.502H165.328M72.883 454.502L100.739 426.531M72.883 454.502H-8.607M8.909 518.739H110.494M8.909 518.739L-8.607 536.329M8.909 518.739H-8.608M-8.607 485.108L-8.608 518.739M-8.607 485.108V454.502M165.328 454.502L189.205 426.531M165.328 454.502H257.774M110.494 518.739L78.799 555.868M110.494 518.739H212.079M236.002 485.107L257.774 454.502M236.002 485.107L212.079 518.739M236.002 485.107H332.802M100.739 426.531H189.205M100.739 426.531H12.273M100.739 426.531L126.296 400.869M-8.607 454.502V444.877M189.205 426.531L211.111 400.869M189.205 426.531H277.671M257.774 454.502L277.671 426.531M257.774 454.502H350.219M149.827 377.241H231.28M149.827 377.241L171.563 355.415M149.827 377.241H68.374M149.827 377.241L126.296 400.869M231.28 377.241L249.911 355.415M231.28 377.241L211.111 400.869M231.28 377.241H312.733M171.563 355.415H249.911M171.563 355.415H93.215M171.563 355.415L191.704 335.192M68.374 377.241L93.215 355.415M68.374 377.241L41.481 400.869M68.374 377.241H-8.608M126.296 400.869H211.111M126.296 400.869H41.481M249.911 355.415L267.175 335.192M249.911 355.415H328.26M211.111 400.869H295.925M312.733 377.241L328.26 355.415M312.733 377.241L295.925 400.869M312.733 377.241H394.186M93.215 355.415H14.867M93.215 355.415L116.233 335.192M191.704 335.192H267.175M191.704 335.192H116.233M191.704 335.192L210.417 316.401M267.175 335.192L283.215 316.401M267.175 335.192H342.646M328.26 355.415L342.646 335.192M328.26 355.415H406.608M227.851 298.896H298.157M227.851 298.896L244.13 282.549M227.851 298.896H157.543M227.851 298.896L210.417 316.401M298.157 298.896L312.112 282.549M298.157 298.896L283.215 316.401M298.157 298.896H368.464M244.13 282.549H312.112M244.13 282.549H176.148M244.13 282.549L259.367 267.25M157.543 298.896L176.148 282.549M157.543 298.896L137.619 316.401M210.417 316.401H283.215M210.417 316.401H137.619M312.112 282.549L325.172 267.25M312.112 282.549H380.093M283.215 316.401H356.013M368.464 298.896L380.093 282.549M368.464 298.896L356.013 316.401M368.464 298.896H438.772M176.148 282.549L193.563 267.25M259.367 267.25H325.172M259.367 267.25H193.563M259.367 267.25L273.659 252.899M325.172 267.25L337.422 252.899M325.172 267.25H390.977M380.093 282.549L390.977 267.25M380.093 282.549H448.075M287.09 239.412H348.935M287.09 239.412L299.738 226.713M287.09 239.412H225.247M287.09 239.412L273.659 252.899M348.935 239.412L359.775 226.713M348.935 239.412L337.422 252.899M348.935 239.412H410.779M299.738 226.713H359.775M299.738 226.713H239.7M299.738 226.713L311.666 214.735M225.247 239.412L239.7 226.713M225.247 239.412L209.896 252.899M273.659 252.899H337.422M273.659 252.899H209.896M359.775 226.713L370 214.735M359.775 226.713H419.812M337.422 252.899H401.185M410.779 239.412L419.812 226.713M410.779 239.412L401.185 252.899M410.779 239.412H472.623M239.7 226.713L253.333 214.735M311.666 214.735H370M311.666 214.735H253.333M311.666 214.735L322.936 203.419M370 214.735L379.66 203.419M370 214.735H428.333M419.812 226.713L428.333 214.735M419.812 226.713H479.85M333.601 192.709H388.802M333.601 192.709L343.708 182.561M333.601 192.709H278.402M333.601 192.709L322.936 203.419M388.802 192.709L397.464 182.561M388.802 192.709L379.66 203.419M388.802 192.709H444.001M343.708 182.561H397.464M343.708 182.561H289.952M343.708 182.561L353.3 172.929M278.402 192.709L289.952 182.561M278.402 192.709L266.213 203.419M322.936 203.419H379.66M322.936 203.419H266.213M397.464 182.561L405.686 172.929M397.464 182.561H451.22M379.66 203.419H436.383M444.001 192.709L451.22 182.561M444.001 192.709L436.383 203.419M444.001 192.709H499.201M289.952 182.561L300.915 172.929M353.3 172.929H405.686M353.3 172.929H300.915M353.3 172.929L362.415 163.777M405.686 172.929L413.498 163.777M405.686 172.929H458.072M451.22 182.561L458.072 172.929M451.22 182.561H504.977M371.088 155.068H420.932M371.088 155.068L379.35 146.773M371.088 155.068H321.243M371.088 155.068L362.415 163.777M420.932 155.068L428.014 146.773M420.932 155.068L413.498 163.777M420.932 155.068H470.777M379.35 146.773H428.014M379.35 146.773H330.685M379.35 146.773L387.23 138.86M321.243 155.068L330.685 146.773M321.243 155.068L311.332 163.777M362.415 163.777H413.498M362.415 163.777H311.332M428.014 146.773L434.768 138.86M428.014 146.773H476.678M413.498 163.777H464.582M470.777 155.068L476.678 146.773M470.777 155.068L464.582 163.777M470.777 155.068H520.622M330.685 146.773L339.691 138.86M387.23 138.86H434.768M387.23 138.86H339.691M387.23 138.86L394.753 131.306M434.768 138.86L441.217 131.306M434.768 138.86H482.307M476.678 146.773L480.227 141.784L482.307 138.86M476.678 146.773H525.343M401.944 124.085H447.381M401.944 124.085L408.824 117.177M401.944 124.085H356.508M401.944 124.085L394.753 131.306M447.381 124.085L453.277 117.177M447.381 124.085L441.217 131.306M447.381 124.085H492.817M408.824 117.177H453.277M408.824 117.177H364.37M408.824 117.177L415.412 110.562M356.508 124.085L364.37 117.177M356.508 124.085L348.289 131.306M394.753 131.306H441.217M394.753 131.306H348.289M453.277 117.177L458.925 110.562M453.277 117.177H497.731M441.217 131.306H487.681M492.817 124.085L497.731 117.177M492.817 124.085L491.554 125.86L487.681 131.306M492.817 124.085H538.253M364.37 117.177L371.899 110.562M415.412 110.562H458.925M415.412 110.562H371.899M415.412 110.562L421.727 104.221M458.925 110.562L461.659 107.358L464.338 104.221M458.925 110.562H502.437M497.731 117.177L502.437 110.562M497.731 117.177H542.185M427.786 98.1368H469.531M427.786 98.1368L433.603 92.2958M427.786 98.1368H386.041M427.786 98.1368L421.727 104.221M469.531 98.1368L468.893 98.8838L464.338 104.221M469.531 98.1368L474.517 92.2958M469.531 98.1368H511.276M433.603 92.2958H474.517M433.603 92.2958H392.69M433.603 92.2958L439.194 86.6818M386.041 98.1368L392.69 92.2958M386.041 98.1368L379.117 104.221M421.727 104.221H464.338M421.727 104.221H379.117M464.338 104.221H506.948M474.517 92.2958L479.309 86.6818M474.517 92.2958H515.431M511.276 98.1368L515.431 92.2958M511.276 98.1368L506.948 104.221M511.276 98.1368H553.021M392.69 92.2958L399.079 86.6818M439.194 86.6818H479.309M439.194 86.6818H399.079M439.194 86.6818L444.57 81.2838M479.309 86.6818L483.918 81.2828M479.309 86.6818H519.424M515.431 92.2958L519.424 86.6818M515.431 92.2958H556.345M449.744 76.0878H488.352M449.744 76.0878L454.728 71.0848M449.744 76.0878H411.136M449.744 76.0878L444.57 81.2838M488.352 76.0878L492.624 71.0848M488.352 76.0878L486.709 78.0138L485.6 79.3128L483.918 81.2828M488.352 76.0878H526.96M454.728 71.0848H492.624M454.728 71.0848H416.832M454.728 71.0848L459.53 66.2618M411.136 76.0878L416.832 71.0848M411.136 76.0878L405.223 81.2828M444.57 81.2838L483.918 81.2828M444.57 81.2838L405.223 81.2828M492.624 71.0848L494.186 69.2548L495.215 68.0488L496.741 66.2618M492.624 71.0848H530.52M483.918 81.2828L523.265 81.2838M526.96 76.0878L527.862 74.8188L530.52 71.0848M526.96 76.0878L526.506 76.7268L526.049 77.3678L524.667 79.3128L524.201 79.9658L523.265 81.2838M526.96 76.0878H565.568M416.832 71.0848L422.321 66.2618M459.53 66.2618H496.741M459.53 66.2618H422.321M459.53 66.2618L463.02 62.7568L464.163 61.6108M496.741 66.2618L498.744 63.9148L500.711 61.6098M496.741 66.2618H533.951M530.52 71.0848L530.956 70.4718L531.389 69.8618L533.105 67.4498L533.951 66.2618M530.52 71.0848H568.416M504.542 57.1218H468.633L471.885 53.8568L472.95 52.7868M472.95 52.7868H508.243M472.95 52.7868L477.121 48.5988M472.95 52.7868H437.657M432.724 57.1208H468.633L464.73 61.0408L464.163 61.6108M432.724 57.1208L437.657 52.7868M432.724 57.1208L427.614 61.6098M464.163 61.6108L500.711 61.6098M464.163 61.6108L427.614 61.6098M504.542 57.1208L507.33 53.8568L507.787 53.3198L508.243 52.7868M504.542 57.1208L502.643 59.3458L500.711 61.6098M504.542 57.1208H540.452M508.243 52.7868H543.536M508.243 52.7868L511.818 48.5988M500.711 61.6098H537.259M540.452 57.1208L543.536 52.7868M540.452 57.1208L537.259 61.6098M540.452 57.1208H576.362M477.121 48.5988H511.818M477.121 48.5988H442.424M437.657 52.7868L441.248 49.6328L442.424 48.5988M543.536 52.7868H578.828M543.536 52.7868L545.779 49.6328L546.515 48.5988M511.818 48.5988H546.515M429.601 485.107H526.401M429.601 485.107L442.664 454.502M429.601 485.107H332.802M429.601 485.107L415.247 518.739M526.401 485.107L535.11 454.502M526.401 485.107L516.832 518.739M526.401 485.107H623.201M442.664 454.502H535.11M442.664 454.502H350.219M442.664 454.502L454.602 426.531M332.802 485.107L350.219 454.502M332.802 485.107L313.662 518.739M415.247 518.739H516.832M415.247 518.739L399.4 555.868M415.247 518.739H313.662M535.11 454.502L543.068 426.531M535.11 454.502H627.555M516.832 518.739L506.267 555.868M516.832 518.739H618.415M623.201 485.107L627.555 454.502M623.201 485.107L618.415 518.739M623.201 485.107H720M350.219 454.502L366.137 426.531M454.602 426.531H543.068M454.602 426.531H366.137M454.602 426.531L465.555 400.869M543.068 426.531L550.37 400.869M543.068 426.531H631.534M627.555 454.502L631.534 426.531M627.555 454.502H720M475.64 377.241H557.093M475.64 377.241L484.956 355.415M475.64 377.241H394.186M475.64 377.241L465.555 400.869M557.093 377.241L563.304 355.415M557.093 377.241L550.37 400.869M557.093 377.241H638.547M484.956 355.415H563.304M484.956 355.415H406.608M484.956 355.415L493.587 335.192M394.186 377.241L406.608 355.415M394.186 377.241L380.741 400.869M465.555 400.869H550.37M465.555 400.869H380.741M563.304 355.415L569.058 335.192M563.304 355.415H641.652M550.37 400.869H635.185M638.547 377.241L641.652 355.415M638.547 377.241L635.185 400.869M638.547 377.241H720M406.608 355.415L418.117 335.192M493.587 335.192H569.058M493.587 335.192H418.117M493.587 335.192L501.607 316.401M569.058 335.192L574.405 316.401M569.058 335.192H644.529M641.652 355.415L644.529 335.192M641.652 355.415H720M509.079 298.896H579.386M509.079 298.896L516.056 282.549M509.079 298.896H438.772M509.079 298.896L501.607 316.401M579.386 298.896L584.037 282.549M579.386 298.896L574.405 316.401M579.386 298.896H649.693M516.056 282.549H584.037M516.056 282.549H448.075M516.056 282.549L522.586 267.25M438.772 298.896L448.075 282.549M438.772 298.896L428.81 316.401M501.607 316.401H574.405M501.607 316.401H428.81M584.037 282.549L588.391 267.25M584.037 282.549H652.019M574.405 316.401H647.202M649.693 298.896L652.019 282.549M649.693 298.896L647.202 316.401M649.693 298.896H720M448.075 282.549L456.781 267.25M522.586 267.25H588.391M522.586 267.25H456.781M522.586 267.25L528.711 252.899M588.391 267.25L592.474 252.899M588.391 267.25H654.195M652.019 282.549L654.195 267.25M652.019 282.549H720M534.468 239.412H596.311M534.468 239.412L539.887 226.713M534.468 239.412H472.623M534.468 239.412L528.711 252.899M596.311 239.412L599.925 226.713M596.311 239.412L592.474 252.899M596.311 239.412H658.156M539.887 226.713H599.925M539.887 226.713H479.85M539.887 226.713L545 214.735M472.623 239.412L479.85 226.713M472.623 239.412L464.948 252.899M528.711 252.899H592.474M528.711 252.899H464.948M599.925 226.713L603.333 214.735M599.925 226.713H659.963M592.474 252.899H656.237M658.156 239.412L659.963 226.713M658.156 239.412L656.237 252.899M658.156 239.412H720M479.85 226.713L486.666 214.735M545 214.735H603.333M545 214.735H486.666M545 214.735L549.83 203.419M603.333 214.735L606.554 203.419M603.333 214.735H661.667M659.963 226.713L661.667 214.735M659.963 226.713H720M554.4 192.709H609.601M554.4 192.709L558.732 182.561M554.4 192.709H499.201M554.4 192.709L549.83 203.419M609.601 192.709L612.488 182.561M609.601 192.709L606.554 203.419M609.601 192.709H664.8M558.732 182.561H612.488M558.732 182.561H504.977M558.732 182.561L562.843 172.929M499.201 192.709L504.977 182.561M499.201 192.709L493.106 203.419M549.83 203.419H606.554M549.83 203.419H493.106M612.488 182.561L615.229 172.929M612.488 182.561H666.244M606.554 203.419H663.276M664.8 192.709L666.244 182.561M664.8 192.709L663.276 203.419M664.8 192.709H720M504.977 182.561L510.457 172.929M562.843 172.929H615.229M562.843 172.929H510.457M562.843 172.929L566.75 163.777M615.229 172.929L617.833 163.777M615.229 172.929H667.615M666.244 182.561L667.615 172.929M666.244 182.561H720M570.466 155.068H620.311M570.466 155.068L574.007 146.773M570.466 155.068H520.622M570.466 155.068L566.75 163.777M620.311 155.068L622.672 146.773M620.311 155.068L617.833 163.777M620.311 155.068H670.156M574.007 146.773H622.672M574.007 146.773H525.343M574.007 146.773L575.292 143.762L577.384 138.86M520.622 155.068L525.343 146.773M520.622 155.068L515.666 163.777M566.75 163.777H617.833M566.75 163.777H515.666M622.672 146.773L624.923 138.86M622.672 146.773H671.336M617.833 163.777H668.916M670.156 155.068L671.336 146.773M670.156 155.068L668.916 163.777M670.156 155.068H720M525.343 146.773L529.846 138.86M577.384 138.86H624.923M577.384 138.86H529.846M577.384 138.86L580.608 131.306M624.923 138.86L627.072 131.306M624.923 138.86H672.461M671.336 146.773L672.461 138.86M671.336 146.773H720M583.69 124.085H629.127M583.69 124.085L586.639 117.177M583.69 124.085H538.253M583.69 124.085L581.392 129.471L580.608 131.306M629.127 124.085L629.874 121.459L631.092 117.177M629.127 124.085L627.072 131.306M629.127 124.085H674.564M586.639 117.177L586.998 116.335L589.462 110.562M586.639 117.177H631.092M586.639 117.177H542.185M538.253 124.085L542.185 117.177M538.253 124.085L537.75 124.97L536.222 127.655L534.144 131.306M580.608 131.306H627.072M580.608 131.306H534.144M631.092 117.177L631.808 114.663L632.043 113.834L632.279 113.01L632.975 110.562M631.092 117.177H675.547M627.072 131.306H673.536M674.564 124.085L675.547 117.177M674.564 124.085L673.536 131.306M674.564 124.085H720M589.462 110.562H632.975M589.462 110.562H545.95M589.462 110.562L592.169 104.221M542.185 117.177L545.95 110.562M632.975 110.562L633.661 108.153L633.886 107.358L634.78 104.221M632.975 110.562H676.488M675.547 117.177L675.666 116.335L676.488 110.562M675.547 117.177H720M594.765 98.1368H636.51M594.765 98.1368L596.024 95.1868L596.336 94.4588L596.644 93.7338L596.953 93.0138L597.258 92.2958M594.765 98.1368H553.021M594.765 98.1368L592.169 104.221M636.51 98.1368L637.763 93.7338L637.969 93.0138L638.172 92.2958M636.51 98.1368L634.78 104.221M636.51 98.1368H678.255M597.258 92.2958H638.172M597.258 92.2958H556.345M597.258 92.2958L598.767 88.7608L599.064 88.0648L599.655 86.6818M553.021 98.1368L555.526 93.7338L556.345 92.2958M553.021 98.1368L551.739 100.389L550.437 102.676L549.558 104.221M592.169 104.221H634.78M592.169 104.221H549.558M638.172 92.2958L639.178 88.7608L639.377 88.0648L639.573 87.3718L639.77 86.6818M638.172 92.2958H679.086M634.78 104.221H677.389M678.255 98.1368L679.086 92.2958M678.255 98.1368L677.935 100.389L677.609 102.676L677.389 104.221M678.255 98.1368H720M556.345 92.2958L559.539 86.6818M599.655 86.6818H639.77M599.655 86.6818H559.539M599.655 86.6818L601.959 81.2828M639.77 86.6818L641.306 81.2828M639.77 86.6818H679.885M679.086 92.2958L679.885 86.6818M679.086 92.2958H720M604.176 76.0878H642.784M604.176 76.0878L606.312 71.0848M604.176 76.0878H565.568M604.176 76.0878L603.629 77.3678L602.8 79.3128L601.959 81.2828M642.784 76.0878L642.602 76.7268L641.493 80.6228L641.306 81.2828M642.784 76.0878L644.208 71.0848M642.784 76.0878H681.392M606.312 71.0848H644.208M606.312 71.0848H568.416M606.312 71.0848L608.371 66.2618M565.568 76.0878L568.066 71.6988L568.416 71.0848M565.568 76.0878L565.205 76.7268L564.839 77.3678L564.473 78.0138L562.612 81.2828M601.959 81.2828H641.306M601.959 81.2828H562.612M641.306 81.2828L680.653 81.2838M644.208 71.0848L644.729 69.2548L644.9 68.6508L645.072 68.0488L645.58 66.2618M644.208 71.0848H682.104M681.392 76.0878L681.929 72.3178L682.016 71.6988L682.104 71.0848M681.392 76.0878L680.653 81.2838M681.392 76.0878H720M568.416 71.0848L571.161 66.2618M608.371 66.2618H645.58M608.371 66.2618H571.161M608.371 66.2618L608.873 65.0818L609.123 64.4978L609.372 63.9148L609.62 63.3348L609.866 62.7568L610.112 62.1828L610.355 61.6098M645.58 66.2618L645.748 65.6708L645.916 65.0828L646.248 63.9148L646.413 63.3348L646.578 62.7568L646.741 62.1828L646.904 61.6098M645.58 66.2618H682.79M682.104 71.0848L682.79 66.2618M682.104 71.0848H720M648.181 57.1218H612.272L613.665 53.8568L614.121 52.7868M614.121 52.7868H649.414M614.121 52.7868L615.688 49.1148L615.909 48.5988M614.121 52.7868H578.828M576.362 57.1208H612.272L611.56 58.7858L611.322 59.3458L611.082 59.9078L610.355 61.6098M576.362 57.1208L578.828 52.7868M576.362 57.1208L573.807 61.6098M610.355 61.6098H646.904M610.355 61.6098H573.807M648.181 57.1208L648.338 56.5708L648.648 55.4778L648.957 54.3948L649.414 52.7868M648.181 57.1208L647.548 59.3458L647.388 59.9078L647.066 61.0398L646.904 61.6098M648.181 57.1208H684.09M649.414 52.7868L649.566 52.2558L649.716 51.7258L649.866 51.1998L650.015 50.6748L650.459 49.1148L650.606 48.5988M649.414 52.7868H684.707M646.904 61.6098L683.452 61.6108M684.09 57.1208L684.707 52.7868M684.09 57.1208L683.452 61.6108M684.09 57.1208H720M615.909 48.5988H650.606M615.909 48.5988H581.212M578.828 52.7868L580.031 50.6748L580.919 49.1148L581.212 48.5988M650.606 48.5988H685.303M684.707 52.7868L684.782 52.2558L684.858 51.7258L684.933 51.1998L685.303 48.5988M684.707 52.7868H720M816.799 485.107H913.599M816.799 485.107L812.445 454.502M816.799 485.107H720M816.799 485.107L821.585 518.739M913.599 485.107L904.891 454.502M913.599 485.107L923.168 518.739M913.599 485.107H1010.4M812.445 454.502H904.891M812.445 454.502H720M812.445 454.502L808.466 426.531M720 485.107V454.502M720 485.107V518.739M821.585 518.739H923.168M821.585 518.739L826.867 555.868M821.585 518.739H720M904.891 454.502L896.932 426.531M904.891 454.502H997.336M923.168 518.739L933.733 555.868M923.168 518.739H1024.75M1010.4 485.107L997.336 454.502M1010.4 485.107L1024.75 518.739M1010.4 485.107H1107.2M720 454.502V426.531M808.466 426.531H896.932M808.466 426.531H720M808.466 426.531L804.815 400.869M896.932 426.531L889.63 400.869M896.932 426.531H985.398M997.336 454.502L985.398 426.531M997.336 454.502H1089.78M801.453 377.241H882.907M801.453 377.241L798.348 355.415M801.453 377.241H720M801.453 377.241L804.815 400.869M882.907 377.241L876.696 355.415M882.907 377.241L889.63 400.869M882.907 377.241H964.36M798.348 355.415H876.696M798.348 355.415H720M798.348 355.415L795.471 335.192M720 377.241V355.415M720 377.241V400.869M804.815 400.869H889.63M804.815 400.869H720M876.696 355.415L870.942 335.192M876.696 355.415H955.044M889.63 400.869H974.445M964.36 377.241L955.044 355.415M964.36 377.241L974.445 400.869M964.36 377.241H1045.81M720 355.415V335.192M795.471 335.192H870.942M795.471 335.192H720M795.471 335.192L792.798 316.401M870.942 335.192L865.595 316.401M870.942 335.192H946.413M955.044 355.415L946.413 335.192M955.044 355.415H1033.39M790.307 298.896H860.614M790.307 298.896L787.981 282.549M790.307 298.896H720M790.307 298.896L792.798 316.401M860.614 298.896L855.963 282.549M860.614 298.896L865.595 316.401M860.614 298.896H930.921M787.981 282.549H855.963M787.981 282.549H720M787.981 282.549L785.805 267.25M720 298.896V282.549M720 298.896V316.401M792.798 316.401H865.595M792.798 316.401H720M855.963 282.549L851.609 267.25M855.963 282.549H923.944M865.595 316.401H938.393M930.921 298.896L923.944 282.549M930.921 298.896L938.393 316.401M930.921 298.896H1001.23M720 282.549V267.25M785.805 267.25H851.609M785.805 267.25H720M785.805 267.25L783.763 252.899M851.609 267.25L847.526 252.899M851.609 267.25H917.414M923.944 282.549L917.414 267.25M923.944 282.549H991.925M781.844 239.412H843.689M781.844 239.412L780.037 226.713M781.844 239.412H720M781.844 239.412L783.763 252.899M843.689 239.412L840.075 226.713M843.689 239.412L847.526 252.899M843.689 239.412H905.532M780.037 226.713H840.075M780.037 226.713H720M780.037 226.713L778.333 214.735M720 239.412V226.713M720 239.412V252.899M783.763 252.899H847.526M783.763 252.899H720M840.075 226.713L836.667 214.735M840.075 226.713H900.113M847.526 252.899H911.289M905.532 239.412L900.113 226.713M905.532 239.412L911.289 252.899M905.532 239.412H967.377M720 226.713V214.735M778.333 214.735H836.667M778.333 214.735H720M778.333 214.735L776.724 203.419M836.667 214.735L833.446 203.419M836.667 214.735H895M900.113 226.713L895 214.735M900.113 226.713H960.15M775.2 192.709H830.399M775.2 192.709L773.756 182.561M775.2 192.709H720M775.2 192.709L776.724 203.419M830.399 192.709L827.512 182.561M830.399 192.709L833.446 203.419M830.399 192.709H885.6M773.756 182.561H827.512M773.756 182.561H720M773.756 182.561L772.385 172.929M720 192.709V182.561M720 192.709V203.419M776.724 203.419H833.446M776.724 203.419H720M827.512 182.561L824.772 172.929M827.512 182.561H881.268M833.446 203.419H890.17M885.6 192.709L881.268 182.561M885.6 192.709L890.17 203.419M885.6 192.709H940.799M720 182.561V172.929M772.385 172.929H824.772M772.385 172.929H720M772.385 172.929L771.242 164.896L771.084 163.777M824.772 172.929L822.167 163.777M824.772 172.929H877.157M881.268 182.561L877.157 172.929M881.268 182.561H935.023M769.844 155.068H819.689M769.844 155.068L768.664 146.773M769.844 155.068H720M769.844 155.068L771.084 163.777M819.689 155.068L817.328 146.773M819.689 155.068L822.167 163.777M819.689 155.068H869.534M768.664 146.773H817.328M768.664 146.773H720M768.664 146.773L767.539 138.86M720 155.068V146.773M720 155.068V163.777M771.084 163.777H822.167M771.084 163.777H720M817.328 146.773L815.077 138.86M817.328 146.773H865.993M822.167 163.777H873.25M869.534 155.068L865.993 146.773M869.534 155.068L873.25 163.777M869.534 155.068H919.378M720 146.773V138.86M767.539 138.86H815.077M767.539 138.86H720M767.539 138.86L766.464 131.306M815.077 138.86L812.928 131.306M815.077 138.86H862.616M865.993 146.773L865.133 144.76L862.616 138.86M865.993 146.773H914.657M765.436 124.085H810.873M765.436 124.085L764.453 117.177M765.436 124.085H720M765.436 124.085L766.464 131.306M810.873 124.085L809.148 118.025L808.908 117.177M810.873 124.085L812.928 131.306M810.873 124.085H856.31M764.453 117.177L764.334 116.335L763.512 110.562M764.453 117.177H808.908M764.453 117.177H720M720 124.085V117.177M720 124.085V131.306M766.464 131.306H812.928M766.464 131.306H720M808.908 117.177L808.192 114.663L807.957 113.834L807.721 113.01L807.025 110.562M808.908 117.177H853.361M812.928 131.306H859.392M856.31 124.085L853.361 117.177M856.31 124.085L858.608 129.471L859.392 131.306M856.31 124.085H901.747M763.512 110.562H807.025M763.512 110.562H720M763.512 110.562L763.283 108.952L762.832 105.781L762.611 104.221M720 117.177V110.562M807.025 110.562L806.339 108.153L806.114 107.358L805.221 104.221M807.025 110.562H850.538M853.361 117.177L850.538 110.562M853.361 117.177H897.815M761.745 98.1368H803.49M761.745 98.1368L760.914 92.2958M761.745 98.1368H720M761.745 98.1368L762.065 100.389L762.174 101.147L762.281 101.91L762.5 103.446L762.611 104.221M803.49 98.1368L802.237 93.7338L801.827 92.2958M803.49 98.1368L805.221 104.221M803.49 98.1368H845.235M760.914 92.2958H801.827M760.914 92.2958H720M760.914 92.2958L760.115 86.6818M720 98.1368V92.2958M720 98.1368V104.221M762.611 104.221H805.221M762.611 104.221H720M801.827 92.2958L800.822 88.7608L800.623 88.0648L800.427 87.3718L800.23 86.6818M801.827 92.2958H842.742M805.221 104.221H847.831M845.235 98.1368L843.664 94.4588L843.356 93.7328L843.047 93.0128L842.742 92.2958M845.235 98.1368L847.501 103.446L847.831 104.221M845.235 98.1368H886.979M720 92.2958V86.6818M760.115 86.6818H800.23M760.115 86.6818H720M760.115 86.6818L759.347 81.2838M800.23 86.6818L798.694 81.2828M800.23 86.6818H840.345M842.742 92.2958L841.532 89.4608L841.233 88.7608L840.936 88.0648L840.345 86.6818M842.742 92.2958H883.655M758.608 76.0878H797.216M758.608 76.0878L757.896 71.0848M758.608 76.0878H720M758.608 76.0878L759.347 81.2838M797.216 76.0878L797.398 76.7268L798.507 80.6228L798.694 81.2828M797.216 76.0878L795.792 71.0848M797.216 76.0878H835.824M757.896 71.0848H795.792M757.896 71.0848H720M757.896 71.0848L757.21 66.2618M720 76.0878V71.0848M720 76.0878V81.2828M759.347 81.2838L798.694 81.2828M759.347 81.2838L720 81.2828M798.694 81.2828H838.041M795.792 71.0848L795.271 69.2548L795.1 68.6508L794.928 68.0488L794.42 66.2618M795.792 71.0848H833.688M835.824 76.0878L833.688 71.0848M835.824 76.0878L836.371 77.3678L837.2 79.3128L838.041 81.2828M835.824 76.0878H874.432M720 71.0848V66.2628M757.21 66.2618H794.42M757.21 66.2618L720 66.2628M757.21 66.2618L756.548 61.6108M794.42 66.2618L794.252 65.6708L793.752 63.9148L793.587 63.3348L793.422 62.7568L793.259 62.1828L793.096 61.6098M794.42 66.2618H831.63M833.688 71.0848L831.63 66.2618M833.688 71.0848H871.584M791.819 57.1218H755.91L755.293 52.7868M755.293 52.7868L755.218 52.2558L755.142 51.7258L755.067 51.1998L754.697 48.5988M755.293 52.7868H790.585M755.293 52.7868H720M720 57.1208H755.91L756.548 61.6108M720 57.1208V52.7868M720 57.1208V61.6098M756.548 61.6108L793.096 61.6098M756.548 61.6108L720 61.6098M791.819 57.1208L791.662 56.5708L791.351 55.4778L791.197 54.9348L790.89 53.8568L790.738 53.3198L790.585 52.7868M791.819 57.1208L792.452 59.3458L792.612 59.9078L792.934 61.0398L793.096 61.6098M791.819 57.1208H827.728M790.585 52.7868H825.879M790.585 52.7868L790.284 51.7268L790.134 51.1998L789.985 50.6748L789.541 49.1148L789.394 48.5988M793.096 61.6098L829.645 61.6108M827.728 57.1208L826.335 53.8568L825.879 52.7868M827.728 57.1208L828.918 59.9078L829.645 61.6108M827.728 57.1208H863.638M754.697 48.5988H789.394M754.697 48.5988H720M720 52.7868V48.5988M825.879 52.7868H861.172M825.879 52.7868L824.532 49.6328L824.091 48.5988M789.394 48.5988H824.091M1204 485.107H1300.8M1204 485.107L1182.23 454.502M1204 485.107H1107.2M1204 485.107L1227.92 518.739M1300.8 485.107L1274.67 454.502M1300.8 485.107L1329.51 518.739M1300.8 485.107H1397.6M1182.23 454.502H1274.67M1182.23 454.502H1089.78M1182.23 454.502L1162.33 426.531M1107.2 485.107L1089.78 454.502M1107.2 485.107L1126.34 518.739M1227.92 518.739H1329.51M1227.92 518.739L1254.33 555.868M1227.92 518.739H1126.34M1274.67 454.502L1250.8 426.531M1274.67 454.502H1367.12M1329.51 518.739L1361.2 555.868M1329.51 518.739H1431.09M1397.6 485.107L1367.12 454.502M1397.6 485.107L1431.09 518.739M1397.6 485.107H1448.61M1089.78 454.502L1073.86 426.531M1162.33 426.531H1250.8M1162.33 426.531H1073.86M1162.33 426.531L1144.07 400.869M1250.8 426.531L1228.89 400.869M1250.8 426.531H1339.26M1367.12 454.502L1339.26 426.531M1367.12 454.502H1448.61M1127.27 377.241H1208.72M1127.27 377.241L1111.74 355.415M1127.27 377.241H1045.81M1127.27 377.241L1144.07 400.869M1208.72 377.241L1190.09 355.415M1208.72 377.241L1228.89 400.869M1208.72 377.241H1290.17M1111.74 355.415H1190.09M1111.74 355.415H1033.39M1111.74 355.415L1097.35 335.192M1045.81 377.241L1033.39 355.415M1045.81 377.241L1059.26 400.869M1144.07 400.869H1228.89M1144.07 400.869H1059.26M1190.09 355.415L1172.83 335.192M1190.09 355.415H1268.44M1228.89 400.869H1313.7M1290.17 377.241L1268.44 355.415M1290.17 377.241L1313.7 400.869M1290.17 377.241H1371.63M1033.39 355.415L1021.88 335.192M1097.35 335.192H1172.83M1097.35 335.192H1021.88M1097.35 335.192L1083.99 316.401M1172.83 335.192L1156.79 316.401M1172.83 335.192H1248.3M1268.44 355.415L1248.3 335.192M1268.44 355.415H1346.78M1071.54 298.896H1141.84M1071.54 298.896L1059.91 282.549M1071.54 298.896H1001.23M1071.54 298.896L1083.99 316.401M1141.84 298.896L1127.89 282.549M1141.84 298.896L1156.79 316.401M1141.84 298.896H1212.15M1059.91 282.549H1127.89M1059.91 282.549H991.925M1059.91 282.549L1049.02 267.25M1001.23 298.896L991.925 282.549M1001.23 298.896L1011.19 316.401M1083.99 316.401H1156.79M1083.99 316.401H1011.19M1127.89 282.549L1114.83 267.25M1127.89 282.549H1195.87M1156.79 316.401H1229.58M1212.15 298.896L1195.87 282.549M1212.15 298.896L1229.58 316.401M1212.15 298.896H1282.46M991.925 282.549L983.219 267.25M1049.02 267.25H1114.83M1049.02 267.25H983.219M1049.02 267.25L1038.82 252.899M1114.83 267.25L1102.58 252.899M1114.83 267.25H1180.63M1195.87 282.549L1180.63 267.25M1195.87 282.549H1263.85M1029.22 239.412H1091.07M1029.22 239.412L1020.19 226.713M1029.22 239.412H967.377M1029.22 239.412L1038.82 252.899M1091.07 239.412L1080.23 226.713M1091.07 239.412L1102.58 252.899M1091.07 239.412H1152.91M1020.19 226.713H1080.23M1020.19 226.713H960.15M1020.19 226.713L1011.67 214.735M967.377 239.412L960.15 226.713M967.377 239.412L975.052 252.899M1038.82 252.899H1102.58M1038.82 252.899H975.052M1080.23 226.713L1070 214.735M1080.23 226.713H1140.26M1102.58 252.899H1166.34M1152.91 239.412L1140.26 226.713M1152.91 239.412L1166.34 252.899M1152.91 239.412H1214.75M960.15 226.713L953.334 214.735M1011.67 214.735H1070M1011.67 214.735H953.334M1011.67 214.735L1003.62 203.419M1070 214.735L1060.34 203.419M1070 214.735H1128.33M1140.26 226.713L1128.33 214.735M1140.26 226.713H1200.3M995.999 192.709H1051.2M995.999 192.709L988.78 182.561M995.999 192.709H940.799M995.999 192.709L1003.62 203.419M1051.2 192.709L1042.54 182.561M1051.2 192.709L1060.34 203.419M1051.2 192.709H1106.4M988.78 182.561H1042.54M988.78 182.561H935.023M988.78 182.561L981.928 172.929M940.799 192.709L939.326 190.122L935.023 182.561M940.799 192.709L946.894 203.419M1003.62 203.419H1060.34M1003.62 203.419H946.894M1042.54 182.561L1034.31 172.929M1042.54 182.561H1096.29M1060.34 203.419H1117.06M1106.4 192.709L1096.29 182.561M1106.4 192.709L1117.06 203.419M1106.4 192.709H1161.6M935.023 182.561L929.543 172.929M981.928 172.929H1034.31M981.928 172.929H929.543M981.928 172.929L975.418 163.777M1034.31 172.929L1026.5 163.777M1034.31 172.929H1086.7M1096.29 182.561L1086.7 172.929M1096.29 182.561H1150.05M969.223 155.068H1019.07M969.223 155.068L963.321 146.773M969.223 155.068H919.378M969.223 155.068L975.418 163.777M1019.07 155.068L1011.99 146.773M1019.07 155.068L1026.5 163.777M1019.07 155.068H1068.91M963.321 146.773H1011.99M963.321 146.773H914.657M963.321 146.773L957.693 138.86M919.378 155.068L914.657 146.773M919.378 155.068L924.334 163.777M975.418 163.777H1026.5M975.418 163.777H924.334M1011.99 146.773L1005.23 138.86M1011.99 146.773H1060.65M1026.5 163.777H1077.58M1068.91 155.068L1060.65 146.773M1068.91 155.068L1077.58 163.777M1068.91 155.068H1118.76M914.657 146.773L910.154 138.86M957.693 138.86H1005.23M957.693 138.86H910.154M957.693 138.86L952.319 131.306M1005.23 138.86L998.783 131.306M1005.23 138.86H1052.77M1060.65 146.773L1052.77 138.86M1060.65 146.773H1109.31M947.183 124.085L947.812 124.97L948.446 125.86L952.319 131.306M947.183 124.085H992.619M947.183 124.085L942.269 117.177M947.183 124.085H901.747M952.319 131.306H998.783M952.319 131.306H905.856M992.619 124.085L986.723 117.177M992.619 124.085L998.783 131.306M992.619 124.085H1038.06M942.269 117.177H986.723M942.269 117.177H897.815M942.269 117.177L937.563 110.562M901.747 124.085L897.815 117.177M901.747 124.085L903.778 127.655L905.856 131.306M986.723 117.177L981.075 110.562M986.723 117.177H1031.18M998.783 131.306H1045.25M1038.06 124.085L1031.18 117.177M1038.06 124.085L1045.25 131.306M1038.06 124.085H1083.49M897.815 117.177L894.05 110.562M937.563 110.562H981.075M937.563 110.562H894.05M937.563 110.562L936.417 108.952L933.052 104.221M981.075 110.562L979.018 108.153L978.341 107.358L975.662 104.221M981.075 110.562H1024.59M1031.18 117.177L1024.59 110.562M1031.18 117.177H1075.63M928.724 98.1368H970.47M928.724 98.1368L924.569 92.2958M928.724 98.1368H886.979M928.724 98.1368L933.052 104.221M970.47 98.1368L967.329 94.4588L965.483 92.2958M970.47 98.1368L975.662 104.221M970.47 98.1368H1012.21M924.569 92.2958H965.483M924.569 92.2958H883.655M924.569 92.2958L921.067 87.3718L920.576 86.6818M886.979 98.1368L884.474 93.7338L883.655 92.2958M886.979 98.1368L888.261 100.389L890.442 104.221M933.052 104.221H975.662M933.052 104.221H890.442M965.483 92.2958L960.691 86.6818M965.483 92.2958H1006.4M975.662 104.221H1018.27M1012.21 98.1368L1006.4 92.2958M1012.21 98.1368L1018.27 104.221M1012.21 98.1368H1053.96M883.655 92.2958L880.461 86.6818M920.576 86.6818H960.691M920.576 86.6818H880.461M920.576 86.6818L916.735 81.2838M960.691 86.6818L956.082 81.2828M960.691 86.6818H1000.81M1006.4 92.2958L1002.88 88.7608L1002.18 88.0648L1000.81 86.6818M1006.4 92.2958H1047.31M913.04 76.0878H951.648M913.04 76.0878L912.138 74.8188L909.48 71.0848M913.04 76.0878H874.432M913.04 76.0878L913.951 77.3678L915.799 79.9658L916.735 81.2838M951.648 76.0878L947.376 71.0848M951.648 76.0878L953.291 78.0138L954.4 79.3128L956.082 81.2828M951.648 76.0878H990.256M909.48 71.0848H947.376M909.48 71.0848H871.584M909.48 71.0848L906.895 67.4498L906.049 66.2618M874.432 76.0878L871.934 71.6988L871.584 71.0848M874.432 76.0878L874.795 76.7268L875.161 77.3678L875.527 78.0138L877.388 81.2828M916.735 81.2838L956.082 81.2828M916.735 81.2838L877.388 81.2828M947.376 71.0848L945.814 69.2548L944.785 68.0488L943.259 66.2618M947.376 71.0848H985.272M956.082 81.2828L995.43 81.2838M990.256 76.0878L985.272 71.0848M990.256 76.0878L993.466 79.3128L994.118 79.9658L995.43 81.2838M990.256 76.0878H1028.86M871.584 71.0848L868.839 66.2618M906.049 66.2618H943.259M906.049 66.2618H868.839M906.049 66.2618L902.741 61.6108M943.259 66.2618L941.256 63.9148L940.761 63.3348L939.289 61.6098M943.259 66.2618H980.47M985.272 71.0848L980.47 66.2618M985.272 71.0848H1023.17M935.458 57.1218H899.548L897.608 54.3948L896.464 52.7868M896.464 52.7868H931.757M896.464 52.7868L894.962 50.6748L894.221 49.6328L893.852 49.1148L893.485 48.5988M896.464 52.7868H861.172M863.638 57.1208H899.548L902.741 61.6108M863.638 57.1208L861.78 53.8568L861.172 52.7868M863.638 57.1208L866.193 61.6098M902.741 61.6108L939.289 61.6098M902.741 61.6108L866.193 61.6098M935.458 57.1208L932.67 53.8568L932.213 53.3198L931.757 52.7868M935.458 57.1208L937.357 59.3458L939.289 61.6098M935.458 57.1208H971.367M931.757 52.7868H967.05M931.757 52.7868L928.182 48.5988M939.289 61.6098H975.837M971.367 57.1208L968.115 53.8568L967.05 52.7868M971.367 57.1208L975.27 61.0408L975.837 61.6098M971.367 57.1208H1007.28M893.485 48.5988H928.182M893.485 48.5988H858.788M861.172 52.7868L859.969 50.6748L859.081 49.1148L858.788 48.5988M967.05 52.7868H1002.34M967.05 52.7868L962.879 48.5988M928.182 48.5988H962.879M1425.13 355.415H1346.78M1425.13 355.415L1399.24 335.192M1425.13 355.415H1448.61M1425.13 355.415L1448.61 373.748M1346.78 355.415L1323.77 335.192M1346.78 355.415L1371.63 377.241M1399.24 335.192L1375.18 316.401M1399.24 335.192H1323.77M1399.24 335.192H1448.61M1448.61 355.415V335.192M1448.61 355.415V373.748M1448.61 373.748V377.241M1352.76 298.896H1423.07M1352.76 298.896L1331.83 282.549M1352.76 298.896H1282.46M1352.76 298.896L1375.18 316.401M1423.07 298.896L1399.81 282.549M1423.07 298.896L1447.98 316.401M1423.07 298.896H1448.61M1331.83 282.549H1399.81M1331.83 282.549H1263.85M1331.83 282.549L1312.24 267.25M1282.46 298.896L1263.85 282.549M1282.46 298.896L1302.38 316.401M1375.18 316.401H1447.98M1375.18 316.401H1302.38M1399.81 282.549L1378.05 267.25M1399.81 282.549H1448.61M1447.98 316.401H1448.61M1447.98 316.401L1448.61 316.845M1448.61 298.896V282.549M1448.61 298.896V316.401M1263.85 282.549L1246.44 267.25M1312.24 267.25H1378.05M1312.24 267.25H1246.44M1312.24 267.25L1293.87 252.899M1378.05 267.25L1357.63 252.899M1378.05 267.25H1443.85M1448.61 282.549V270.289M1276.6 239.412H1338.44M1276.6 239.412L1260.34 226.713M1276.6 239.412H1214.75M1276.6 239.412L1293.87 252.899M1338.44 239.412L1320.38 226.713M1338.44 239.412L1357.63 252.899M1338.44 239.412H1400.29M1260.34 226.713H1320.38M1260.34 226.713H1200.3M1260.34 226.713L1245 214.735M1214.75 239.412L1200.3 226.713M1214.75 239.412L1230.1 252.899M1293.87 252.899H1357.63M1293.87 252.899H1230.1M1320.38 226.713L1303.33 214.735M1320.38 226.713H1380.41M1357.63 252.899H1421.39M1400.29 239.412L1380.41 226.713M1400.29 239.412L1421.39 252.899M1400.29 239.412H1448.61M1200.3 226.713L1186.67 214.735M1245 214.735H1303.33M1245 214.735H1186.67M1245 214.735L1230.51 203.419M1303.33 214.735L1287.23 203.419M1303.33 214.735H1361.67M1380.41 226.713L1361.67 214.735M1380.41 226.713H1440.45M1216.8 192.709H1272M1216.8 192.709L1203.8 182.561M1216.8 192.709H1161.6M1216.8 192.709L1230.51 203.419M1272 192.709L1257.56 182.561M1272 192.709L1287.23 203.419M1272 192.709H1327.2M1203.8 182.561H1257.56M1203.8 182.561H1150.05M1203.8 182.561L1191.47 172.929M1161.6 192.709L1150.05 182.561M1161.6 192.709L1173.79 203.419M1230.51 203.419H1287.23M1230.51 203.419H1173.79M1257.56 182.561L1243.86 172.929M1257.56 182.561H1311.32M1287.23 203.419H1343.96M1327.2 192.709L1311.32 182.561M1327.2 192.709L1343.96 203.419M1327.2 192.709H1382.4M1150.05 182.561L1139.09 172.929M1191.47 172.929H1243.86M1191.47 172.929H1139.09M1191.47 172.929L1179.75 163.777M1243.86 172.929L1230.84 163.777M1243.86 172.929H1296.24M1311.32 182.561L1296.24 172.929M1311.32 182.561H1365.07M1168.6 155.068H1218.45M1168.6 155.068L1157.98 146.773M1168.6 155.068H1118.76M1168.6 155.068L1179.75 163.777M1218.45 155.068L1206.64 146.773M1218.45 155.068L1230.84 163.777M1218.45 155.068H1268.29M1157.98 146.773H1206.64M1157.98 146.773H1109.31M1157.98 146.773L1147.85 138.86M1118.76 155.068L1109.31 146.773M1118.76 155.068L1128.67 163.777M1179.75 163.777H1230.84M1179.75 163.777H1128.67M1206.64 146.773L1195.39 138.86M1206.64 146.773H1255.31M1230.84 163.777H1281.92M1268.29 155.068L1255.31 146.773M1268.29 155.068L1281.92 163.777M1268.29 155.068H1318.14M1109.31 146.773L1100.31 138.86M1147.85 138.86H1195.39M1147.85 138.86H1100.31M1147.85 138.86L1138.17 131.306M1195.39 138.86L1184.64 131.306M1195.39 138.86H1242.92M1255.31 146.773L1242.92 138.86M1255.31 146.773H1303.97M1128.93 124.085H1174.37M1128.93 124.085L1120.08 117.177M1128.93 124.085H1083.49M1128.93 124.085L1138.17 131.306M1174.37 124.085L1164.54 117.177M1174.37 124.085L1184.64 131.306M1174.37 124.085H1219.8M1120.08 117.177H1164.54M1120.08 117.177H1075.63M1120.08 117.177L1111.61 110.562M1083.49 124.085L1075.63 117.177M1083.49 124.085L1091.71 131.306M1138.17 131.306H1184.64M1138.17 131.306H1091.71M1164.54 117.177L1155.13 110.562M1164.54 117.177H1208.99M1184.64 131.306H1231.1M1219.8 124.085L1208.99 117.177M1219.8 124.085L1231.1 131.306M1219.8 124.085H1265.24M1075.63 117.177L1068.1 110.562M1111.61 110.562H1155.13M1111.61 110.562H1068.1M1111.61 110.562L1103.49 104.221M1155.13 110.562L1146.1 104.221M1155.13 110.562H1198.64M1208.99 117.177L1198.64 110.562M1208.99 117.177H1253.44M1095.7 98.1368H1137.45M1095.7 98.1368L1088.22 92.2958M1095.7 98.1368H1053.96M1095.7 98.1368L1103.49 104.221M1137.45 98.1368L1129.14 92.2958M1137.45 98.1368L1146.1 104.221M1137.45 98.1368H1179.19M1088.22 92.2958H1129.14M1088.22 92.2958H1047.31M1088.22 92.2958L1081.04 86.6818M1053.96 98.1368L1047.31 92.2958M1053.96 98.1368L1060.88 104.221M1103.49 104.221H1146.1M1103.49 104.221H1060.88M1129.14 92.2958L1121.15 86.6818M1129.14 92.2958H1170.05M1146.1 104.221H1188.71M1179.19 98.1368L1170.05 92.2958M1179.19 98.1368L1188.71 104.221M1179.19 98.1368H1220.94M1047.31 92.2958L1040.92 86.6818M1081.04 86.6818H1121.15M1081.04 86.6818H1040.92M1081.04 86.6818L1074.12 81.2838M1121.15 86.6818L1114.41 81.9468L1113.47 81.2838M1121.15 86.6818H1161.27M1170.05 92.2958L1161.27 86.6818M1170.05 92.2958H1210.97M1067.47 76.0878H1106.08M1067.47 76.0878L1061.06 71.0848M1067.47 76.0878H1028.86M1067.47 76.0878L1069.11 77.3678L1069.94 78.0138L1074.12 81.2838M1106.08 76.0878L1098.96 71.0848M1106.08 76.0878L1113.47 81.2838M1106.08 76.0878H1144.69M1061.06 71.0848H1098.96M1061.06 71.0848H1023.17M1061.06 71.0848L1054.89 66.2618M1028.86 76.0878L1023.17 71.0848M1028.86 76.0878L1034.78 81.2828M1074.12 81.2838H1113.47M1074.12 81.2838L1034.78 81.2828M1098.96 71.0848L1092.1 66.2618M1098.96 71.0848H1136.86M1113.47 81.2838H1152.82M1144.69 76.0878L1136.86 71.0848M1144.69 76.0878L1152.82 81.2838M1144.69 76.0878H1183.3M1023.17 71.0848L1017.68 66.2618M1054.89 66.2618H1092.1M1054.89 66.2618H1017.68M1054.89 66.2618L1048.93 61.6108M1092.1 66.2618L1085.48 61.6108M1092.1 66.2618H1129.31M1136.86 71.0848L1129.31 66.2618M1136.86 71.0848H1174.75M1079.1 57.1218H1043.19L1037.64 52.7868M1037.64 52.7868H1072.93M1037.64 52.7868L1032.93 49.1148L1032.27 48.5988M1037.64 52.7868H1002.34M1007.28 57.1208H1043.19L1048.93 61.6108M1007.28 57.1208L1002.34 52.7868M1007.28 57.1208L1012.38 61.6098M1048.93 61.6108H1085.48M1048.93 61.6108L1012.38 61.6098M1079.1 57.1208L1074.45 53.8568L1073.69 53.3198L1072.93 52.7868M1079.1 57.1208L1085.48 61.6108M1079.1 57.1208H1115M1072.93 52.7868H1108.22M1072.93 52.7868L1066.97 48.5988M1085.48 61.6108L1122.03 61.6098M1115 57.1208L1108.22 52.7868M1115 57.1208L1122.03 61.6098M1115 57.1208H1150.91M1032.27 48.5988H1066.97M1032.27 48.5988H997.576M1002.34 52.7868L998.752 49.6328L997.576 48.5988M1108.22 52.7868H1143.51M1108.22 52.7868L1101.67 48.5988M1066.97 48.5988H1101.67M1437.6 192.709L1418.83 182.561M1437.6 192.709H1382.4M1437.6 192.709L1448.61 198.662M1437.6 192.709H1448.61M1418.83 182.561H1365.07M1418.83 182.561L1401.01 172.929M1418.83 182.561H1448.61M1382.4 192.709L1365.07 182.561M1382.4 192.709L1400.68 203.419M1448.61 198.662V192.709M1448.61 198.662V203.419M1448.61 192.709V182.561M1365.07 182.561L1348.63 172.929M1401.01 172.929L1384.09 163.777M1401.01 172.929H1348.63M1401.01 172.929H1448.61M1448.61 182.561V172.929M1367.98 155.068H1417.82M1367.98 155.068L1352.64 146.773M1367.98 155.068H1318.14M1367.98 155.068L1384.09 163.777M1417.82 155.068L1401.3 146.773M1417.82 155.068L1435.17 163.777M1417.82 155.068H1448.61M1352.64 146.773H1401.3M1352.64 146.773H1303.97M1352.64 146.773L1338 138.86M1318.14 155.068L1303.97 146.773M1318.14 155.068L1333 163.777M1384.09 163.777H1435.17M1384.09 163.777H1333M1401.3 146.773L1385.54 138.86M1401.3 146.773H1448.61M1435.17 163.777L1448.61 170.523M1435.17 163.777H1448.61M1448.61 155.068H1448.98M1448.61 155.068V146.773M1448.61 155.068V163.777M1303.97 146.773L1290.46 138.86M1338 138.86H1385.54M1338 138.86H1290.46M1338 138.86L1324.03 131.306M1385.54 138.86L1370.49 131.306M1385.54 138.86H1433.08M1448.61 146.773V146.137M1310.68 124.085H1356.11M1310.68 124.085L1297.9 117.177M1310.68 124.085H1265.24M1310.68 124.085L1324.03 131.306M1356.11 124.085L1342.35 117.177M1356.11 124.085L1370.49 131.306M1356.11 124.085H1401.55M1297.9 117.177H1342.35M1297.9 117.177H1253.44M1297.9 117.177L1285.66 110.562M1265.24 124.085L1253.44 117.177M1265.24 124.085L1277.57 131.306M1324.03 131.306H1370.49M1324.03 131.306H1277.57M1342.35 117.177L1329.18 110.562M1342.35 117.177H1386.81M1370.49 131.306H1416.96M1401.55 124.085L1386.81 117.177M1401.55 124.085L1416.96 131.306M1401.55 124.085H1446.98M1253.44 117.177L1242.15 110.562M1285.66 110.562H1329.18M1285.66 110.562H1242.15M1285.66 110.562L1273.93 104.221M1329.18 110.562L1316.55 104.221M1329.18 110.562H1372.69M1386.81 117.177L1372.69 110.562M1386.81 117.177H1431.26M1262.68 98.1368H1304.43M1262.68 98.1368L1251.88 92.2958M1262.68 98.1368H1220.94M1262.68 98.1368L1273.93 104.221M1304.43 98.1368L1292.79 92.2958M1304.43 98.1368L1316.55 104.221M1304.43 98.1368H1346.17M1251.88 92.2958H1292.79M1251.88 92.2958H1210.97M1251.88 92.2958L1241.5 86.6818M1220.94 98.1368L1210.97 92.2958M1220.94 98.1368L1231.32 104.221M1273.93 104.221H1316.55M1273.93 104.221H1231.32M1292.79 92.2958L1281.61 86.6818M1292.79 92.2958H1333.71M1316.55 104.221H1359.16M1346.17 98.1368L1333.71 92.2958M1346.17 98.1368L1359.16 104.221M1346.17 98.1368H1387.92M1210.97 92.2958L1201.38 86.6818M1241.5 86.6818H1281.61M1241.5 86.6818H1201.38M1241.5 86.6818L1231.51 81.2838M1281.61 86.6818L1270.86 81.2838M1281.61 86.6818H1321.73M1333.71 92.2958L1321.73 86.6818M1333.71 92.2958H1374.62M1221.9 76.0878H1260.51M1221.9 76.0878L1212.65 71.0848M1221.9 76.0878H1183.3M1221.9 76.0878L1231.51 81.2838M1260.51 76.0878L1250.54 71.0848M1260.51 76.0878L1270.86 81.2838M1260.51 76.0878H1299.12M1212.65 71.0848H1250.54M1212.65 71.0848H1174.75M1212.65 71.0848L1203.73 66.2618M1183.3 76.0878L1175.8 71.6988L1174.75 71.0848M1183.3 76.0878L1192.17 81.2828M1231.51 81.2838H1270.86M1231.51 81.2838L1192.17 81.2828M1250.54 71.0848L1240.94 66.2618M1250.54 71.0848H1288.44M1270.86 81.2838H1310.21M1299.12 76.0878L1288.44 71.0848M1299.12 76.0878L1310.21 81.2838M1299.12 76.0878H1337.73M1174.75 71.0848L1166.52 66.2618M1203.73 66.2618H1240.94M1203.73 66.2618H1166.52M1203.73 66.2618L1195.13 61.6108M1240.94 66.2618L1231.67 61.6108M1240.94 66.2618H1278.15M1288.44 71.0848L1278.15 66.2618M1288.44 71.0848H1326.34M1222.73 57.1218H1186.82L1178.81 52.7868M1178.81 52.7868H1214.1M1178.81 52.7868L1171.06 48.5988M1178.81 52.7868H1143.51M1150.91 57.1208H1186.82L1195.13 61.6108M1150.91 57.1208L1143.51 52.7868M1150.91 57.1208L1158.58 61.6098M1195.13 61.6108H1231.67M1195.13 61.6108L1158.58 61.6098M1222.73 57.1208L1214.1 52.7868M1222.73 57.1208L1231.67 61.6108M1222.73 57.1208H1258.64M1214.1 52.7868H1249.39M1214.1 52.7868L1205.76 48.5988M1231.67 61.6108L1268.22 61.6098M1258.64 57.1208L1249.39 52.7868M1258.64 57.1208L1268.22 61.6098M1258.64 57.1208H1294.55M1171.06 48.5988H1205.76M1171.06 48.5988H1136.36M1143.51 52.7868L1136.36 48.5988M1249.39 52.7868H1284.69M1249.39 52.7868L1240.45 48.5988M1205.76 48.5988H1240.45M1429.66 98.1368L1415.53 92.2958M1429.66 98.1368H1387.92M1429.66 98.1368L1444.38 104.221M1429.66 98.1368H1448.61M1415.53 92.2958H1374.62M1415.53 92.2958L1401.96 86.6818M1415.53 92.2958H1448.61M1387.92 98.1368L1374.62 92.2958M1387.92 98.1368L1401.77 104.221M1444.38 104.221H1401.77M1444.38 104.221H1448.61M1444.38 104.221L1448.61 105.97M1448.61 98.1368V92.2958M1448.61 98.1368V104.221M1374.62 92.2958L1361.84 86.6818M1401.96 86.6818H1442.07M1401.96 86.6818H1361.84M1401.96 86.6818L1388.9 81.2838M1448.61 92.2958V89.2338M1376.34 76.0878H1414.94M1376.34 76.0878L1364.23 71.0848M1376.34 76.0878H1337.73M1376.34 76.0878L1388.9 81.2838M1414.94 76.0878L1402.13 71.0848M1414.94 76.0878L1428.25 81.2838M1414.94 76.0878H1448.61M1364.23 71.0848H1402.13M1364.23 71.0848H1326.34M1364.23 71.0848L1352.57 66.2618M1337.73 76.0878L1326.34 71.0848M1337.73 76.0878L1349.55 81.2838M1388.9 81.2838H1428.25M1388.9 81.2838H1349.55M1402.13 71.0848L1389.78 66.2618M1402.13 71.0848H1440.02M1428.25 81.2838L1442.07 86.6818M1428.25 81.2838H1448.61M1448.61 76.0878H1448.73M1448.61 76.0878V74.2588M1448.61 76.0878V81.2838M1326.34 71.0848L1315.36 66.2618M1352.57 66.2618H1389.78M1352.57 66.2618H1315.36M1352.57 66.2618L1341.32 61.6108M1389.78 66.2618L1377.87 61.6108M1389.78 66.2618H1426.99M1440.02 71.0848L1426.99 66.2618M1440.02 71.0848L1448.61 74.2588M1440.02 71.0848H1448.61M1366.37 57.1218H1330.46L1319.98 52.7868M1319.98 52.7868H1355.27M1319.98 52.7868L1309.85 48.5988M1319.98 52.7868H1284.69M1294.55 57.1208H1330.46L1341.32 61.6108M1294.55 57.1208L1284.69 52.7868M1294.55 57.1208L1304.77 61.6098M1341.32 61.6108H1377.87M1341.32 61.6108L1304.77 61.6098M1366.37 57.1208L1355.27 52.7868M1366.37 57.1208L1377.87 61.6108M1366.37 57.1208H1402.28M1355.27 52.7868H1390.56M1355.27 52.7868L1344.55 48.5988M1377.87 61.6108L1414.42 61.6098M1402.28 57.1208L1390.56 52.7868M1402.28 57.1208L1414.42 61.6098M1402.28 57.1208H1438.19M1309.85 48.5988H1344.55M1309.85 48.5988H1275.15M1284.69 52.7868L1275.15 48.5988M1390.56 52.7868H1425.86M1390.56 52.7868L1379.24 48.5988M1344.55 48.5988H1379.24M1414.42 61.6098L1426.99 66.2618M1414.42 61.6098H1448.61M1438.19 57.1208L1425.86 52.7868M1438.19 57.1208L1448.61 60.7818M1425.86 52.7868L1413.94 48.5988M1425.86 52.7868H1448.61M1379.24 48.5988H1413.94M1379.24 48.5988L1368.3 44.5488M1426.99 66.2618H1448.61M1448.61 61.6098V60.7818M1448.61 61.6098V66.2618M1448.61 60.7818V57.1208V52.7868M1438.19 57.1218H1448.61M1413.94 48.5988L1402.42 44.5488M1413.94 48.5988H1448.61M1448.61 52.7868V48.5988M1448.61 48.5988H1448.64L1448.61 48.5898M1448.61 48.5988V48.5898M1448.61 74.2588V71.0848M1448.61 71.0848V66.2618M1315.36 66.2618L1304.77 61.6098M1315.36 66.2618H1278.15M1304.77 61.6098H1268.22M1442.07 86.6818L1448.61 89.2338M1442.07 86.6818H1448.61M1448.61 81.2838V86.6818M1448.61 89.2338V86.6818M1361.84 86.6818L1349.55 81.2838M1361.84 86.6818H1321.73M1349.55 81.2838H1310.21M1268.22 61.6098L1278.15 66.2618M1240.45 48.5988H1275.15M1275.15 48.5988L1265.94 44.5488M1166.52 66.2618L1158.58 61.6098M1166.52 66.2618H1129.31M1158.58 61.6098H1122.03M1310.21 81.2838L1321.73 86.6818M1201.38 86.6818L1192.17 81.2828M1201.38 86.6818H1161.27M1192.17 81.2828L1152.82 81.2838M1359.16 104.221L1372.69 110.562M1359.16 104.221H1401.77M1401.77 104.221L1416.2 110.562M1372.69 110.562H1416.2M1416.2 110.562L1431.26 117.177M1416.2 110.562H1448.61M1448.61 104.221V105.97M1448.61 105.97V110.562M1431.26 117.177L1446.98 124.085M1431.26 117.177H1448.61M1242.15 110.562L1231.32 104.221M1242.15 110.562H1198.64M1448.61 110.562H1448.84M1448.61 110.562V117.177M1231.32 104.221H1188.71M1416.96 131.306L1433.08 138.86M1416.96 131.306H1448.61M1446.98 124.085L1448.61 124.798M1446.98 124.085H1448.61M1448.61 117.177V124.085M1448.61 124.798L1449 124.97M1448.61 124.798V124.085M1448.61 124.798V131.306M1433.08 138.86H1448.61M1433.08 138.86L1448.61 146.137M1448.61 131.306V138.86M1448.61 138.86V146.137M1290.46 138.86L1277.57 131.306M1290.46 138.86H1242.92M1277.57 131.306H1231.1M1448.61 170.523L1448.76 170.598M1448.61 170.523V163.777M1448.61 170.523V172.929M1333 163.777H1281.92M1333 163.777L1348.63 172.929M1122.03 61.6098L1129.31 66.2618M1101.67 48.5988H1136.36M1101.67 48.5988L1095.33 44.5488M1136.36 48.5988L1135.49 48.0848L1133.74 47.0648L1129.45 44.5498M1129.45 44.5498L1095.33 44.5508M1017.68 66.2618L1012.38 61.6098M1017.68 66.2618H980.47M1012.38 61.6098H975.837M1152.82 81.2838L1161.27 86.6818M1040.92 86.6818L1034.78 81.2828M1040.92 86.6818H1000.81M1034.78 81.2828L995.43 81.2838M1188.71 104.221L1198.64 110.562M1068.1 110.562L1060.88 104.221M1068.1 110.562H1024.59M1060.88 104.221H1018.27M1231.1 131.306L1242.92 138.86M1100.31 138.86L1091.71 131.306M1100.31 138.86H1052.77M1091.71 131.306H1045.25M1281.92 163.777L1296.24 172.929M1296.24 172.929H1348.63M1139.09 172.929L1128.67 163.777M1139.09 172.929H1086.7M1128.67 163.777H1077.58M1343.96 203.419L1361.67 214.735M1343.96 203.419H1400.68M1400.68 203.419L1420 214.735M1400.68 203.419H1448.61M1361.67 214.735H1420M1420 214.735L1440.45 226.713M1420 214.735H1448.61M1448.61 203.419V214.735M1440.45 226.713H1448.61M1440.45 226.713L1448.61 231.491M1186.67 214.735L1173.79 203.419M1186.67 214.735H1128.33M1448.61 214.735V226.713M1173.79 203.419H1117.06M1421.39 252.899L1443.85 267.25M1421.39 252.899H1448.61M1448.61 239.412V231.491M1448.61 239.412V252.899M1448.61 226.713V231.491M1443.85 267.25L1448.61 270.289M1443.85 267.25H1448.61M1448.61 252.899V267.25M1448.61 270.289V267.25M1246.44 267.25L1230.1 252.899M1246.44 267.25H1180.63M1230.1 252.899H1166.34M1448.61 316.401V316.845M1448.61 316.845V335.192M1302.38 316.401H1229.58M1302.38 316.401L1323.77 335.192M975.837 61.6098L976.98 62.7568L980.47 66.2618M962.879 48.5988H997.576M962.879 48.5988L958.847 44.5488M997.576 48.5988L995.83 47.0648L992.967 44.5498M992.967 44.5498L958.847 44.5508M868.839 66.2618L868.169 65.0828L866.193 61.6098M868.839 66.2618H831.63M866.193 61.6098L829.645 61.6108M995.43 81.2838L1000.81 86.6818M880.461 86.6818L880.071 85.9958L879.681 85.3128L877.388 81.2828M880.461 86.6818H840.345M877.388 81.2828H838.041M1018.27 104.221L1024.59 110.562M894.05 110.562L890.442 104.221M894.05 110.562H850.538M890.442 104.221H847.831M1045.25 131.306L1052.77 138.86M910.154 138.86L905.856 131.306M910.154 138.86H862.616M905.856 131.306H859.392M1077.58 163.777L1086.7 172.929M929.543 172.929L924.334 163.777M929.543 172.929H877.157M924.334 163.777H873.25M1117.06 203.419L1128.33 214.735M953.334 214.735L946.894 203.419M953.334 214.735H895M946.894 203.419H890.17M1166.34 252.899L1180.63 267.25M983.219 267.25L975.052 252.899M983.219 267.25H917.414M975.052 252.899H911.289M1229.58 316.401L1248.3 335.192M1248.3 335.192H1323.77M1021.88 335.192L1011.19 316.401M1021.88 335.192H946.413M1011.19 316.401H938.393M1313.7 400.869L1339.26 426.531M1313.7 400.869H1398.52M1371.63 377.241L1398.52 400.869M1371.63 377.241H1448.61M1398.52 400.869L1427.73 426.531M1398.52 400.869H1448.61M1448.61 377.241V400.869M1339.26 426.531H1427.73M1427.73 426.531H1448.61M1427.73 426.531L1448.61 444.877M1448.61 400.869V426.531M1448.61 454.502V444.877M1448.61 454.502V485.107M1073.86 426.531L1059.26 400.869M1073.86 426.531H985.398M1448.61 426.531V444.877M1059.26 400.869H974.445M1431.09 518.739L1448.61 536.329M1431.09 518.739H1448.61M1448.61 485.107V518.739M1361.2 555.868H1254.33M1361.2 555.868H1448.61M1448.61 536.329V518.739M1448.61 536.329V555.868M1254.33 555.868H1147.47M1448.61 555.868V556H-8.608V555.868M1147.47 555.868L1126.34 518.739M1147.47 555.868H1040.6M1126.34 518.739H1024.75M829.645 61.6108L829.888 62.1828L830.134 62.7568L830.38 63.3348L830.628 63.9148L831.63 66.2618M824.091 48.5988L823.872 48.0848L823.436 47.0648L823.004 46.0518L822.79 45.5488L822.362 44.5488M824.091 48.5988H858.788M858.788 48.5988L856.768 45.0488L856.483 44.5488M720 66.2628V61.6098M720 66.2628L682.79 66.2618M720 61.6098L683.452 61.6108M838.041 81.2828L840.345 86.6818M720 86.6818V81.2828M720 86.6818H679.885M720 81.2828L680.653 81.2838M847.831 104.221L850.538 110.562M720 110.562V104.221M720 110.562H676.488M720 104.221H677.389M859.392 131.306L862.616 138.86M720 138.86V131.306M720 138.86H672.461M720 131.306H673.536M873.25 163.777L877.157 172.929M720 172.929V163.777M720 172.929H667.615M720 163.777H668.916M890.17 203.419L895 214.735M720 214.735V203.419M720 214.735H661.667M720 203.419H663.276M911.289 252.899L917.414 267.25M720 267.25V252.899M720 267.25H654.195M720 252.899H656.237M938.393 316.401L946.413 335.192M720 335.192V316.401M720 335.192H644.529M720 316.401H647.202M974.445 400.869L985.398 426.531M720 426.531V400.869M720 426.531H631.534M720 400.869H635.185M1024.75 518.739L1040.6 555.868M933.733 555.868H1040.6M933.733 555.868H826.867M826.867 555.868H720M720 555.868V518.739M720 555.868H613.133M720 518.739H618.415M683.452 61.6108L683.37 62.1828L683.289 62.7568L683.206 63.3348L682.79 66.2618M685.303 48.5988H720M685.303 48.5988L685.521 47.0648L685.594 46.5568L685.879 44.5498M720 48.5988V44.5488M685.879 44.5498L720 44.5508M571.161 66.2618L571.831 65.0828L573.807 61.6098M571.161 66.2618H533.951M573.807 61.6098H537.259M680.653 81.2838L679.885 86.6818M559.539 86.6818L562.612 81.2828M559.539 86.6818H519.424M562.612 81.2828L523.265 81.2838M677.389 104.221L677.168 105.781L676.717 108.952L676.488 110.562M545.95 110.562L549.558 104.221M545.95 110.562H502.437M549.558 104.221H506.948M673.536 131.306L672.461 138.86M529.846 138.86L534.144 131.306M529.846 138.86H482.307M534.144 131.306H487.681M668.916 163.777L667.615 172.929M510.457 172.929L515.666 163.777M510.457 172.929H458.072M515.666 163.777H464.582M663.276 203.419L661.667 214.735M486.666 214.735L493.106 203.419M486.666 214.735H428.333M493.106 203.419H436.383M656.237 252.899L654.195 267.25M456.781 267.25L464.948 252.899M456.781 267.25H390.977M464.948 252.899H401.185M647.202 316.401L644.529 335.192M418.117 335.192L428.81 316.401M418.117 335.192H342.646M428.81 316.401H356.013M635.185 400.869L631.534 426.531M366.137 426.531L380.741 400.869M366.137 426.531H277.671M380.741 400.869H295.925M618.415 518.739L613.133 555.868M506.267 555.868H613.133M506.267 555.868H399.4M399.4 555.868H292.533M292.533 555.868L313.662 518.739M292.533 555.868H185.667M313.662 518.739H212.079M537.259 61.6098L533.951 66.2618M546.515 48.5988H581.212M546.515 48.5988L548.684 45.5488L549.395 44.5488M581.212 48.5988L581.504 48.0848L582.085 47.0648L583.516 44.5498M583.516 44.5498L549.395 44.5508M422.321 66.2618L427.614 61.6098M422.321 66.2618H385.111M427.614 61.6098H391.066M523.265 81.2838L519.424 86.6818M399.079 86.6818L404.468 81.9468L405.223 81.2828M399.079 86.6818H358.964M405.223 81.2828L365.875 81.2838M506.948 104.221L502.437 110.562M371.899 110.562L379.117 104.221M371.899 110.562H328.387M379.117 104.221H336.506M487.681 131.306L482.307 138.86M339.691 138.86L348.289 131.306M339.691 138.86H292.153M348.289 131.306H301.826M464.582 163.777L458.072 172.929M300.915 172.929L311.332 163.777M300.915 172.929H248.529M311.332 163.777H260.248M436.383 203.419L428.333 214.735M253.333 214.735L266.213 203.419M253.333 214.735H195M266.213 203.419H209.49M401.185 252.899L390.977 267.25M193.563 267.25L209.896 252.899M209.896 252.899H146.133M356.013 316.401L342.646 335.192M116.233 335.192L137.619 316.401M116.233 335.192H40.762M137.619 316.401H64.822M295.925 400.869L277.671 426.531M12.273 426.531L41.481 400.869M12.273 426.531H-8.607M12.273 426.531L-8.607 444.877M41.481 400.869H-8.608M212.079 518.739L185.667 555.868M78.799 555.868H185.667M78.799 555.868H-8.608M-8.608 555.868L-8.607 536.329M-8.607 536.329L-8.608 518.739M391.066 61.6098L385.111 66.2618M407.727 48.5988L408.384 48.0848L412.912 44.5498M407.727 48.5988H442.424M442.424 48.5988L444.17 47.0648L447.033 44.5498M412.912 44.5498H447.033M273.481 66.2618H236.27M365.875 81.2838L358.964 86.6818M238.618 86.6818L247.834 81.2828M238.618 86.6818H198.503M247.834 81.2828L208.487 81.2838M336.506 104.221L328.387 110.562M197.849 110.562L208.675 104.221M197.849 110.562H154.337M208.675 104.221H166.065M301.826 131.306L292.153 138.86M149.537 138.86L162.434 131.306M149.537 138.86H101.998M162.434 131.306H115.97M260.248 163.777L248.529 172.929M91.372 172.929L106.997 163.777M91.372 172.929H38.986M106.997 163.777H55.914M209.49 203.419L195 214.735M19.999 214.735L39.32 203.419M19.999 214.735H-8.608M39.32 203.419H-8.608M146.133 252.899L127.758 267.25M127.758 267.25H193.562M-8.608 267.25H-3.851L-8.608 270.289M-8.608 267.25V270.289M-8.608 267.25V252.899M64.822 316.401L40.762 335.192M-8.608 316.401V316.845M-8.608 316.845V335.192M40.762 335.192L14.867 355.415M40.762 335.192H-8.608M14.867 355.415H-8.608M14.867 355.415L-8.608 373.748M-8.608 355.415V373.748M-8.608 355.415V335.192M-8.608 373.748V377.241M-8.608 377.241V400.869M-8.608 400.869L-8.607 426.531M-8.607 426.531V444.877M208.324 61.6098L199.06 66.2618M208.324 61.6098H244.873M208.324 61.6098H171.776M244.873 61.6098L253.175 57.1208M244.873 61.6098L236.27 66.2618M244.873 61.6098H281.421L289.085 57.1208M253.175 57.1208L261.192 52.7868M253.175 57.1208H289.085M261.192 52.7868L268.938 48.5988M268.938 48.5988H234.241M268.938 48.5988L269.887 48.0848L276.426 44.5498M268.938 48.5988H303.635M234.241 48.5988L242.306 44.5488M303.635 48.5988L304.512 48.0848L310.548 44.5498M310.548 44.5498L276.427 44.5508M124.642 66.2618L87.432 66.2628M208.487 81.2838L198.503 86.6818M78.157 86.6818L90.447 81.2838H51.099M78.157 86.6818H38.042M166.065 104.221L154.337 110.562M23.799 110.562L38.235 104.221M23.799 110.562H-8.608M38.235 104.221H-4.375M115.97 131.306L101.998 138.86M-8.607 131.306L-8.608 124.798M55.914 163.777L38.986 172.929M-8.608 163.777V170.523M-8.608 170.523L-8.756 170.598M-8.608 170.523V172.929M38.986 172.929L21.172 182.561M38.986 172.929H-8.608M21.172 182.561L2.403 192.709M21.172 182.561H-8.607M2.403 192.709H-8.608M2.403 192.709L-8.608 198.662M-8.607 182.561L-8.608 192.709M-8.607 182.561L-8.608 172.929M-8.608 192.709V198.662M-8.608 198.662V203.419M-8.608 203.419V214.735M-8.608 226.713V231.491M-8.608 226.713V214.735M62.133 61.6098L50.223 66.2618M62.133 61.6098H98.681M98.681 61.6098L109.538 57.1208M98.681 61.6098L87.431 66.2618M98.681 61.6098H135.228M130.15 48.5988H95.453M130.15 48.5988H164.846M130.15 48.5988L139.943 44.5488M135.228 61.6098L124.641 66.2618M164.846 48.5988L174.064 44.5488M87.432 66.2628H50.222H13.012M87.432 66.2628L75.767 71.0858M13.012 66.2628L25.585 61.6108L-8.608 61.6098M13.012 66.2628H-8.608M-8.608 66.2628V61.6098M-8.608 61.6098V60.7818V57.1218V52.7858M51.099 81.2838L38.042 86.6818M-2.073 86.6818H38.042M-2.073 86.6818L-8.608 89.2338M-2.073 86.6818H-8.608M-8.608 81.2838V86.6818M38.042 86.6818L24.467 92.2958M24.467 92.2958L10.339 98.1368M24.467 92.2958H-8.608M10.339 98.1368L-4.375 104.221M10.339 98.1368H-8.608M-8.608 92.2958V98.1368M-8.608 92.2958V89.2338M-8.608 89.2338V86.6818M-4.375 104.221L-8.608 105.97M-4.375 104.221H-8.608M-8.608 98.1368V104.221M-8.608 105.97V110.562M-8.608 105.97V104.221M-8.608 117.177V124.085M-8.608 117.177V110.562M-8.608 110.562H-8.835M-8.608 124.085V124.798M-8.608 124.798L-9 124.97M-8.608 52.7858V48.5998M60.757 48.5998H26.06M26.06 48.5998L37.58 44.5498M26.06 48.5998H-8.608M37.58 44.5498H3.46M-8.608 48.5998L-8.638 48.5988L-8.608 48.5898M-8.608 48.5998V48.5898M1368.3 44.5508H1402.42M856.483 44.5508H822.362M174.065 44.5508H139.944M15.161 40.6338L3.46 44.5498M3.46 44.5498L-8.608 48.5898M3.46 44.5498H-8.608M-8.608 48.5898V44.5498M1448.61 48.5898V44.5498" stroke="url(#paint0_linear_144_507)" stroke-width="1.012" stroke-miterlimit="10" stroke-linecap="round" stroke-linejoin="round"/>
</g>
</g>
</g>
<defs>
<linearGradient id="paint0_linear_144_507" x1="720" y1="36.8418" x2="720" y2="400.836" gradientUnits="userSpaceOnUse">
<stop stop-color="#0058DD" stop-opacity="0"/>
<stop offset="1" stop-color="#0058DD" stop-opacity="0.6"/>
</linearGradient>
<clipPath id="clip0_144_507">
<rect width="1440" height="192" fill="white"/>
</clipPath>
<clipPath id="clip1_144_507">
<rect width="1440" height="192" fill="white"/>
</clipPath>
<clipPath id="clip2_144_507">
<rect width="1440" height="192" fill="white"/>
</clipPath>
</defs>
</svg>
