<svg width="24" height="22" viewBox="0 0 24 22" fill="none" xmlns="http://www.w3.org/2000/svg">
<path fill-rule="evenodd" clip-rule="evenodd" d="M7.41706 5.04599C6.55002 5.90049 5.88736 6.93992 5.47861 8.08658C5.06986 9.23324 4.92561 10.4575 5.05662 11.6677C5.09449 12.0265 4.98826 12.3857 4.76132 12.6662C4.53437 12.9467 4.2053 13.1255 3.84649 13.1634C3.48768 13.2013 3.12852 13.095 2.84803 12.8681C2.56753 12.6412 2.38868 12.3121 2.35082 11.9533C2.17716 10.3366 2.3709 8.70159 2.9176 7.17029C3.46429 5.63898 4.3498 4.25094 5.50804 3.10978C9.77206 -1.09441 16.644 -1.02371 20.8577 3.24847C25.0714 7.52065 25.0469 14.3953 20.7843 18.5995C18.8111 20.5497 16.1614 21.6631 13.3875 21.7078C12.3392 21.7266 11.2936 21.5938 10.2833 21.3134C10.1072 21.2695 9.94174 21.1908 9.79657 21.0819C9.65139 20.9731 9.52948 20.8362 9.43802 20.6795C9.34655 20.5228 9.28739 20.3493 9.26401 20.1694C9.24063 19.9894 9.25351 19.8066 9.30188 19.6317C9.35026 19.4568 9.43315 19.2933 9.54569 19.151C9.65822 19.0086 9.79811 18.8902 9.95711 18.8028C10.1161 18.7153 10.291 18.6606 10.4715 18.6418C10.652 18.623 10.8344 18.6405 11.008 18.6933C11.7666 18.9036 12.5515 19.003 13.3386 18.9884C15.4145 18.9562 17.3977 18.1232 18.8739 16.6633C22.0597 13.5224 22.0896 8.37046 18.9215 5.15885C15.7534 1.94724 10.6015 1.90509 7.41706 5.04599Z" fill="#8B5CF6"/>
<path fill-rule="evenodd" clip-rule="evenodd" d="M4.71424 13.0544C4.59551 13.1878 4.45167 13.2965 4.29092 13.3743C4.13017 13.4521 3.95567 13.4974 3.77739 13.5078C3.5991 13.5182 3.42053 13.4933 3.25185 13.4346C3.08318 13.3759 2.92772 13.2846 2.79435 13.1659L0.455661 11.0855C0.186281 10.8457 0.0231988 10.5087 0.0022894 10.1487C-0.01862 9.78861 0.104356 9.435 0.344165 9.16562C0.583974 8.89624 0.920972 8.73316 1.28102 8.71225C1.64107 8.69134 1.99468 8.81432 2.26406 9.05413L4.60275 11.1345C4.73615 11.2532 4.84485 11.397 4.92266 11.5578C5.00046 11.7185 5.04583 11.893 5.05618 12.0713C5.06654 12.2496 5.04167 12.4282 4.983 12.5969C4.92433 12.7655 4.833 12.921 4.71424 13.0544Z" fill="#8B5CF6"/>
<path fill-rule="evenodd" clip-rule="evenodd" d="M2.61178 12.9256C2.71892 13.0684 2.85314 13.1888 3.00679 13.2798C3.16043 13.3707 3.33049 13.4306 3.50725 13.4558C3.68402 13.4811 3.86402 13.4713 4.037 13.4269C4.20997 13.3826 4.37252 13.3047 4.51536 13.1975L7.23477 11.158C7.52326 10.9416 7.71398 10.6195 7.76498 10.2625C7.81598 9.90553 7.72307 9.5429 7.5067 9.25441C7.29034 8.96592 6.96823 8.77519 6.61124 8.7242C6.25425 8.6732 5.89162 8.7661 5.60312 8.98247L2.88372 11.022C2.74088 11.1292 2.62053 11.2634 2.52956 11.417C2.43858 11.5707 2.37876 11.7407 2.35351 11.9175C2.32826 12.0943 2.33807 12.2743 2.38238 12.4472C2.4267 12.6202 2.50465 12.7828 2.61178 12.9256ZM12.9183 5.31128C13.2789 5.31128 13.6248 5.45453 13.8798 5.70953C14.1348 5.96452 14.278 6.31036 14.278 6.67098V11.4299C14.278 11.7905 14.1348 12.1364 13.8798 12.3914C13.6248 12.6464 13.2789 12.7896 12.9183 12.7896C12.5577 12.7896 12.2119 12.6464 11.9569 12.3914C11.7019 12.1364 11.5586 11.7905 11.5586 11.4299V6.67098C11.5586 6.31036 11.7019 5.96452 11.9569 5.70953C12.2119 5.45453 12.5577 5.31128 12.9183 5.31128Z" fill="#8B5CF6"/>
<path fill-rule="evenodd" clip-rule="evenodd" d="M18.3551 11.43C18.3551 11.7906 18.2119 12.1365 17.9569 12.3915C17.7019 12.6465 17.3561 12.7897 16.9954 12.7897H12.9163C12.5557 12.7897 12.2099 12.6465 11.9549 12.3915C11.6999 12.1365 11.5566 11.7906 11.5566 11.43C11.5566 11.0694 11.6999 10.7236 11.9549 10.4686C12.2099 10.2136 12.5557 10.0703 12.9163 10.0703H16.9954C17.3561 10.0703 17.7019 10.2136 17.9569 10.4686C18.2119 10.7236 18.3551 11.0694 18.3551 11.43Z" fill="#8B5CF6"/>
</svg>
