<svg width="22" height="22" viewBox="0 0 22 22" fill="none" xmlns="http://www.w3.org/2000/svg">
<path d="M5.37778 20H9.28889C9.28889 21.1 8.40889 22 7.33333 22C6.25778 22 5.37778 21.1 5.37778 20ZM3.42222 19H11.2444V17H3.42222V19ZM14.6667 9.5C14.6667 13.32 12.0658 15.36 10.9804 16H3.68622C2.60089 15.36 0 13.32 0 9.5C0 5.36 3.28533 2 7.33333 2C11.3813 2 14.6667 5.36 14.6667 9.5ZM12.7111 9.5C12.7111 6.47 10.296 4 7.33333 4C4.37067 4 1.95556 6.47 1.95556 9.5C1.95556 11.97 3.41244 13.39 4.25333 14H10.4133C11.2542 13.39 12.7111 11.97 12.7111 9.5ZM19.4284 7.37L18.0889 8L19.4284 8.63L20.0444 10L20.6604 8.63L22 8L20.6604 7.37L20.0444 6L19.4284 7.37ZM17.1111 6L18.0302 3.94L20.0444 3L18.0302 2.06L17.1111 0L16.192 2.06L14.1778 3L16.192 3.94L17.1111 6Z" fill="#D97706"/>
</svg>
