<svg width="20" height="25" viewBox="0 0 20 25" fill="none" xmlns="http://www.w3.org/2000/svg">
<path d="M10 25C9.85417 25 9.71875 24.9895 9.59375 24.9684C9.46875 24.9473 9.34375 24.9156 9.21875 24.8734C6.40625 23.924 4.16667 22.1675 2.5 19.6038C0.833333 17.0401 0 14.2819 0 11.3291V5.3481C0 4.82067 0.15125 4.34599 0.45375 3.92405C0.75625 3.50211 1.14667 3.1962 1.625 3.00633L9.125 0.158228C9.41667 0.0527426 9.70833 0 10 0C10.2917 0 10.5833 0.0527426 10.875 0.158228L18.375 3.00633C18.8542 3.1962 19.245 3.50211 19.5475 3.92405C19.85 4.34599 20.0008 4.82067 20 5.3481V11.3291C20 14.2827 19.1667 17.0414 17.5 19.6051C15.8333 22.1688 13.5937 23.9249 10.7812 24.8734C10.6562 24.9156 10.5312 24.9473 10.4062 24.9684C10.2812 24.9895 10.1458 25 10 25ZM10 22.4684C12.1667 21.7722 13.9583 20.3797 15.375 18.2911C16.7917 16.2025 17.5 13.8819 17.5 11.3291V5.3481L10 2.5V22.4684Z" fill="#059669"/>
</svg>
