<svg width="24" height="22" viewBox="0 0 24 22" fill="none" xmlns="http://www.w3.org/2000/svg">
<path fill-rule="evenodd" clip-rule="evenodd" d="M7.41718 5.04599C6.55015 5.90049 5.88748 6.93992 5.47874 8.08658C5.06999 9.23324 4.92573 10.4575 5.05674 11.6677C5.09461 12.0265 4.98838 12.3857 4.76144 12.6662C4.5345 12.9467 4.20542 13.1255 3.84661 13.1634C3.4878 13.2013 3.12864 13.095 2.84815 12.8681C2.56766 12.6412 2.3888 12.3121 2.35094 11.9533C2.17728 10.3366 2.37102 8.70159 2.91772 7.17029C3.46441 5.63898 4.34993 4.25094 5.50816 3.10978C9.77218 -1.09441 16.6441 -1.02371 20.8578 3.24847C25.0715 7.52065 25.0471 14.3953 20.7844 18.5995C18.8112 20.5497 16.1616 21.6631 13.3876 21.7078C12.3393 21.7266 11.2938 21.5938 10.2834 21.3134C10.1074 21.2695 9.94186 21.1908 9.79669 21.0819C9.65151 20.9731 9.5296 20.8362 9.43814 20.6795C9.34668 20.5228 9.28751 20.3493 9.26413 20.1694C9.24075 19.9894 9.25363 19.8066 9.302 19.6317C9.35038 19.4568 9.43328 19.2933 9.54581 19.151C9.65834 19.0086 9.79823 18.8902 9.95723 18.8028C10.1162 18.7153 10.2911 18.6606 10.4716 18.6418C10.6521 18.623 10.8345 18.6405 11.0082 18.6933C11.7667 18.9036 12.5517 19.003 13.3387 18.9884C15.4146 18.9562 17.3978 18.1232 18.874 16.6633C22.0598 13.5224 22.0897 8.37046 18.9216 5.15885C15.7535 1.94724 10.6016 1.90509 7.41718 5.04599Z" fill="#004AAD"/>
<path fill-rule="evenodd" clip-rule="evenodd" d="M4.71424 13.0544C4.59551 13.1878 4.45167 13.2965 4.29092 13.3743C4.13017 13.4521 3.95567 13.4974 3.77739 13.5078C3.5991 13.5182 3.42053 13.4933 3.25185 13.4346C3.08318 13.3759 2.92772 13.2846 2.79435 13.1659L0.455661 11.0855C0.186281 10.8457 0.0231988 10.5087 0.0022894 10.1487C-0.01862 9.78861 0.104356 9.435 0.344165 9.16562C0.583974 8.89624 0.920972 8.73316 1.28102 8.71225C1.64107 8.69134 1.99468 8.81432 2.26406 9.05413L4.60275 11.1345C4.73615 11.2532 4.84485 11.397 4.92266 11.5578C5.00046 11.7185 5.04583 11.893 5.05618 12.0713C5.06654 12.2496 5.04167 12.4282 4.983 12.5969C4.92433 12.7655 4.833 12.921 4.71424 13.0544Z" fill="#004AAD"/>
<path fill-rule="evenodd" clip-rule="evenodd" d="M2.6116 12.9258C2.71874 13.0687 2.85296 13.189 3.0066 13.28C3.16025 13.371 3.33031 13.4308 3.50707 13.4561C3.68383 13.4813 3.86384 13.4715 4.03681 13.4272C4.20978 13.3829 4.37233 13.3049 4.51518 13.1978L7.23458 11.1582C7.52307 10.9419 7.7138 10.6198 7.7648 10.2628C7.81579 9.90577 7.72289 9.54315 7.50652 9.25465C7.29015 8.96616 6.96804 8.77544 6.61105 8.72444C6.25406 8.67344 5.89143 8.76635 5.60294 8.98271L2.88354 11.0223C2.74069 11.1294 2.62035 11.2636 2.52937 11.4173C2.4384 11.5709 2.37858 11.741 2.35333 11.9177C2.32807 12.0945 2.33789 12.2745 2.3822 12.4475C2.42652 12.6204 2.50447 12.783 2.6116 12.9258ZM12.9181 5.31152C13.2787 5.31152 13.6246 5.45478 13.8796 5.70977C14.1346 5.96476 14.2778 6.31061 14.2778 6.67122V11.4302C14.2778 11.7908 14.1346 12.1366 13.8796 12.3916C13.6246 12.6466 13.2787 12.7899 12.9181 12.7899C12.5575 12.7899 12.2117 12.6466 11.9567 12.3916C11.7017 12.1366 11.5584 11.7908 11.5584 11.4302V6.67122C11.5584 6.31061 11.7017 5.96476 11.9567 5.70977C12.2117 5.45478 12.5575 5.31152 12.9181 5.31152Z" fill="#004AAD"/>
<path fill-rule="evenodd" clip-rule="evenodd" d="M18.3551 11.43C18.3551 11.7906 18.2119 12.1365 17.9569 12.3915C17.7019 12.6465 17.3561 12.7897 16.9954 12.7897H12.9163C12.5557 12.7897 12.2099 12.6465 11.9549 12.3915C11.6999 12.1365 11.5566 11.7906 11.5566 11.43C11.5566 11.0694 11.6999 10.7236 11.9549 10.4686C12.2099 10.2136 12.5557 10.0703 12.9163 10.0703H16.9954C17.3561 10.0703 17.7019 10.2136 17.9569 10.4686C18.2119 10.7236 18.3551 11.0694 18.3551 11.43Z" fill="#004AAD"/>
</svg>
