<svg width="44" height="73" viewBox="0 0 44 73" fill="none" xmlns="http://www.w3.org/2000/svg">
<path opacity="0.3" d="M15.7667 0.628906C30.5507 0.628906 42.5333 6.47253 42.5333 13.6822C42.5333 20.8899 30.5496 26.9566 15.7667 26.9566C7.40667 26.9566 0.628571 24.3596 0.628571 21.156C0.628571 17.9523 7.40667 15.3553 15.7667 15.3553C30.5507 15.3553 42.5333 21.1979 42.5333 28.4076C42.5333 35.6152 30.5496 41.682 15.7667 41.682C7.40667 41.682 0.628571 39.0849 0.628571 35.8813C0.628571 32.6777 7.40667 30.0806 15.7667 30.0806C30.5496 30.0806 42.5333 35.9242 42.5333 43.1329C42.5333 50.3405 30.5496 56.4083 15.7667 56.4083C7.40667 56.4083 0.628571 53.8102 0.628571 50.6066C0.628571 47.403 7.40667 44.806 15.7667 44.806C30.5496 44.806 42.5333 50.6496 42.5333 57.8593C42.5333 65.0669 30.5496 71.1337 15.7667 71.1337C7.40667 71.1337 0.628571 68.5356 0.628571 65.334C0.628571 62.1304 7.40667 59.5323 15.7667 59.5323C30.5496 59.5323 42.5333 65.376 42.5333 72.5857" stroke="#004AAD" stroke-width="1.25714" stroke-linejoin="round"/>
</svg>
