<svg width="24" height="24" viewBox="0 0 24 24" fill="none" xmlns="http://www.w3.org/2000/svg">
<path d="M12 15.5V20.5" stroke="#636F85" stroke-width="1.5" stroke-linecap="round"/>
<path d="M5.98 3.28507C4.288 2.96307 3.442 2.80207 2.72 3.42007C2 4.03707 2 5.04007 2 7.04607V14.2551C2 16.0891 2 17.0061 2.463 17.5791C2.925 18.1511 3.943 18.3451 5.981 18.7331C7.796 19.0791 9.213 19.6291 10.239 20.1831C11.249 20.7281 11.753 21.0001 12 21.0001C12.247 21.0001 12.752 20.7281 13.76 20.1831C14.787 19.6301 16.204 19.0791 18.02 18.7331C20.056 18.3451 21.075 18.1511 21.537 17.5791C22 17.0061 22 16.0891 22 14.2551V7.04607C22 5.04007 22 4.03707 21.28 3.42007C20.558 2.80207 19.712 2.96307 18.02 3.28507" stroke="#636F85" stroke-width="1.5" stroke-linecap="round" stroke-linejoin="round"/>
<path d="M11.25 11C11.25 10.8011 11.171 10.6103 11.0303 10.4697C10.8897 10.329 10.6989 10.25 10.5 10.25C10.3011 10.25 10.1103 10.329 9.96967 10.4697C9.82902 10.6103 9.75 10.8011 9.75 11H11.25ZM9.75 13C9.75 13.1989 9.82902 13.3897 9.96967 13.5303C10.1103 13.671 10.3011 13.75 10.5 13.75C10.6989 13.75 10.8897 13.671 11.0303 13.5303C11.171 13.3897 11.25 13.1989 11.25 13H9.75ZM14.25 11C14.25 10.8011 14.171 10.6103 14.0303 10.4697C13.8897 10.329 13.6989 10.25 13.5 10.25C13.3011 10.25 13.1103 10.329 12.9697 10.4697C12.829 10.6103 12.75 10.8011 12.75 11H14.25ZM12.75 13C12.75 13.1989 12.829 13.3897 12.9697 13.5303C13.1103 13.671 13.3011 13.75 13.5 13.75C13.6989 13.75 13.8897 13.671 14.0303 13.5303C14.171 13.3897 14.25 13.1989 14.25 13H12.75ZM11.25 3C11.25 2.80109 11.171 2.61032 11.0303 2.46967C10.8897 2.32902 10.6989 2.25 10.5 2.25C10.3011 2.25 10.1103 2.32902 9.96967 2.46967C9.82902 2.61032 9.75 2.80109 9.75 3H11.25ZM9.75 5C9.75 5.19891 9.82902 5.38968 9.96967 5.53033C10.1103 5.67098 10.3011 5.75 10.5 5.75C10.6989 5.75 10.8897 5.67098 11.0303 5.53033C11.171 5.38968 11.25 5.19891 11.25 5H9.75ZM14.25 3C14.25 2.80109 14.171 2.61032 14.0303 2.46967C13.8897 2.32902 13.6989 2.25 13.5 2.25C13.3011 2.25 13.1103 2.32902 12.9697 2.46967C12.829 2.61032 12.75 2.80109 12.75 3H14.25ZM12.75 5C12.75 5.19891 12.829 5.38968 12.9697 5.53033C13.1103 5.67098 13.3011 5.75 13.5 5.75C13.6989 5.75 13.8897 5.67098 14.0303 5.53033C14.171 5.38968 14.25 5.19891 14.25 5H12.75ZM9 7.25C9.19891 7.25 9.38968 7.17098 9.53033 7.03033C9.67098 6.88968 9.75 6.69891 9.75 6.5C9.75 6.30109 9.67098 6.11032 9.53033 5.96967C9.38968 5.82902 9.19891 5.75 9 5.75V7.25ZM7 5.75C6.80109 5.75 6.61032 5.82902 6.46967 5.96967C6.32902 6.11032 6.25 6.30109 6.25 6.5C6.25 6.69891 6.32902 6.88968 6.46967 7.03033C6.61032 7.17098 6.80109 7.25 7 7.25V5.75ZM9 10.25C9.19891 10.25 9.38968 10.171 9.53033 10.0303C9.67098 9.88968 9.75 9.69891 9.75 9.5C9.75 9.30109 9.67098 9.11032 9.53033 8.96967C9.38968 8.82902 9.19891 8.75 9 8.75V10.25ZM7 8.75C6.80109 8.75 6.61032 8.82902 6.46967 8.96967C6.32902 9.11032 6.25 9.30109 6.25 9.5C6.25 9.69891 6.32902 9.88968 6.46967 10.0303C6.61032 10.171 6.80109 10.25 7 10.25V8.75ZM17 7.25C17.1989 7.25 17.3897 7.17098 17.5303 7.03033C17.671 6.88968 17.75 6.69891 17.75 6.5C17.75 6.30109 17.671 6.11032 17.5303 5.96967C17.3897 5.82902 17.1989 5.75 17 5.75V7.25ZM15 5.75C14.8011 5.75 14.6103 5.82902 14.4697 5.96967C14.329 6.11032 14.25 6.30109 14.25 6.5C14.25 6.69891 14.329 6.88968 14.4697 7.03033C14.6103 7.17098 14.8011 7.25 15 7.25V5.75ZM17 10.25C17.1989 10.25 17.3897 10.171 17.5303 10.0303C17.671 9.88968 17.75 9.69891 17.75 9.5C17.75 9.30109 17.671 9.11032 17.5303 8.96967C17.3897 8.82902 17.1989 8.75 17 8.75V10.25ZM15 8.75C14.8011 8.75 14.6103 8.82902 14.4697 8.96967C14.329 9.11032 14.25 9.30109 14.25 9.5C14.25 9.69891 14.329 9.88968 14.4697 10.0303C14.6103 10.171 14.8011 10.25 15 10.25V8.75ZM11 5.75H13V4.25H11V5.75ZM14.25 7V9H15.75V7H14.25ZM13 10.25H11V11.75H13V10.25ZM9.75 9V7H8.25V9H9.75ZM11 10.25C10.507 10.25 10.213 10.248 10.003 10.22C9.94136 10.2137 9.88083 10.1992 9.823 10.177L8.763 11.237C9.072 11.547 9.447 11.659 9.803 11.707C10.137 11.752 10.55 11.75 11 11.75V10.25ZM8.25 9C8.25 9.45 8.248 9.863 8.293 10.197C8.341 10.553 8.453 10.928 8.763 11.237L9.823 10.177L9.822 10.174L9.817 10.164C9.79789 10.1101 9.78546 10.054 9.78 9.997C9.752 9.787 9.75 9.493 9.75 9H8.25ZM14.25 9C14.25 9.493 14.248 9.787 14.22 9.997C14.2137 10.0586 14.1992 10.1192 14.177 10.177L15.237 11.237C15.547 10.928 15.659 10.553 15.707 10.197C15.752 9.863 15.75 9.45 15.75 9H14.25ZM13 11.75C13.45 11.75 13.863 11.752 14.197 11.707C14.553 11.659 14.928 11.547 15.237 11.237L14.177 10.177L14.174 10.178L14.164 10.183C14.1101 10.2021 14.054 10.2145 13.997 10.22C13.787 10.248 13.493 10.25 13 10.25V11.75ZM13 5.75C13.493 5.75 13.787 5.752 13.997 5.78C14.0576 5.78624 14.1171 5.80036 14.174 5.822L14.177 5.823L15.237 4.763C14.928 4.453 14.553 4.341 14.197 4.293C13.863 4.248 13.45 4.25 13 4.25V5.75ZM15.75 7C15.75 6.55 15.752 6.137 15.707 5.803C15.659 5.447 15.547 5.072 15.237 4.763L14.177 5.823L14.178 5.826L14.183 5.836C14.192 5.858 14.207 5.906 14.22 6.003C14.248 6.213 14.25 6.507 14.25 7H15.75ZM11 4.25C10.55 4.25 10.137 4.248 9.803 4.293C9.447 4.341 9.072 4.453 8.763 4.763L9.823 5.823L9.826 5.822L9.836 5.817C9.88995 5.79789 9.94603 5.78546 10.003 5.78C10.213 5.752 10.507 5.75 11 5.75V4.25ZM9.75 7C9.75 6.507 9.752 6.213 9.78 6.003C9.7863 5.94136 9.80076 5.88083 9.823 5.823L8.763 4.763C8.453 5.072 8.341 5.447 8.293 5.803C8.248 6.137 8.25 6.55 8.25 7H9.75ZM9.75 11V13H11.25V11H9.75ZM12.75 11V13H14.25V11H12.75ZM9.75 3V5H11.25V3H9.75ZM12.75 3V5H14.25V3H12.75ZM9 5.75H7V7.25H9V5.75ZM9 8.75H7V10.25H9V8.75ZM17 5.75H15V7.25H17V5.75ZM17 8.75H15V10.25H17V8.75Z" fill="#636F85"/>
</svg>
