<svg width="24" height="24" viewBox="0 0 24 24" fill="none" xmlns="http://www.w3.org/2000/svg">
<g clip-path="url(#clip0_864_93)">
<path d="M11.3585 5.89394C12.0381 5.78895 12.7344 5.86917 13.3714 6.12655C14.0085 6.38397 14.563 6.80942 14.972 7.35853C15.3811 7.90784 15.628 8.55896 15.683 9.24014C15.7379 9.92131 15.5986 10.6032 15.2817 11.2097C14.965 11.816 14.4842 12.3222 13.8949 12.6745C13.7386 12.7679 13.5688 12.8555 13.4321 12.926C13.3929 12.9463 13.3564 12.9652 13.3236 12.9823C13.1563 13.0703 13.0476 13.1346 12.9671 13.1978C12.8944 13.2548 12.8632 13.2972 12.8452 13.3326C12.8278 13.3668 12.7998 13.4398 12.7998 13.5906V14.6651C12.7998 14.9491 12.5695 15.1794 12.2855 15.1794H11.5998C11.3158 15.1794 11.0855 14.9491 11.0855 14.6651V13.5906C11.0855 13.212 11.1595 12.8658 11.3169 12.556C11.4737 12.2472 11.69 12.021 11.9085 11.8494C12.119 11.6841 12.3448 11.5601 12.5264 11.4648C12.5824 11.4354 12.6336 11.4089 12.6814 11.3842C12.8062 11.3197 12.9091 11.2665 13.0152 11.2031C13.3365 11.0111 13.5941 10.7379 13.7622 10.416C13.9302 10.0944 14.0031 9.73531 13.9743 9.37796C13.9454 9.02054 13.8157 8.67596 13.5971 8.3825C13.3784 8.0888 13.0786 7.8572 12.7291 7.71597C12.3795 7.57469 11.9955 7.53016 11.6203 7.58813C11.2451 7.6461 10.8959 7.80385 10.6107 8.04149C10.4611 8.16609 10.3324 8.30998 10.2272 8.46804C10.0699 8.70451 9.78353 8.85596 9.51404 8.76622L8.86347 8.54951C8.59399 8.45976 8.44519 8.16631 8.57196 7.91214C8.79876 7.45753 9.11907 7.05297 9.51336 6.72444C10.0402 6.28552 10.6789 5.99895 11.3585 5.89394Z" fill="#636F85"/>
<path d="M11.238 17.037C11.238 16.8003 11.43 16.6084 11.6666 16.6084H12.2217C12.4584 16.6084 12.6503 16.8003 12.6503 17.037V17.5921C12.6503 17.8287 12.4584 18.0206 12.2217 18.0206H11.6666C11.43 18.0206 11.238 17.8287 11.238 17.5921V17.037Z" fill="#636F85"/>
<path fill-rule="evenodd" clip-rule="evenodd" d="M12 0.856934C5.84601 0.856934 0.857178 5.84576 0.857178 11.9998C0.857178 18.1538 5.84601 23.1426 12 23.1426C18.1541 23.1426 23.1429 18.1538 23.1429 11.9998C23.1429 5.84576 18.1541 0.856934 12 0.856934ZM2.57146 11.9998C2.57146 6.79254 6.79278 2.57122 12 2.57122C17.2073 2.57122 21.4286 6.79254 21.4286 11.9998C21.4286 17.207 17.2073 21.4284 12 21.4284C6.79278 21.4284 2.57146 17.207 2.57146 11.9998Z" fill="#636F85"/>
</g>
<defs>
<clipPath id="clip0_864_93">
<rect width="24" height="24" fill="white"/>
</clipPath>
</defs>
</svg>
