<svg width="21" height="22" viewBox="0 0 21 22" fill="none" xmlns="http://www.w3.org/2000/svg">
<path d="M12.4004 16.4554C12.4004 16.093 12.1014 15.7855 11.7168 15.7855H8.83594L8.69727 15.8002C8.42882 15.8559 8.22405 16.0653 8.1709 16.3226L8.15723 16.4554V19.5218C8.15722 19.5894 8.14469 19.6539 8.12793 19.7162C8.02941 20.7233 7.17374 21.5004 6.14648 21.5004H4.22266C1.89765 21.5002 0 19.632 0 17.3119V8.5902L0.75 8.59801H0.799805L0 8.5902C0.00966019 7.61568 0.46892 6.70176 1.24219 6.10778L7.79395 0.850945L7.79785 0.848015L8.07129 0.648796C9.38009 -0.216332 11.0905 -0.216199 12.3994 0.648796L12.6738 0.848015L12.6758 0.848992L19.2559 6.09704H19.2549C20.0266 6.69216 20.4865 7.60387 20.5 8.57751L19.7139 8.58825H19.75L20.5 8.57751V17.3119C20.5 19.6319 18.6024 21.5002 16.2773 21.5004H14.3359L14.3535 20.7504V20.7289L14.3359 21.5004C13.2666 21.4755 12.4001 20.6073 12.4004 19.5306V16.4554ZM13.9004 19.5316L13.9102 19.6224C13.9524 19.8297 14.1355 19.9948 14.3701 20.0004H16.2773C17.7882 20.0002 19 18.7893 19 17.3119V8.59801L18.9863 8.40661C18.9291 7.96431 18.6967 7.55754 18.333 7.27966L18.3203 7.26989L11.7422 2.02282V2.0238C10.8623 1.32638 9.60936 1.32638 8.72949 2.0238L8.72852 2.02282L2.18164 7.2777C2.17628 7.28201 2.17052 7.28624 2.16504 7.2904C1.749 7.60565 1.50516 8.09115 1.5 8.60485V17.3119C1.5 18.7893 2.71183 20.0002 4.22266 20.0004H6.14648C6.42476 20.0004 6.63765 19.779 6.6377 19.5218H6.65723V16.4554C6.6572 15.2561 7.63307 14.2934 8.82617 14.2855H11.7168C12.9155 14.2855 13.9004 15.2504 13.9004 16.4554V19.5316Z" fill="white"/>
</svg>
