<svg width="24" height="24" viewBox="0 0 24 24" fill="none" xmlns="http://www.w3.org/2000/svg">
<path d="M4.125 5H19.875C21.0479 5 22 5.95214 22 7.125V16.875C22 17.4386 21.7764 17.9794 21.3779 18.3779C20.9794 18.7764 20.4386 19 19.875 19H4.125C3.56141 19 3.02058 18.7764 2.62207 18.3779C2.22356 17.9794 2 17.4386 2 16.875V7.125C2 5.95214 2.95214 5 4.125 5ZM4.125 5.5C3.69402 5.5 3.28033 5.67084 2.97559 5.97559C2.67084 6.28033 2.5 6.69402 2.5 7.125V16.875C2.5 17.7721 3.22786 18.5 4.125 18.5H19.875C20.306 18.5 20.7197 18.3292 21.0244 18.0244C21.3292 17.7197 21.5 17.306 21.5 16.875V7.125C21.5 6.69402 21.3292 6.28033 21.0244 5.97559C20.7197 5.67084 20.306 5.5 19.875 5.5H4.125ZM9.99609 13.0879C10.2051 13.0884 10.406 13.1715 10.5537 13.3193C10.7014 13.4672 10.7839 13.668 10.7842 13.877C10.784 14.3239 10.6345 14.7581 10.3594 15.1104C10.0842 15.4626 9.69924 15.7119 9.26562 15.8203L9.18945 15.8398L9.18457 15.8408C8.33587 16.0533 7.4481 16.0534 6.59766 15.8408L6.52539 15.8213L6.51855 15.8203L6.3584 15.7725C5.9904 15.6471 5.66556 15.4167 5.4248 15.1084C5.14992 14.7563 5.00027 14.3227 5 13.876C5.00053 13.6672 5.08378 13.467 5.23145 13.3193C5.37913 13.1717 5.57925 13.0884 5.78809 13.0879H9.99609ZM14.25 14H18.75C18.8163 14 18.8799 14.0264 18.9268 14.0732C18.9736 14.1201 19 14.1837 19 14.25C19 14.3163 18.9736 14.3799 18.9268 14.4268C18.8799 14.4736 18.8163 14.5 18.75 14.5H14.25C14.1837 14.5 14.1201 14.4736 14.0732 14.4268C14.0264 14.3799 14 14.3163 14 14.25C14 14.1837 14.0264 14.1201 14.0732 14.0732C14.1201 14.0264 14.1837 14 14.25 14ZM7.8916 8C8.09321 8.00001 8.29323 8.04003 8.47949 8.11719C8.66562 8.19435 8.83507 8.30772 8.97754 8.4502C9.11995 8.5927 9.23345 8.76211 9.31055 8.94824C9.38755 9.1343 9.42671 9.33379 9.42676 9.53516C9.42676 9.73673 9.38766 9.93681 9.31055 10.123C9.23342 10.3092 9.12002 10.4786 8.97754 10.6211C8.83504 10.7636 8.66566 10.8769 8.47949 10.9541C8.29323 11.0313 8.09321 11.0713 7.8916 11.0713C7.48436 11.0713 7.09363 10.9091 6.80566 10.6211C6.51778 10.3331 6.35645 9.94234 6.35645 9.53516C6.35654 9.12817 6.51795 8.73805 6.80566 8.4502C7.09363 8.16223 7.48436 8 7.8916 8ZM14.25 9.5H18.75C18.8163 9.5 18.8799 9.52636 18.9268 9.57324C18.9736 9.62013 19 9.6837 19 9.75C19 9.8163 18.9736 9.87987 18.9268 9.92676C18.8799 9.97364 18.8163 10 18.75 10H14.25C14.1837 10 14.1201 9.97364 14.0732 9.92676C14.0264 9.87988 14 9.81631 14 9.75C14 9.68369 14.0264 9.62012 14.0732 9.57324C14.1201 9.52636 14.1837 9.5 14.25 9.5Z" fill="#636F85" stroke="#636F85"/>
</svg>
